<svg xmlns="http://www.w3.org/2000/svg" xmlns:xlink="http://www.w3.org/1999/xlink" width="2000" zoomAndPan="magnify" viewBox="0 0 1500 1499.999933" height="2000" preserveAspectRatio="xMidYMid meet" version="1.0"><defs><clipPath id="6d4c2d3c8d"><path d="M 0 0 L 1500 0 L 1500 1494.75 L 0 1494.75 Z M 0 0 " clip-rule="nonzero"/></clipPath><clipPath id="1009222366"><path d="M 1 0 L 1499 0 L 1499 1494.75 L 1 1494.75 Z M 1 0 " clip-rule="nonzero"/></clipPath><clipPath id="aaa04454a9"><rect x="0" width="1500" y="0" height="1495"/></clipPath></defs><g clip-path="url(#6d4c2d3c8d)"><g transform="matrix(1, 0, 0, 1, 0, 0.000000000000112861)"><g clip-path="url(#aaa04454a9)"><path fill="#dabc22" d="M 38.289062 33.191406 L 38.289062 1457.789062 L 1462.6875 1457.789062 C 1462.6875 670.984375 824.984375 33.191406 38.289062 33.191406 Z M 38.289062 33.191406 " fill-opacity="1" fill-rule="nonzero"/><path fill="#ea9421" d="M 170.941406 268.597656 L 184.953125 258.871094 L 184.019531 251.328125 L 181.972656 246.207031 L 177.785156 237.78125 L 168.007812 222.980469 L 156.234375 205.382812 L 139.199219 190.484375 L 122.488281 202.125 L 125.609375 215.761719 L 132.777344 225.773438 L 143.574219 239.921875 L 154.417969 254.679688 L 161.027344 261.382812 L 165.589844 265.992188 Z M 265.425781 219.859375 L 266.3125 216.277344 L 267.429688 213.25 Z M 271.105469 197.328125 L 266.359375 216.230469 L 263.425781 224.050781 L 259.796875 229.355469 L 251.742188 240.203125 L 243.597656 250.257812 L 237.59375 257.378906 L 225.957031 262.546875 L 234.613281 259.195312 L 231.078125 262.222656 L 217.8125 263.476562 L 213.25 251.003906 L 213.109375 250.957031 L 215.019531 246.8125 L 214.691406 253.285156 L 223.257812 231.871094 L 232.9375 217.90625 L 238.152344 210.78125 L 240.339844 208.035156 L 243.179688 204.125 L 246.808594 201.101562 L 248.203125 199.378906 L 250.71875 197.003906 L 265.054688 192.300781 L 254.628906 194.769531 L 263.332031 189.230469 L 273.992188 195.886719 L 271.757812 205.195312 Z M 259.65625 354.902344 L 269.894531 356.90625 L 262.773438 357.183594 Z M 280.089844 347.875 L 280.042969 347.6875 L 280.042969 347.640625 Z M 224.09375 286.519531 L 224.003906 286.613281 L 254.863281 310.496094 L 267.941406 322.921875 L 274.039062 329.207031 L 277.0625 333.023438 L 280.042969 347.6875 L 276.644531 356.625 L 269.894531 356.859375 L 257.09375 353.832031 L 253.09375 349.738281 L 247.089844 343.359375 L 234.429688 330.558594 L 228.238281 324.367188 L 221.863281 318.453125 L 215.296875 312.683594 L 213.902344 311.332031 L 214.042969 311.144531 L 210.316406 307.980469 L 204.78125 300.207031 L 206.269531 290.382812 Z M 281.578125 343.777344 L 280.089844 347.640625 L 279.15625 337.214844 Z M 180.761719 313.242188 L 185.277344 302.675781 L 181.507812 291.828125 L 160.050781 291.082031 L 143.945312 305.746094 L 135.753906 313.289062 L 132.261719 316.640625 L 128.027344 320.734375 L 127.285156 323.15625 L 121.976562 329.113281 L 115.925781 342.429688 L 116.996094 338.472656 L 113.273438 344.710938 L 118.207031 351.785156 L 125.375 350.480469 L 121.140625 350.15625 L 135.660156 348.667969 L 141.480469 345.917969 L 143.667969 344.289062 L 144.785156 344.382812 L 152.558594 340.054688 L 157.023438 336.285156 L 159.398438 334.5625 L 159.910156 333.816406 L 163.402344 331.722656 L 165.542969 329.71875 L 180.902344 313.335938 Z M 126.632812 325.066406 L 126.167969 326.554688 L 125.980469 326.042969 Z M 173.96875 524.347656 L 174.015625 524.257812 L 166.378906 520.253906 L 164.285156 517.644531 L 159.351562 511.640625 L 149.765625 500.050781 L 145.527344 494.136719 L 141.617188 488.644531 L 140.410156 485.433594 L 140.457031 485.574219 L 138.828125 482.734375 L 136.40625 479.054688 L 134.730469 472.398438 L 131.191406 465.136719 L 129.097656 457.035156 L 134.589844 453.171875 L 141.480469 457.035156 L 148.042969 462.390625 L 154.511719 466.113281 L 160.238281 471.375 L 157.304688 469.464844 L 163.03125 473.238281 L 165.078125 475.84375 L 170.152344 481.617188 L 180.4375 494.789062 L 189.046875 509.6875 L 185.789062 521.324219 Z M 262.960938 493.207031 L 254.816406 504.472656 L 244.667969 517.367188 L 240.105469 522.582031 L 238.382812 523.605469 L 236.988281 525 L 234.195312 527.746094 L 219.207031 528.539062 L 216.507812 513.734375 L 216.324219 513.644531 L 218.230469 510.152344 L 219.300781 508.476562 L 219.300781 508.101562 L 223.769531 500.75 L 231.960938 489.484375 L 236.105469 483.851562 L 241.875 476.308594 L 247.832031 472.816406 L 245.273438 474.167969 L 247.367188 472.074219 L 261.050781 467.976562 L 254.117188 468.675781 L 260.492188 465.230469 L 269.152344 470.304688 L 267.101562 478.960938 L 266.3125 472.257812 L 265.753906 486.222656 L 264.402344 488.550781 Z M 227.867188 550.605469 L 227.957031 550.511719 L 232.800781 555.539062 L 235.40625 557.867188 L 236.429688 559.308594 L 236.152344 559.308594 L 239.269531 561.496094 L 240.570312 562.660156 L 242.851562 565.3125 L 247.695312 570.945312 L 256.957031 581.421875 L 261.890625 587.890625 L 265.472656 597.433594 L 261.703125 607.953125 L 250.394531 608.1875 L 242.992188 603.300781 L 238.617188 597.898438 L 229.773438 586.632812 L 223.351562 578.394531 L 221.210938 575.230469 L 220.511719 573.460938 L 220.230469 572.621094 L 220.09375 572.902344 L 219.582031 572.203125 L 218.742188 570.714844 L 216.507812 568.0625 L 212.550781 561.914062 L 215.253906 549.441406 Z M 148.878906 608.839844 L 148.695312 608.886719 L 142.128906 613.496094 L 129.65625 618.476562 L 122.441406 610.980469 L 127.839844 598.367188 L 134.542969 589.195312 L 134.964844 587.613281 L 138.035156 583.515625 L 140.875 580.070312 L 146.972656 573.089844 L 160.703125 560.753906 L 182.207031 561.171875 L 181.738281 582.679688 L 181.785156 582.722656 L 167.917969 595.105469 L 161.074219 600.832031 L 157.210938 603.765625 L 144.921875 608.46875 L 151.300781 606.929688 Z M 883.070312 541.574219 L 873.761719 535.054688 L 873.574219 535.195312 L 859.007812 514.898438 L 855.515625 510.058594 L 854.492188 507.542969 L 854.167969 507.359375 L 852.863281 504.660156 L 849.511719 499.722656 L 849 485.992188 L 847.835938 490.785156 L 849 495.441406 L 844.484375 485.433594 L 845.230469 474.027344 L 855.980469 476.449219 L 864.5 484.128906 L 860.589844 481.523438 L 855.5625 481.523438 L 867.898438 485.710938 L 871.714844 490.320312 L 874.132812 492.835938 L 874.644531 493.71875 L 876.320312 494.835938 L 879.953125 499.585938 L 894.800781 519.695312 L 898.242188 529.144531 L 892.890625 539.292969 Z M 959.960938 485.015625 L 959.078125 485.386719 L 955.167969 484.875 Z M 940.785156 491.808594 L 940.320312 492.136719 L 940.226562 492.136719 Z M 955.027344 518.578125 L 955.957031 517.367188 L 957.449219 515.644531 Z M 940.320312 492.183594 L 944.882812 491.113281 L 937.898438 493.953125 Z M 963.359375 504.984375 L 959.261719 511.640625 L 960.984375 508.476562 L 960.519531 509.035156 L 960.890625 501.492188 L 958.84375 513.503906 L 955.957031 517.320312 L 945.066406 529.9375 L 947.441406 526.957031 L 940.644531 535.429688 L 931.800781 541.945312 L 920.632812 539.945312 L 914.160156 531.054688 L 915.929688 519.789062 L 925.984375 507.03125 L 931.988281 499.675781 L 947.628906 490.414062 L 944.972656 491.019531 L 959.171875 485.246094 L 964.847656 486.039062 L 966.058594 496.277344 L 965.269531 489.0625 L 966.804688 495.441406 L 965.546875 500.28125 Z M 969.039062 614.613281 L 968.292969 620.105469 L 959.125 627.367188 L 954.144531 626.390625 L 955.445312 626.433594 L 948.464844 624.339844 L 939.25 614.054688 L 934.269531 607.675781 L 933.804688 606.699219 L 933.617188 606.417969 L 930.777344 602.878906 L 925.425781 596.734375 L 922.167969 592.5 L 920.027344 589.753906 L 918.535156 586.589844 L 918.445312 586.074219 L 917.09375 584.261719 L 917.28125 584.445312 L 915.605469 582.863281 L 909.925781 576.394531 L 910.160156 561.683594 L 924.679688 561.914062 L 924.585938 562.007812 L 931.476562 567.175781 L 933.105469 568.757812 L 932.917969 568.621094 L 934.59375 570.015625 L 934.96875 570.386719 L 938.132812 571.644531 L 940.691406 574.019531 L 944.554688 577.648438 L 950.605469 583.703125 L 961.171875 596.550781 L 967.222656 605.488281 L 968.945312 614.285156 L 968.804688 616.425781 Z M 918.210938 585.75 L 918.535156 586.496094 L 918.582031 586.960938 Z M 855.886719 584.355469 L 855.933594 583.933594 L 858.121094 581.234375 Z M 855.933594 583.980469 L 855.703125 584.261719 L 855.980469 583.5625 Z M 840.855469 604.230469 L 835.78125 615.21875 L 841.414062 622.851562 L 854.769531 619.5 L 859.191406 617.21875 L 861.007812 615.820312 L 861.890625 615.125 L 860.914062 615.589844 L 854.210938 615.261719 L 860.449219 615.496094 L 868.59375 612.050781 L 872.085938 608.933594 L 878.371094 603.160156 L 880.929688 601.808594 L 882.140625 600.273438 L 885.023438 596.550781 L 893.308594 583.703125 L 891.914062 587.191406 L 897.125 578.628906 L 897.21875 578.675781 L 893.820312 561.496094 L 876.273438 562.054688 L 869.386719 569.363281 L 872.179688 566.851562 L 863.335938 574.8125 L 854.492188 587.148438 L 855.75 584.167969 L 852.257812 588.496094 L 849.09375 591.941406 L 848.207031 595.292969 Z M 872.921875 606 L 878.136719 603.253906 L 876.554688 604.558594 Z M 845.183594 606.324219 L 845.371094 599.667969 L 848.070312 595.574219 Z M 834.710938 666.839844 L 839.921875 663.210938 L 856.308594 674.289062 L 849.417969 671.449219 L 866.082031 680.855469 L 871.339844 685.925781 L 873.0625 687.789062 L 876.136719 690.722656 L 893.683594 712.277344 L 893.21875 734.667969 L 870.550781 733.875 L 870.644531 733.78125 L 852.816406 711.761719 L 848.535156 703.804688 L 847.742188 703.476562 L 844.207031 697.75 L 841.179688 691.140625 L 839.644531 678.105469 L 840.34375 685.695312 Z M 914.347656 726.242188 L 911.554688 707.667969 L 911.601562 707.714844 L 925.984375 690.488281 L 932.40625 683.691406 L 942.320312 675.082031 L 939.296875 677.410156 L 948.789062 670.007812 L 963.636719 666.515625 L 957.496094 666.191406 L 971.644531 666.5625 L 971.132812 681.039062 L 971.273438 674.941406 L 967.410156 688.582031 L 961.03125 697.332031 L 963.359375 694.445312 L 958.378906 700.824219 L 954.65625 704.363281 L 947.582031 711.761719 L 932.824219 725.867188 Z M 913.511719 744.117188 L 916.164062 742.253906 L 922.632812 740.765625 L 925.984375 741.417969 L 931.335938 744.953125 L 931.429688 744.859375 L 940.460938 754.824219 L 943.765625 761.0625 L 944.230469 764.738281 L 942.089844 771.675781 L 938.410156 775.445312 L 933.617188 777.773438 L 928.125 777.867188 L 923.050781 776.097656 L 918.070312 771.117188 L 913.742188 763.339844 L 912.765625 762.085938 L 910.4375 757.847656 L 909.414062 752.960938 L 910.71875 748.121094 Z M 855.003906 802.628906 L 858.167969 801.421875 L 839.921875 810.03125 L 832.429688 803.980469 L 840.15625 784.800781 L 841.179688 780.9375 L 842.714844 778.9375 L 846.394531 774.375 L 856.261719 763.109375 L 864.824219 754.824219 L 874.179688 747.421875 L 884.558594 743.464844 L 894.847656 747.886719 L 898.710938 758.453125 L 893.960938 768.554688 L 894.101562 768.695312 L 886.28125 777.820312 L 878.089844 785.917969 L 869.433594 793.554688 Z M 1118.445312 742.488281 L 1107.832031 737.832031 L 1107.878906 737.738281 L 1089.308594 715.300781 L 1087.539062 712.507812 L 1084.605469 707.015625 L 1084.234375 706.316406 L 1082.511719 703.152344 L 1076.695312 686.160156 L 1077.953125 692.074219 L 1072.597656 679.410156 L 1068.597656 665.679688 L 1075.484375 661.253906 L 1086.980469 669.402344 L 1096.894531 678.898438 L 1091.867188 675.734375 L 1105.414062 687.230469 L 1107.925781 689.792969 L 1108.484375 690.863281 L 1107.785156 690.304688 L 1113.929688 697.425781 L 1130.265625 717.351562 L 1129.195312 738.578125 Z M 1203.34375 698.914062 L 1203.433594 700.359375 L 1201.199219 706.734375 L 1198.59375 711.34375 L 1192.960938 719.398438 L 1177.742188 736.480469 L 1159.871094 735.738281 L 1160.847656 717.90625 L 1160.800781 717.863281 L 1167.550781 710.738281 L 1170.714844 707.015625 L 1169.921875 708.085938 L 1170.855469 706.921875 L 1172.15625 705.058594 L 1180.164062 695.84375 L 1183.1875 692.585938 L 1186.351562 689.558594 L 1188.355469 688.765625 L 1192.730469 684.625 L 1201.527344 679.921875 L 1205.25 682.34375 L 1205.15625 692.632812 Z M 1163.964844 752.261719 L 1172.621094 756.125 L 1179.046875 760.316406 L 1175.972656 759.011719 L 1181.09375 761.386719 L 1183.046875 763.25 L 1187.5625 766.785156 L 1198.082031 775.539062 L 1213.535156 800.304688 L 1209.625 808.589844 L 1201.109375 812.035156 L 1184.539062 803.050781 L 1176.90625 795.367188 L 1169.503906 787.5 L 1165.828125 783.546875 L 1160.335938 776.839844 L 1162.335938 779.449219 L 1157.542969 773.957031 L 1152.5625 766.273438 L 1164.011719 752.542969 Z M 1124.636719 781.730469 L 1107.554688 788.710938 L 1110.625 788.664062 L 1114.070312 787.410156 L 1110.953125 788.664062 L 1111.464844 788.664062 L 1110.953125 788.664062 L 1105.226562 790.992188 L 1101.269531 792.761719 L 1088.796875 793.320312 L 1094.054688 793.691406 L 1078.277344 795.972656 L 1075.066406 789.410156 L 1083.210938 779.542969 L 1084.09375 776.144531 L 1087.492188 772.886719 L 1090.9375 769.765625 L 1098.617188 763.761719 L 1095.964844 766.414062 L 1111.742188 756.035156 L 1108.160156 757.335938 L 1116.816406 753.425781 L 1134.316406 757.988281 L 1132.546875 776.003906 L 1132.59375 776.050781 Z M 830.195312 868.453125 L 837.175781 869.292969 L 837.597656 869.710938 L 838.0625 869.851562 L 840.4375 870.6875 L 843.414062 873.0625 L 847.371094 876.691406 L 853.792969 883.535156 L 855.144531 884 L 858.679688 887.539062 L 864.964844 896.199219 L 874.179688 908.765625 L 875.34375 920.125 L 868.6875 928.832031 L 848.859375 923.523438 L 848.8125 923.570312 L 840.621094 910.769531 L 834.386719 889.773438 L 835.503906 899.039062 L 830.054688 886.515625 L 828.007812 881.300781 L 827.496094 877.53125 L 827.777344 876.367188 L 827.402344 874.878906 Z M 627.960938 931.578125 L 634.894531 937.441406 L 635.222656 937.488281 L 641.691406 942.003906 L 646.347656 946.195312 L 650.90625 951.175781 L 653.234375 953.269531 L 655.699219 955.269531 L 672.085938 975.566406 L 671.480469 995.675781 L 651.28125 995.070312 L 651.140625 995.164062 L 634.757812 975.007812 L 630.613281 967.746094 L 632.054688 971.097656 L 631.40625 969.65625 L 627.449219 964.8125 L 623.773438 959.738281 L 620.140625 953.921875 L 619.863281 952.152344 L 614.136719 943.449219 L 611.160156 938.746094 L 608.96875 931.53125 L 617.488281 925.433594 Z M 1310.488281 909.835938 L 1314.769531 899.597656 L 1304.714844 888.84375 L 1292.335938 894.242188 L 1288.378906 897.082031 L 1286.65625 897.222656 L 1281.628906 901.226562 L 1277.160156 905.648438 L 1267.945312 915.46875 L 1248.582031 938.28125 L 1248.398438 938.140625 L 1246.628906 949.777344 L 1251.609375 957.925781 L 1260.730469 961.554688 L 1271.390625 957.179688 L 1289.078125 937.441406 L 1297.59375 927.527344 L 1301.875 922.871094 L 1305.691406 917.75 L 1307.695312 906.253906 L 1307.507812 913.609375 L 1307.460938 914.214844 L 1308.484375 912.769531 Z M 1298.292969 896.292969 L 1289.914062 896.894531 L 1291.824219 895.964844 L 1290.984375 895.917969 Z M 1182.488281 886.46875 L 1186.910156 889.214844 L 1188.632812 890.890625 L 1188.496094 891.21875 L 1196.21875 896.058594 L 1208.925781 908.90625 L 1231.035156 937.535156 L 1234.574219 947.824219 L 1230.058594 957.785156 L 1209.765625 956.808594 L 1186.820312 928.921875 L 1176.160156 914.820312 L 1171.644531 906.253906 L 1171.550781 906.953125 L 1170.433594 904.808594 L 1168.15625 901.226562 L 1167.640625 891.867188 L 1174.4375 885.769531 Z M 1256.683594 1004.570312 L 1256.867188 1005.265625 L 1254.960938 1002.335938 L 1253.050781 999.449219 L 1252.492188 996.609375 L 1251.421875 994.375 L 1251.703125 992.699219 L 1251.65625 992.371094 L 1251.746094 992.652344 L 1253.238281 983.292969 L 1264.40625 982.085938 L 1264.363281 982.222656 L 1265.199219 982.734375 L 1266.457031 982.96875 L 1269.25 984.085938 L 1271.996094 986.785156 L 1274.972656 989.484375 L 1276.324219 990.648438 L 1275.949219 990.136719 L 1282.792969 996.75 L 1287.726562 1002.425781 L 1296.476562 1013.554688 L 1302.0625 1022.304688 L 1300.152344 1041.390625 L 1303.832031 1028.589844 L 1304.574219 1034.78125 L 1303.878906 1039.992188 L 1299.222656 1045.953125 L 1291.355469 1046.742188 L 1284.746094 1043.160156 L 1283.117188 1042.925781 L 1277.113281 1036.269531 L 1272.972656 1030.496094 L 1265.757812 1019.371094 L 1258.496094 1008.339844 Z M 1180.117188 1043.765625 L 1183.328125 1028.914062 L 1187.421875 1022.539062 L 1189.703125 1018.859375 L 1189.796875 1018.300781 L 1195.753906 1009.316406 L 1219.492188 984.550781 L 1236.0625 984.367188 L 1238.574219 1000.84375 L 1238.53125 1000.84375 L 1220.144531 1026.027344 L 1213.582031 1033.894531 L 1210.324219 1036.640625 L 1210.089844 1037.527344 L 1205.109375 1043.300781 L 1192.960938 1052.328125 L 1197.804688 1049.535156 L 1182.675781 1059.636719 L 1177.464844 1056.195312 L 1180.210938 1038.039062 Z M 1202.132812 1120.292969 L 1209.160156 1126.253906 L 1210.183594 1126.484375 L 1215.398438 1129.835938 L 1218.097656 1132.582031 L 1224.054688 1139.378906 L 1225.589844 1141.660156 L 1230.199219 1145.945312 L 1235.96875 1153.71875 L 1246.117188 1168.707031 L 1257.890625 1186.210938 L 1253.5625 1203.898438 L 1235.363281 1201.992188 L 1235.644531 1201.664062 L 1224.195312 1187.746094 L 1212.699219 1172.851562 L 1206.132812 1163.308594 L 1203.109375 1157.023438 L 1201.851562 1155.394531 L 1197.617188 1147.433594 L 1195.476562 1143.476562 L 1194.03125 1137.285156 L 1194.03125 1137.238281 L 1190.496094 1127.976562 Z M 1281.675781 1177.367188 L 1292.847656 1168.472656 L 1297.921875 1163.957031 L 1300.480469 1161.445312 L 1304.527344 1158.746094 L 1312.488281 1152.414062 L 1327.335938 1145.152344 L 1322.914062 1146.175781 L 1330.5 1142.265625 L 1337.25 1147.851562 L 1335.667969 1156.695312 L 1335.761719 1151.902344 L 1331.011719 1168.335938 L 1328.171875 1173.269531 L 1324.730469 1177.644531 L 1324.636719 1177.925781 L 1320.867188 1183.089844 L 1318.167969 1185.511719 L 1312.90625 1190.398438 L 1301.78125 1199.476562 L 1291.078125 1203.433594 L 1280.605469 1198.6875 L 1276.789062 1187.792969 Z M 1301.597656 1215.910156 L 1306.949219 1220.238281 L 1309.789062 1222.984375 L 1311 1223.824219 L 1311.558594 1223.777344 L 1318.167969 1229.921875 L 1323.566406 1234.949219 L 1344.324219 1255.152344 L 1350.46875 1262.785156 L 1351.398438 1278.195312 L 1339.71875 1283.828125 L 1326.589844 1276.613281 L 1307.089844 1255.339844 L 1296.617188 1243.050781 L 1294.382812 1239.695312 L 1294.382812 1239.835938 L 1291.960938 1236.71875 L 1286.46875 1229.828125 L 1286.980469 1215.164062 Z M 1235.316406 1270.886719 L 1224.84375 1277.078125 L 1231.453125 1273.585938 L 1223.496094 1279.589844 L 1205.902344 1284.339844 L 1214.234375 1283.457031 L 1206.785156 1286.339844 L 1204.320312 1286.945312 L 1200.457031 1286.667969 L 1200.222656 1286.808594 L 1195.148438 1281.128906 L 1197.058594 1273.820312 L 1200.640625 1268.511719 L 1199.058594 1276.519531 L 1203.808594 1262.226562 L 1204.503906 1261.34375 L 1205.574219 1259.855469 L 1208.042969 1257.105469 L 1208.601562 1256.503906 L 1209.671875 1254.964844 L 1214.511719 1248.449219 L 1220.003906 1241.976562 L 1219.398438 1243.003906 L 1221.402344 1240.210938 L 1225.3125 1235.972656 L 1227.824219 1233.179688 L 1226.941406 1233.972656 L 1228.617188 1232.296875 L 1235.875 1224.148438 L 1238.15625 1221.214844 L 1239.042969 1220.703125 L 1239.507812 1219.773438 L 1248.164062 1213.863281 L 1258.683594 1215.863281 L 1262.734375 1234.902344 L 1263.011719 1235.042969 L 1249.699219 1255.523438 L 1239.320312 1266.742188 Z M 996.824219 1329.492188 L 989.050781 1328.050781 L 1009.902344 1340.292969 L 1009.671875 1340.386719 L 1010.554688 1341.039062 L 1013.394531 1343.550781 L 1015.769531 1347.089844 L 1023.027344 1356.679688 L 1032.757812 1371.949219 L 1037.785156 1380.046875 L 1040.109375 1383.585938 L 1040.808594 1385.914062 L 1038.203125 1383.492188 L 1037.273438 1382.515625 L 1043.042969 1398.34375 L 1043.183594 1398.4375 L 1025.308594 1402.019531 L 1016.375 1394.246094 L 1003.015625 1375.207031 L 997.152344 1366.921875 L 995.707031 1364.6875 L 995.382812 1364.59375 L 990.773438 1358.402344 L 989.5625 1354.726562 L 988.445312 1353.746094 L 985.886719 1349.183594 L 985.5625 1349.277344 L 983.605469 1346.253906 L 981.976562 1335.21875 L 982.722656 1342.667969 L 977.230469 1329.726562 L 981.746094 1324.234375 Z M 1086.050781 1352.910156 L 1091.636719 1345.460938 L 1098.617188 1336.800781 L 1100.710938 1335.265625 L 1102.339844 1333.125 L 1105.273438 1330.472656 L 1116.535156 1324.1875 L 1112.300781 1325.304688 L 1122.355469 1318.832031 L 1127.472656 1321.953125 L 1126.914062 1328.003906 L 1124.867188 1333.078125 L 1123.65625 1328.65625 L 1122.027344 1342.433594 L 1120.121094 1345.925781 L 1118.769531 1348.207031 L 1118.722656 1349.136719 L 1107.089844 1366.640625 L 1094.472656 1383.492188 L 1088.378906 1390.382812 L 1079.394531 1397.503906 L 1066.59375 1387.355469 L 1066.546875 1387.355469 L 1075.53125 1368.410156 Z M 1207.066406 1337.78125 L 1209.019531 1338.058594 L 1213.023438 1341.269531 L 1218.097656 1345.601562 L 1227.589844 1354.863281 L 1237.039062 1364.128906 L 1246.582031 1376 L 1245.183594 1388.519531 L 1233.222656 1392.246094 L 1225.730469 1388.195312 L 1219.074219 1382.234375 L 1209.253906 1373.25 L 1199.757812 1363.941406 L 1189.984375 1347.601562 L 1193.054688 1355.980469 L 1186.492188 1347.835938 L 1182.675781 1342.808594 L 1180.628906 1335.265625 L 1188.914062 1327.679688 Z M 1292.847656 1370.320312 L 1308.859375 1356.914062 L 1324.542969 1345.507812 L 1340.367188 1335.453125 L 1350.234375 1330.890625 L 1353.308594 1330.378906 L 1352.980469 1330.609375 L 1355.078125 1330.050781 L 1360.800781 1329.214844 L 1367.085938 1339.96875 L 1364.152344 1344.296875 L 1363.640625 1344.902344 L 1362.757812 1346.8125 L 1353.492188 1356.214844 L 1352.238281 1356.726562 L 1351.679688 1357.9375 L 1346.09375 1361.753906 L 1338.179688 1367.386719 L 1323.472656 1378.234375 L 1307.601562 1389.359375 L 1292.148438 1386.144531 L 1292.847656 1370.410156 Z M 131.613281 730.664062 L 134.542969 733.316406 L 141.058594 737.039062 L 143.527344 738.855469 L 144.085938 739.648438 L 148.507812 742.253906 L 152.277344 745.140625 L 161.492188 753.613281 L 178.949219 769.71875 L 188.347656 777.867188 L 192.539062 781.589844 L 194.867188 783.683594 L 195.9375 784.476562 L 201.941406 793.414062 L 199.9375 804.261719 L 180.203125 808.589844 L 180.390625 808.355469 L 140.269531 773.816406 L 131.9375 764.503906 L 127.285156 756.3125 L 126.726562 755.242188 L 125.980469 754.777344 L 124.582031 752.078125 L 121.234375 745.375 L 118.765625 741.464844 L 113.273438 729.59375 L 121.792969 723.820312 Z M 525.238281 981.664062 L 518.628906 988.460938 L 509.738281 996.609375 L 494.984375 984.878906 L 495.03125 984.878906 L 500.894531 974.402344 L 506.433594 966.722656 L 520.488281 949.59375 L 526.492188 942.191406 L 530.03125 938.046875 L 531.800781 936 L 533.941406 934.277344 L 552.976562 921.523438 L 546.507812 923.894531 L 561.542969 914.445312 L 567.964844 919.335938 L 565.21875 927.714844 L 560.703125 935.066406 L 561.726562 928.132812 L 552.417969 948.941406 L 550.882812 951.128906 L 548.277344 954.804688 L 544.507812 958.761719 L 538.316406 965.976562 Z M 509.550781 1043.34375 L 509.597656 1043.300781 L 517.324219 1054.050781 L 524.351562 1062.386719 L 529.007812 1066.992188 L 533.242188 1071.929688 L 533.523438 1074.300781 L 537.898438 1080.355469 L 538.640625 1096.226562 L 522.769531 1096.507812 L 515.136719 1092.039062 L 525.5625 1093.386719 L 509.597656 1089.011719 L 506.109375 1085.660156 L 498.988281 1077.652344 L 484.140625 1058.566406 L 482.417969 1047.117188 L 489.164062 1038.132812 Z M 431.960938 199.285156 L 435.734375 201.796875 L 437.269531 202.777344 L 437.175781 202.824219 L 447.648438 210.503906 L 453.605469 217.113281 L 475.527344 247.558594 L 469.894531 266.921875 L 450.347656 261.382812 L 450.300781 261.429688 L 445.554688 254.355469 L 440.667969 247.417969 L 441.457031 247.882812 L 440.015625 246.023438 L 437.40625 242.667969 L 430.890625 233.5 L 431.265625 234.199219 L 430.242188 232.613281 L 426.796875 228.238281 L 424.003906 223.539062 L 421.445312 217.71875 L 421.488281 217.578125 L 420.328125 216.089844 L 418.511719 212.367188 L 415.347656 202.308594 L 422.558594 195.558594 Z M 557.214844 230.707031 L 555.539062 234.152344 L 556.097656 233.6875 L 554.46875 237.597656 L 552.140625 240.621094 L 545.625 248.488281 L 534.730469 258.730469 L 517.695312 269.109375 L 505.59375 264.59375 L 505.222656 251.652344 L 505.175781 251.609375 L 517.511719 240.15625 L 528.078125 229.542969 L 533.101562 224.234375 L 535.476562 221.722656 L 538.222656 219.488281 L 538.875 219.253906 L 543.761719 214.554688 L 553.816406 209.617188 L 560.425781 213.527344 L 560.050781 224.933594 Z M 687.027344 286.566406 L 688.140625 287.078125 L 684.976562 287.265625 L 684 287.265625 L 684.046875 287.125 Z M 697.730469 276.234375 L 697.125 279.398438 L 696.800781 278.46875 L 697.964844 275.117188 Z M 661.984375 270.460938 L 654.398438 262.59375 L 645.460938 248.769531 L 648.253906 254.585938 L 641.550781 245.371094 L 639.550781 241.878906 L 637.78125 234.105469 L 647.460938 225.820312 L 665.148438 235.734375 L 662.171875 234.335938 L 670.96875 240.621094 L 675.296875 244.625 L 682.882812 252.492188 L 690.609375 260.21875 L 696.847656 278.515625 L 694.519531 285.21875 L 687.027344 286.566406 L 669.570312 278.328125 Z M 816.464844 378.179688 L 816.746094 377.15625 L 818.1875 373.898438 L 818.792969 373.339844 L 819.582031 370.871094 L 822.285156 365.9375 L 821.074219 368.683594 L 823.632812 363.144531 L 825.542969 360.957031 L 826.101562 358.859375 L 827.449219 356.8125 L 833.082031 350.808594 L 840.203125 343.5 L 851.375 339.496094 L 862.125 344.523438 L 866.035156 355.695312 L 860.960938 366.355469 L 861.101562 366.542969 L 853.1875 372.871094 L 846.765625 377.992188 L 844.625 379.15625 L 842.996094 379.484375 L 840.203125 381.296875 L 834.523438 383.441406 L 837.363281 382.507812 L 833.546875 384.464844 L 829.730469 385.441406 L 829.078125 385.859375 L 825.773438 387.257812 L 824.5625 387.210938 L 824.84375 387.070312 L 820.652344 389.027344 L 814.324219 382.183594 L 816.324219 378.367188 Z M 246.902344 132.15625 L 242.574219 128.292969 L 240.851562 127.082031 L 241.316406 127.269531 L 236.058594 122.429688 L 223.769531 108.601562 L 211.949219 95.011719 L 208.597656 90.355469 L 208.175781 89.332031 L 207.992188 89.515625 L 207.058594 87.65625 L 200.636719 78.019531 L 202.777344 65.265625 L 215.625 64.242188 L 215.53125 64.425781 L 224.140625 71.222656 L 225.769531 72.527344 L 225.539062 72.621094 L 230.472656 77.273438 L 243.832031 90.214844 L 256.398438 103.203125 L 260.261719 107.671875 L 260.820312 108.558594 L 260.820312 108.277344 L 262.121094 109.859375 L 265.007812 113.492188 L 267.101562 124.105469 L 255.976562 134.066406 Z M 267.007812 124.058594 L 267.707031 123.453125 L 267.660156 127.222656 Z M 255.464844 134.390625 L 255.886719 134.019531 L 259.238281 134.71875 Z M 267.707031 121.171875 L 268.359375 122.847656 L 267.660156 123.453125 Z M 253.230469 134.253906 L 255.464844 134.4375 L 255.09375 134.765625 Z M 175.96875 77.089844 L 154.324219 100.550781 L 149.296875 104.691406 L 148.554688 104.972656 L 142.828125 110.699219 L 125.140625 121.265625 L 131.285156 119.261719 L 127.75 122.148438 L 118.8125 122.570312 L 116.019531 114.28125 L 117.414062 110.140625 L 118.113281 116.609375 L 123.652344 95.289062 L 128.027344 88.679688 L 129.003906 87.097656 L 128.867188 87.886719 L 132.21875 81.417969 L 156.464844 55.441406 L 176.945312 56.417969 L 175.78125 76.902344 Z M 175.96875 77.089844 " fill-opacity="1" fill-rule="nonzero"/><path fill="#d62900" d="M 314.160156 375.664062 L 320.164062 452.242188 L 343.574219 526.445312 L 355.628906 602.878906 L 365.21875 613.539062 L 380.578125 696.027344 L 392.863281 778.890625 L 395.332031 819.808594 L 491.492188 831.726562 L 573.96875 871.851562 L 642.25 911.09375 L 719.746094 913.050781 L 782.441406 871.617188 L 807.527344 801.09375 L 778.113281 718.511719 L 831.917969 671.824219 L 844.484375 602.601562 L 790.398438 518.714844 L 736.457031 508.011719 L 761.730469 416.722656 L 713.695312 337.960938 L 619.628906 327.949219 L 540.644531 384 L 485.394531 297.414062 L 416.230469 282.9375 L 350.742188 309.238281 Z M 832.105469 1026.214844 L 820.1875 1011.921875 L 849.1875 922.359375 L 884.464844 835.125 L 957.632812 779.449219 L 1056.914062 826.277344 L 1064.082031 902.296875 L 1097.128906 897.96875 L 1161.917969 940.792969 L 1163.546875 1004.101562 L 1123.84375 1055.589844 L 1187.9375 1104.46875 L 1199.570312 1175.644531 L 1168.109375 1240.769531 L 1098.335938 1273.957031 L 1022.050781 1261.574219 L 939.15625 1218.238281 L 857.472656 1236.390625 L 832.152344 1206.460938 L 847.695312 1192.167969 L 838.433594 1109.261719 Z M 832.105469 1026.214844 " fill-opacity="1" fill-rule="nonzero"/><path fill="#89a749" d="M 40.199219 1371.902344 L 39.59375 1456.484375 L 125.421875 1456.253906 L 212.550781 1458.441406 L 299.683594 1455.554688 L 386.8125 1459.417969 L 473.898438 1457.882812 L 561.03125 1460.628906 L 648.160156 1455.089844 L 735.292969 1455.273438 L 822.144531 1455.972656 L 902.710938 1393.128906 L 967.640625 1313.292969 L 999.105469 1244.816406 L 1008.738281 1170.152344 L 999.429688 1095.855469 L 967.082031 1028.261719 L 912.671875 976.546875 L 842.808594 950.382812 L 762.800781 951.453125 L 687.117188 978.964844 L 616.882812 1018.253906 L 546.414062 1057.449219 L 469.988281 1082.820312 L 388.957031 1090.363281 L 444.808594 1018.671875 L 496.84375 945.726562 L 547.300781 871.664062 L 575.832031 786.710938 L 573.644531 697.84375 L 537.945312 617.917969 L 453.605469 560.800781 L 351.859375 566.386719 L 262.867188 614.75 L 200.03125 695.84375 L 174.617188 774.140625 L 154.746094 853.929688 L 128.820312 945.960938 L 87.300781 1032.125 L 39.40625 1114.242188 L 37.683594 1199.988281 L 37.5 1285.875 Z M 40.199219 1371.902344 " fill-opacity="1" fill-rule="nonzero"/><g clip-path="url(#1009222366)"><path fill="#ea9421" d="M 5.199219 1253.242188 L 7.617188 1219.355469 L 5.476562 1185.511719 L 6.035156 1151.621094 L 1.472656 1117.734375 L 9.710938 1083.84375 L 4.683594 1050.003906 L 9.339844 1016.113281 L 7.199219 982.269531 L 2.589844 948.429688 L 6.222656 914.585938 L 6.128906 880.742188 L 8.035156 846.902344 L 1.984375 813.058594 L 3.753906 779.214844 L 6.082031 745.371094 L 1.566406 711.53125 L 9.851562 677.6875 L 6.035156 643.84375 L 9.664062 610.003906 L 5.617188 576.160156 L 3.101562 542.316406 L 9.105469 508.476562 L 9.105469 474.632812 L 2.496094 440.789062 L 9.804688 406.949219 L 9.199219 373.105469 L 2.636719 339.261719 L 3.941406 305.421875 L 6.359375 271.578125 L 4.917969 237.734375 L 3.523438 203.894531 L 5.523438 170.050781 L 9.804688 136.207031 L 7.058594 102.367188 L 4.871094 68.523438 L 6.59375 34.679688 L 8.59375 3.628906 L 38.289062 0 L 71.941406 1.957031 L 105.546875 3.492188 L 139.199219 4.65625 L 172.757812 7.167969 L 206.5 8.285156 L 239.6875 14.335938 L 273.152344 18.15625 L 305.875 26.441406 L 339.152344 31.5625 L 371.222656 42.316406 L 404.082031 49.390625 L 437.128906 55.953125 L 470.128906 63.214844 L 501.453125 75.878906 L 532.964844 87.75 L 565.917969 95.753906 L 597.660156 107.300781 L 628.707031 120.519531 L 657.46875 138.675781 L 687.304688 154.269531 L 719.980469 164.371094 L 745.996094 187.042969 L 775.179688 203.660156 L 807.480469 215.34375 L 832.570312 238.621094 L 860.171875 257.800781 L 891.355469 272.042969 L 916.675781 294.527344 L 942.226562 316.5 L 968.617188 337.355469 L 994.21875 359.1875 L 1021.074219 379.667969 L 1047.140625 401.175781 L 1068.734375 427.335938 L 1093.960938 449.820312 L 1116.117188 475.238281 L 1135.621094 502.984375 L 1157.214844 528.726562 L 1182.117188 551.816406 L 1204.457031 577.183594 L 1218.097656 608.980469 L 1238.203125 635.933594 L 1261.101562 661.070312 L 1274.742188 692.257812 L 1294.617188 719.539062 L 1310.160156 749.421875 L 1331.105469 776.375 L 1343.441406 807.9375 L 1359.453125 837.589844 L 1369.226562 870.128906 L 1385.5625 899.734375 L 1401.667969 929.621094 L 1410.09375 962.488281 L 1422.660156 993.816406 L 1426.800781 1027.84375 L 1438.066406 1059.546875 L 1450.679688 1091.011719 L 1460.359375 1123.367188 L 1465.433594 1156.789062 L 1466.691406 1190.820312 L 1472.742188 1223.871094 L 1485.027344 1256.082031 L 1486.332031 1289.878906 L 1488.519531 1323.488281 L 1491.871094 1357.003906 L 1493.871094 1390.617188 L 1498.664062 1424.085938 L 1497.035156 1457.835938 L 1496.339844 1491.492188 L 1461.382812 1493.585938 L 1427.5 1492.097656 L 1393.613281 1486.511719 L 1359.730469 1487.582031 L 1325.847656 1493.261719 L 1291.960938 1490.652344 L 1258.078125 1491.074219 L 1224.195312 1486.417969 L 1190.355469 1485.953125 L 1156.472656 1493.027344 L 1122.585938 1491.816406 L 1088.703125 1490.046875 L 1054.867188 1486.324219 L 1020.980469 1486.648438 L 987.144531 1490.140625 L 953.304688 1489.351562 L 919.46875 1492.375 L 885.628906 1494.796875 L 851.792969 1491.117188 L 817.953125 1494.421875 L 784.117188 1491.769531 L 750.277344 1489.394531 L 716.441406 1487.207031 L 682.605469 1486.835938 L 648.765625 1494.285156 L 614.929688 1492.839844 L 581.089844 1486.929688 L 547.253906 1489.953125 L 513.414062 1491.445312 L 479.578125 1487.253906 L 445.738281 1491.675781 L 411.902344 1493.351562 L 378.0625 1488.1875 L 344.226562 1493.679688 L 310.386719 1487.441406 L 276.550781 1490.375 L 242.714844 1490 L 208.875 1494.097656 L 175.039062 1489.210938 L 141.199219 1489.957031 L 107.363281 1492.75 L 73.523438 1487.394531 L 39.6875 1490.839844 L 3.523438 1492.886719 L 6.6875 1456.671875 L 6.222656 1422.734375 L 6.5 1388.847656 L 3.988281 1354.957031 L 8.828125 1321.070312 L 2.078125 1287.179688 Z M 66.914062 1060.710938 L 74.316406 1093.851562 L 71.382812 1126.996094 L 70.125 1160.140625 L 70.824219 1193.285156 L 70.917969 1226.429688 L 74.59375 1259.574219 L 72.59375 1292.71875 L 72.359375 1325.863281 L 74.035156 1359.007812 L 72.546875 1392.152344 L 68.125 1428.042969 L 104.058594 1428.136719 L 137.242188 1422.457031 L 170.429688 1425.0625 L 203.570312 1424.644531 L 236.707031 1429.300781 L 269.847656 1429.765625 L 302.988281 1422.6875 L 336.128906 1423.898438 L 369.265625 1425.667969 L 402.40625 1429.390625 L 435.546875 1429.066406 L 468.6875 1425.574219 L 501.824219 1426.367188 L 534.964844 1423.339844 L 568.105469 1420.921875 L 601.242188 1424.597656 L 634.382812 1421.292969 L 667.523438 1423.945312 L 700.664062 1426.320312 L 733.800781 1428.507812 L 766.941406 1428.878906 L 800.082031 1421.433594 L 833.222656 1422.875 L 866.359375 1428.785156 L 899.5 1425.761719 L 932.640625 1424.273438 L 965.777344 1428.460938 L 998.871094 1424.039062 L 1032.011719 1422.363281 L 1065.152344 1427.53125 L 1098.382812 1422.039062 L 1131.523438 1428.273438 L 1164.664062 1425.34375 L 1197.804688 1425.714844 L 1230.941406 1421.617188 L 1264.082031 1426.507812 L 1297.222656 1425.761719 L 1330.363281 1422.96875 L 1363.5 1428.320312 L 1396.640625 1424.875 L 1428.710938 1422.039062 L 1432.292969 1391.3125 L 1428.152344 1357.75 L 1420.75 1324.605469 L 1420.75 1290.761719 L 1416.28125 1257.386719 L 1412.929688 1223.777344 L 1400.96875 1191.75 L 1395.894531 1158.464844 L 1390.542969 1125.183594 L 1377.742188 1093.761719 L 1376.488281 1059.125 L 1362.804688 1028.078125 L 1355.449219 994.980469 L 1340.089844 964.722656 L 1325.425781 934.371094 L 1317.839844 900.992188 L 1303.972656 870.222656 L 1283.398438 842.757812 L 1274.554688 809.425781 L 1257.9375 780.054688 L 1235.503906 754.125 L 1219.167969 724.703125 L 1203.0625 695.050781 L 1183.046875 667.957031 L 1162.476562 641.332031 L 1143.953125 613.167969 L 1126.496094 584.027344 L 1102.898438 559.773438 L 1079.207031 535.753906 L 1057.84375 509.6875 L 1036.851562 483.105469 L 1009.71875 462.578125 L 986.445312 438.183594 L 961.777344 415.234375 L 935.804688 393.773438 L 909.695312 372.5 L 881.765625 353.554688 L 855.933594 331.90625 L 827.820312 313.335938 L 801.339844 292.386719 L 772.203125 275.394531 L 745.253906 254.867188 L 715.511719 238.898438 L 684.792969 224.886719 L 653.746094 211.714844 L 624.515625 194.910156 L 594.167969 180.246094 L 561.589844 170.886719 L 529.9375 159.578125 L 498.382812 148.125 L 467.988281 132.996094 L 436.105469 122.007812 L 402.128906 118.519531 L 371.40625 102.832031 L 338.5 95.289062 L 304.152344 95.058594 L 272.128906 83 L 238.894531 77.226562 L 204.6875 79.089844 L 171.59375 72.480469 L 138.175781 68.011719 L 104.523438 66.519531 L 69.988281 65.960938 L 72.546875 99.480469 L 74.640625 132.667969 L 71.058594 165.859375 L 73.382812 199.003906 L 72.222656 232.148438 L 68.3125 265.292969 L 68.078125 298.4375 L 72.824219 331.582031 L 74.875 364.726562 L 66.914062 397.871094 L 67.800781 431.015625 L 72.824219 464.160156 L 67.566406 497.304688 L 70.453125 530.449219 L 69.054688 563.59375 L 74.59375 596.734375 L 71.152344 629.878906 L 72.640625 663.023438 L 68.03125 696.167969 L 71.382812 729.3125 L 75.199219 762.457031 L 71.617188 795.601562 L 73.246094 828.746094 L 66.777344 861.890625 L 68.589844 895.035156 L 72.546875 928.179688 L 74.222656 961.324219 L 71.988281 994.421875 L 66.636719 1027.566406 Z M 66.914062 1060.710938 " fill-opacity="1" fill-rule="nonzero"/></g><path fill="#2c511c" d="M 333.242188 652.039062 L 333.101562 649.945312 L 321.558594 666.84375 L 309.503906 664.1875 L 302.707031 653.902344 L 303.734375 644.683594 L 308.898438 637.1875 L 312.15625 634.347656 L 333.707031 623.875 L 339.246094 624.0625 L 344.226562 626.203125 L 346.738281 628.671875 L 349.207031 633.277344 L 349.765625 636.816406 L 349.019531 642.214844 L 347.4375 645.429688 L 342.132812 649.992188 L 342.039062 649.804688 L 340.457031 650.875 L 335.195312 654.738281 L 328.820312 660.511719 L 330.730469 658.460938 L 332.21875 655.667969 Z M 313.226562 638.074219 L 317.042969 636.910156 L 316.625 636.910156 L 316.859375 636.910156 Z M 317.136719 636.910156 L 321.699219 637.097656 L 320.023438 636.628906 L 320.628906 636.816406 Z M 329.65625 641.703125 L 332.265625 645.894531 L 331.984375 644.917969 L 329.890625 641.84375 L 329.9375 641.984375 Z M 296.191406 924.59375 L 306.898438 920.777344 L 310.109375 917.332031 L 312.855469 909.371094 L 313.042969 906.765625 L 313.648438 901.457031 L 314.4375 897.78125 L 316.996094 887.121094 L 316.484375 890.660156 L 317.136719 887.726562 L 316.8125 881.394531 L 302.523438 872.222656 L 295.632812 875.25 L 290.980469 880.464844 L 285.535156 890.566406 L 283.066406 898.664062 L 281.855469 906.347656 L 281.808594 912.070312 L 285.90625 919.753906 Z M 301.636719 871.621094 L 302.523438 872.179688 L 306.433594 870.457031 Z M 300.335938 871.898438 L 301.636719 871.621094 L 301.078125 871.246094 Z M 318.023438 882.140625 L 317.742188 881.953125 L 317.976562 882.976562 Z M 316.625 876.785156 L 316.859375 881.347656 L 317.742188 881.90625 Z M 464.636719 778.285156 L 463.332031 785.453125 L 466.125 794.34375 L 471.664062 799.1875 L 481.207031 800.117188 L 484.742188 798.765625 L 487.769531 796.578125 L 492.9375 788.574219 L 493.726562 786.011719 L 495.214844 777.214844 L 494.191406 768.371094 L 489.957031 758.453125 L 491.773438 760.96875 L 492.9375 763.714844 L 488.933594 753.007812 L 488.839844 753.054688 L 474.363281 747.933594 L 467.195312 761.664062 L 467.894531 765.109375 L 467.988281 766.414062 L 468.082031 765.949219 L 468.5 763.15625 L 468.175781 763.527344 L 469.570312 760.457031 L 467.011719 770.835938 L 467.707031 767.207031 L 465.800781 774.558594 Z M 279.53125 1107.679688 L 275.992188 1113.3125 L 280.273438 1132.398438 L 290.792969 1134.167969 L 295.542969 1131.886719 L 299.265625 1128.207031 L 304.105469 1119.039062 L 306.292969 1109.449219 L 306.152344 1099.953125 L 302.894531 1091.433594 L 302.800781 1091.480469 L 294.003906 1086.730469 L 286 1092.734375 L 285.253906 1095.109375 L 284.324219 1097.203125 L 281.34375 1104.1875 Z M 283.765625 1098.507812 L 284.371094 1097.203125 L 284.976562 1095.761719 Z M 125.933594 1057.960938 L 133.378906 1048.976562 L 139.476562 1043.53125 L 149.34375 1037.15625 L 160.050781 1033.335938 L 170.800781 1036.875 L 175.6875 1040.597656 L 176.109375 1045.535156 L 174.945312 1047.628906 L 174.898438 1049.910156 L 170.894531 1055.589844 L 170.523438 1056.054688 L 167.359375 1059.125 L 165.402344 1060.710938 L 161.355469 1064.199219 L 156.28125 1069.507812 L 148.414062 1078.304688 L 148.554688 1077.839844 L 146.972656 1079.75 L 137.570312 1082.121094 L 127.191406 1077 L 124.722656 1073.371094 L 123.140625 1065.503906 Z M 173.828125 1050.234375 L 173.410156 1050.46875 L 173.457031 1050.234375 L 173.175781 1050.792969 L 173.222656 1050.839844 L 172.105469 1052.238281 Z M 153.347656 1063.6875 L 152.371094 1060.152344 L 152.371094 1060.382812 L 152.648438 1065.644531 Z M 172.152344 1037.292969 L 171.082031 1036.96875 L 172.570312 1037.621094 Z M 170.617188 1036.734375 L 170.753906 1036.828125 L 171.128906 1036.921875 Z M 165.261719 1034.359375 L 170.664062 1036.734375 L 167.359375 1034.222656 Z M 171.453125 1055.03125 L 170.476562 1055.960938 L 169.082031 1057.636719 Z M 173.269531 1266.789062 L 176.667969 1264.324219 L 176.109375 1264.230469 L 179.507812 1261.578125 L 184.300781 1258.179688 L 184.765625 1257.804688 L 182.671875 1259.203125 L 185.558594 1257.152344 L 187.835938 1255.246094 L 190.070312 1253.335938 L 195.144531 1249.519531 L 192.210938 1251.613281 L 196.679688 1246.679688 L 194.632812 1249.425781 L 197.285156 1245.980469 L 205.199219 1240.257812 L 215.113281 1241.839844 L 220.929688 1249.707031 L 221.394531 1253.195312 L 219.207031 1259.621094 L 219.207031 1259.667969 L 213.621094 1269.210938 L 215.066406 1265.90625 L 212.597656 1271.304688 L 210.921875 1273.492188 L 205.570312 1280.195312 L 202.265625 1284.199219 L 197.9375 1287.644531 L 190.769531 1291.507812 L 184.394531 1291.742188 L 178.574219 1289.507812 L 172.945312 1283.6875 L 171.175781 1279.21875 L 171.222656 1272.839844 Z M 184.578125 1257.898438 L 185.976562 1256.921875 L 185.042969 1257.527344 Z M 200.636719 1268.371094 L 201.707031 1270.28125 L 201.007812 1268.417969 Z M 381.835938 1279.917969 L 381.460938 1287.457031 L 394.496094 1297.980469 L 407.898438 1293.324219 L 411.4375 1289.972656 L 416.324219 1283.734375 L 424.375 1260.085938 L 424.328125 1260.085938 L 420.699219 1250.496094 L 413.160156 1246.449219 L 398.171875 1255.664062 L 397.660156 1256.734375 L 391.5625 1266.371094 L 388.957031 1269.257812 L 384.488281 1273.773438 L 381.835938 1279.21875 L 383.648438 1275.960938 Z M 768.105469 1051.257812 L 767.828125 1050.421875 L 768.058594 1053.402344 Z M 740.597656 1053.167969 L 736.96875 1060.523438 L 737.199219 1074.675781 L 744.925781 1081.515625 L 750.371094 1082.121094 L 755.539062 1080.820312 L 759.121094 1078.257812 L 762.101562 1075.324219 L 764.429688 1070.019531 L 766.058594 1065.457031 L 766.847656 1060.664062 L 767.453125 1058.195312 L 768.058594 1054.097656 L 767.828125 1050.375 L 765.035156 1042.554688 L 767.734375 1049.910156 L 768.152344 1046.183594 L 768.105469 1046.183594 L 765.777344 1039.34375 L 761.730469 1036.78125 L 750.792969 1040.460938 L 749.441406 1042.273438 L 747.394531 1044.183594 L 745.671875 1045.953125 L 748.882812 1043.066406 L 748.464844 1043.625 L 748.929688 1043.390625 Z M 888.285156 1086.03125 L 888.886719 1082.867188 L 888.933594 1082.632812 Z M 881.253906 1110.425781 L 885.445312 1095.949219 L 889.867188 1082.355469 L 888.46875 1085.472656 L 888.886719 1082.914062 L 889.355469 1080.539062 L 890.515625 1078.863281 L 890.515625 1078.722656 L 890.144531 1079.28125 L 890.65625 1077.933594 L 891.214844 1073.789062 L 900.570312 1064.386719 L 911.367188 1072.113281 L 911.460938 1072.113281 L 913.136719 1080.726562 L 912.765625 1079.980469 L 914.207031 1086.078125 L 914.113281 1090.269531 L 914.488281 1092.039062 L 914.671875 1095.34375 L 914.023438 1101.535156 L 913.230469 1107.304688 L 911.925781 1113.871094 L 909.367188 1119.875 L 906.808594 1122.808594 L 901.78125 1125.789062 L 891.726562 1126.066406 L 885.304688 1121.550781 Z M 893.589844 1074.488281 L 890.609375 1078.585938 L 890.5625 1078.769531 Z M 848.859375 1292.578125 L 840.992188 1303.378906 L 846.019531 1326.28125 L 858.773438 1328.191406 L 868.734375 1320.835938 L 882.140625 1296.304688 L 886.515625 1284.757812 L 889.492188 1267.675781 L 889.214844 1274.5625 L 890.84375 1266.558594 L 890.703125 1266.511719 L 883.164062 1251.988281 L 874.132812 1252.730469 L 868.734375 1259.667969 L 867.988281 1261.0625 L 867.898438 1261.949219 L 863.195312 1269.628906 L 856.726562 1281.175781 Z M 867.898438 1261.34375 L 867.988281 1261.15625 L 868.035156 1260.878906 Z M 727.613281 1264.972656 L 727.054688 1264.789062 L 727.984375 1266.089844 Z M 724.027344 1260.550781 L 726.960938 1264.742188 L 727.054688 1264.789062 Z M 713.183594 1261.855469 L 715 1261.15625 L 714.160156 1260.878906 Z M 685.210938 1277.824219 L 692.65625 1274.097656 L 690.515625 1274.84375 L 697.21875 1271.910156 L 703.128906 1268.28125 L 703.921875 1267.535156 L 711.183594 1263.578125 L 707.738281 1264.742188 L 707.96875 1264.554688 L 705.039062 1266.648438 L 708.667969 1263.765625 L 715.136719 1261.15625 L 727.007812 1264.742188 L 729.472656 1268.28125 L 729.984375 1273.398438 L 728.03125 1281.265625 L 728.683594 1277.496094 L 727.707031 1282.246094 L 725.425781 1286.714844 L 723.886719 1289.179688 L 717.652344 1296.816406 L 709.738281 1302.867188 L 700.242188 1306.777344 L 693.496094 1306.871094 L 687.351562 1304.496094 L 680.089844 1294.070312 L 682.371094 1281.175781 Z M 702.851562 1268.511719 L 702.988281 1268.371094 L 700.152344 1270.421875 Z M 715 1261.15625 L 715.089844 1261.203125 L 719.46875 1259.433594 Z M 615.300781 1158.605469 L 615.71875 1158.558594 L 616.09375 1158.464844 Z M 606.316406 1162.003906 L 601.246094 1172.898438 L 605.105469 1184.117188 L 615.71875 1189.609375 L 634.757812 1187.886719 L 645.230469 1184.394531 L 656.074219 1176.714844 L 650.90625 1181.277344 L 654.492188 1179.132812 L 654.539062 1179.226562 L 660.589844 1171.6875 L 660.542969 1163.355469 L 647.976562 1156.277344 L 638.015625 1156.183594 L 633.3125 1156.835938 L 623.632812 1157.953125 L 627.820312 1157.859375 L 615.765625 1158.605469 L 609.667969 1159.769531 Z M 641.738281 1156.136719 L 647.882812 1156.277344 L 645.742188 1155.066406 Z M 617.765625 1158.1875 L 616.09375 1158.511719 L 619.535156 1158.09375 Z M 478.414062 1370.039062 L 474.738281 1385.820312 L 487.816406 1395.222656 L 501.21875 1391.453125 L 507.597656 1387.730469 L 523.1875 1374.460938 L 521 1376.976562 L 524.910156 1372.691406 L 527.566406 1365.058594 L 525.796875 1371.015625 L 528.542969 1366.503906 L 529.519531 1363.753906 L 529.984375 1361.613281 L 528.078125 1352.957031 L 519.652344 1350.535156 L 517.464844 1350.769531 L 513.648438 1352.117188 L 510.0625 1354.210938 L 516.160156 1352.675781 L 507.96875 1355.375 L 495.726562 1361.476562 L 484.511719 1366.410156 L 488.140625 1365.199219 Z M 519.328125 1350.347656 L 519.605469 1350.441406 L 520.535156 1350.347656 Z M 505.875 1355.886719 L 507.828125 1355.238281 L 509.039062 1354.632812 Z M 530.125 1360.589844 L 529.9375 1361.519531 L 529.9375 1361.613281 Z M 362.613281 367.378906 L 360.75 376.78125 L 362.566406 388.515625 L 368.429688 393.773438 L 374.851562 394.890625 L 382.160156 391.726562 L 385.699219 386.324219 L 386.347656 377.945312 L 386.628906 375.433594 L 389.421875 365.5625 L 389.1875 366.03125 L 390.492188 356.90625 L 385.277344 349.457031 L 375.96875 348.199219 L 368.707031 353.601562 Z M 431.03125 466.441406 L 428.984375 471.699219 L 429.261719 480.125 L 430.984375 485.945312 L 434.011719 493.71875 L 438.058594 501.214844 L 445.460938 504.378906 L 450.8125 503.167969 L 455.839844 491.4375 L 452.488281 483.941406 L 450.90625 480.171875 L 448.996094 475.003906 L 445.320312 467.511719 L 435.59375 463.414062 Z M 679.625 387.769531 L 679.902344 383.90625 L 679.207031 381.4375 L 677.203125 378.273438 L 675.203125 376.78125 L 671.621094 375.574219 L 667.710938 375.664062 L 663.707031 376.921875 L 659.425781 378.644531 L 657.609375 379.667969 L 651.976562 383.71875 L 650.347656 385.023438 L 647.089844 388.421875 L 645.742188 392.65625 L 645.789062 397.21875 L 648.71875 402.199219 L 652.257812 404.667969 L 655.097656 405.457031 L 659.609375 405.457031 L 662.265625 404.25 L 666.546875 400.941406 L 668.5 399.359375 L 671.710938 396.566406 L 673.480469 395.308594 L 674.320312 394.332031 L 676.414062 392.65625 L 674.410156 394.191406 L 674.96875 393.632812 L 675.015625 393.726562 L 678.601562 390.234375 Z M 684.558594 503.585938 L 684.511719 503.496094 L 684.464844 504.703125 L 684.371094 503.261719 L 682.230469 499.816406 L 684.417969 513.503906 L 682.371094 519.230469 L 678.742188 527.1875 L 668.128906 535.988281 L 653.933594 524.722656 L 655.839844 517.414062 L 657.097656 515.457031 L 660.820312 511.175781 L 660.167969 511.921875 L 664.589844 506.007812 L 667.941406 501.351562 L 668.875 500.097656 L 670.269531 499.539062 L 670.316406 499.492188 L 670.035156 499.632812 L 670.457031 499.351562 L 671.433594 497.769531 L 679.484375 494.511719 L 684.464844 501.445312 L 684.652344 501.445312 L 684.605469 503.402344 Z M 661.566406 510.382812 L 659.9375 512.339844 L 662.125 509.734375 Z M 670.59375 499.398438 L 670.546875 499.445312 L 676.085938 497.210938 Z M 745.066406 634.628906 L 745.902344 633.371094 L 745.207031 634.023438 L 744.785156 634.953125 Z M 770.757812 639.421875 L 764.941406 641.9375 L 761.355469 643.195312 L 759.355469 643.800781 L 758.332031 644.125 L 757.585938 644.078125 L 752.746094 644.636719 L 750.511719 644.359375 L 750.371094 644.265625 L 749.488281 644.21875 L 745.765625 642.726562 L 743.53125 639.421875 L 743.761719 636.070312 L 744.695312 634.953125 L 744.601562 635.234375 L 745.019531 634.628906 L 746.742188 632.582031 L 745.859375 633.371094 L 746.835938 631.929688 L 747.441406 631.136719 L 749.253906 629.742188 L 750.1875 629.136719 L 748.695312 630.859375 L 753.304688 626.761719 L 751.351562 628.066406 L 756.375 623.96875 L 758.84375 622.058594 L 765.964844 618.148438 L 771.457031 618.242188 L 776.808594 622.058594 L 778.71875 627.039062 L 778.578125 629.832031 L 777.273438 633.699219 Z M 748.742188 630.160156 L 749.253906 629.789062 L 750.464844 628.902344 Z M 678.367188 768.882812 L 677.671875 775.910156 L 680.277344 780.84375 L 689.910156 786.339844 L 695.355469 788.574219 L 698.054688 789.734375 L 700.894531 790.433594 L 707.273438 790.945312 L 713.601562 787.921875 L 713.695312 788.015625 L 715.511719 779.074219 L 711.742188 773.257812 L 707.503906 770.046875 L 704.757812 768.648438 L 698.941406 765.949219 L 688.421875 762.363281 L 681.71875 764.550781 Z M 603.152344 820.597656 L 602.640625 818.179688 L 603.757812 822.695312 L 603.664062 824.464844 L 604.96875 827.257812 L 606.269531 830.234375 L 605.527344 828.09375 L 605.664062 828.464844 L 605.246094 826.09375 L 609.4375 837.636719 L 611.578125 841.222656 L 614.324219 844.992188 L 620.792969 848.25 L 622.839844 848.578125 L 629.449219 846.480469 L 632.335938 843.503906 L 633.40625 840.941406 L 634.011719 837.40625 L 631.683594 830.421875 L 629.496094 827.769531 L 626.703125 824.695312 L 621.675781 820.554688 L 620 819.296875 L 616.417969 817.667969 L 618.511719 818.597656 L 615.90625 816.78125 L 613.253906 815.433594 L 612.601562 815.433594 L 609.484375 813.894531 L 609.34375 813.894531 L 608.367188 813.429688 L 606.597656 812.265625 L 606.597656 812.21875 L 601.570312 817.0625 Z M 949.816406 842.757812 L 953.257812 847.738281 L 956.425781 850.53125 L 963.125 850.019531 L 958.84375 850.949219 L 964.382812 849.832031 L 967.546875 847.179688 L 969.78125 843.59375 L 969.921875 842.945312 L 970.480469 841.6875 L 970.945312 840.847656 L 972.949219 836.707031 L 971.875 839.078125 L 974.109375 835.261719 L 974.621094 827.023438 L 974.949219 831.351562 L 974.761719 831.726562 L 974.949219 831.398438 L 974.996094 831.726562 L 975.320312 830.886719 L 975.367188 830.886719 L 975.460938 830.5625 L 975.648438 830.050781 L 975.507812 830.328125 L 976.4375 826.605469 L 975.179688 823.390625 L 968.246094 820.460938 L 966.152344 821.109375 L 964.429688 821.066406 L 960.148438 823.113281 L 957.449219 825.535156 L 953.539062 830.003906 L 950.792969 835.402344 L 950.09375 837.125 Z M 953.257812 847.738281 L 952.234375 846.855469 L 954.328125 849.320312 Z M 951.304688 845.96875 L 952.28125 846.808594 L 951.351562 845.691406 Z M 1114.070312 955.738281 L 1114.210938 955.457031 L 1114.164062 955.457031 L 1114.070312 955.039062 L 1114.070312 954.710938 L 1113.882812 954.292969 L 1113.140625 950.847656 L 1111.136719 950.242188 L 1110.347656 949.730469 L 1108.390625 948.707031 L 1103.828125 948.566406 L 1102.386719 948.707031 L 1099.363281 949.453125 L 1094.007812 951.453125 L 1091.496094 953.035156 L 1089.121094 956.34375 L 1088.003906 960.390625 L 1088.097656 963.324219 L 1090.332031 967.886719 L 1094.988281 971.097656 L 1104.015625 970.261719 L 1108.625 966.769531 L 1112.113281 962.625 L 1113.742188 959.648438 L 1113.976562 955.96875 Z M 1053.191406 1172.246094 L 1045.511719 1177.644531 L 1048.628906 1186.628906 L 1051.375 1188.304688 L 1053.097656 1189.839844 L 1057.097656 1191.75 L 1061.101562 1192.914062 L 1066.640625 1193.984375 L 1070.039062 1194.402344 L 1073.761719 1194.03125 L 1077.113281 1192.820312 L 1082.699219 1183.648438 L 1081.488281 1178.15625 L 1077.671875 1174.246094 L 1074.507812 1172.710938 L 1070.832031 1172.105469 L 1068.921875 1172.199219 L 1064.734375 1172.339844 L 1060.589844 1172.011719 L 1056.355469 1172.476562 L 1056.167969 1172.523438 L 1053.191406 1172.292969 Z M 1128.546875 1132.351562 L 1128.03125 1135.515625 L 1128.3125 1138.496094 L 1129.382812 1141.195312 L 1129.476562 1141.289062 L 1132.128906 1144.3125 L 1134.363281 1145.804688 L 1135.757812 1146.457031 L 1137.296875 1146.734375 L 1140.226562 1146.828125 L 1143.066406 1146.175781 L 1144.464844 1145.523438 L 1147.164062 1143.757812 L 1147.394531 1143.335938 L 1147.816406 1143.058594 L 1149.722656 1140.589844 L 1152.5625 1134.726562 L 1151.492188 1137.238281 L 1153.679688 1132.210938 L 1154.144531 1130.769531 L 1153.351562 1122.480469 L 1154.144531 1129.929688 L 1155.539062 1123.132812 L 1154.425781 1118.570312 L 1153.027344 1116.757812 L 1150.1875 1114.847656 L 1147.953125 1114.242188 L 1144.417969 1114.335938 L 1142.277344 1115.21875 L 1139.621094 1117.363281 L 1138.273438 1119.875 L 1138.691406 1118.945312 L 1137.109375 1121.832031 L 1136.410156 1122.527344 L 1135.757812 1123.507812 L 1135.480469 1123.878906 L 1132.96875 1126.113281 L 1131.664062 1127.601562 L 1129.847656 1129.789062 Z M 1062.824219 1253.105469 L 1062.636719 1253.011719 L 1062.871094 1253.335938 L 1062.265625 1252.964844 L 1063.988281 1254.316406 Z M 1067.152344 1238.71875 L 1067.757812 1238.8125 L 1069.480469 1238.488281 Z M 1063.058594 1239.789062 L 1063.335938 1239.699219 L 1067.757812 1238.8125 L 1076.136719 1239.835938 L 1081.816406 1242.445312 L 1081.859375 1242.445312 L 1080.371094 1241.699219 L 1082.699219 1242.445312 L 1090.566406 1243.609375 L 1095.359375 1250.21875 L 1087.632812 1263.296875 L 1074.179688 1261.902344 L 1071.34375 1260.691406 L 1068.039062 1257.898438 L 1064.871094 1255.152344 L 1066.828125 1256.6875 L 1061.566406 1251.613281 L 1062.035156 1252.21875 L 1063.148438 1253.289062 L 1062.917969 1253.195312 L 1062.40625 1252.636719 L 1062.777344 1253.105469 L 1062.078125 1252.777344 L 1059.054688 1249.332031 L 1062.035156 1251.707031 L 1060.078125 1243.46875 Z M 1058.542969 1245.050781 L 1059.9375 1243.421875 L 1059.84375 1242.957031 Z M 1059.753906 1242.863281 L 1059.800781 1243.003906 L 1060.03125 1242.628906 Z M 903.363281 896.292969 L 904.851562 889.402344 L 903.457031 886.191406 L 901.96875 884.421875 L 899.035156 882.511719 L 896.613281 882.09375 L 890.050781 884.28125 L 887.957031 886.097656 L 892.378906 883.863281 L 887.257812 886.515625 L 884.839844 889.214844 L 883.394531 891.078125 L 880.464844 897.875 L 880.042969 902.109375 L 880.417969 904.855469 L 881.859375 907.417969 L 882.140625 908.113281 L 882.417969 908.441406 L 883.769531 909.976562 L 885.863281 911.375 L 888.28125 912.164062 L 892.191406 912.445312 L 894.613281 911.605469 L 896.660156 910.117188 L 897.125 909.605469 L 898.429688 908.535156 L 900.664062 905.042969 L 900.988281 903.460938 L 901.96875 899.921875 L 902.570312 898.015625 L 902.992188 897.035156 L 902.992188 896.894531 Z M 461.75 525.746094 L 461.65625 541.804688 L 483.582031 549.441406 L 492.890625 537.242188 L 495.820312 526.023438 L 502.941406 502.609375 L 516.671875 458.0625 L 530.355469 416.863281 L 539.898438 398.101562 L 546.460938 379.996094 L 546.320312 379.996094 L 538.921875 373.246094 L 521.699219 385.582031 L 507.597656 402.898438 L 488.46875 444.1875 L 472.503906 491.34375 L 465.988281 513.644531 Z M 593.5625 615.730469 L 583.789062 625.832031 L 591.375 641.609375 L 607.621094 638.863281 L 619.304688 634.023438 L 641.691406 622.339844 L 685.164062 593.246094 L 715.695312 557.820312 L 734.269531 514.992188 L 734.222656 514.945312 L 719.652344 509.6875 L 665.476562 573.367188 L 625.167969 598.691406 L 604.410156 609.164062 Z M 614.042969 692.632812 L 616.464844 693.28125 L 619.117188 692.257812 Z M 759.449219 734.667969 L 770.664062 730.011719 L 777.785156 722.285156 L 777.972656 722.421875 L 774.574219 712.789062 L 763.683594 711.53125 L 753.257812 712.789062 L 733.382812 714.464844 L 693.121094 713.394531 L 654.492188 703.246094 L 616.371094 693.28125 L 604.035156 697.984375 L 610.273438 705.851562 L 629.125 719.769531 L 649.324219 728.523438 L 692.796875 740.066406 L 737.710938 739.695312 Z M 963.5 965.886719 L 956.890625 1002.242188 L 965.40625 1005.21875 L 974.203125 998.425781 L 977.324219 990 L 983 977.382812 L 1001.339844 953.457031 L 1056.167969 910.675781 L 1055.9375 910.347656 L 1045.230469 894.988281 L 984.910156 938.234375 Z M 1011.207031 1085.242188 L 1010.277344 1105.070312 L 1043.695312 1105.351562 L 1072.085938 1095.296875 L 1098.152344 1079.328125 L 1108.671875 1069.785156 L 1116.816406 1057.265625 L 1116.445312 1057.03125 L 1106.667969 1046.558594 L 1084.652344 1060.570312 L 1061.894531 1073 L 1037.832031 1079.75 L 1025.449219 1081.890625 Z M 1011.207031 1085.242188 " fill-opacity="1" fill-rule="nonzero"/></g></g></g></svg>