<svg xmlns="http://www.w3.org/2000/svg" xmlns:xlink="http://www.w3.org/1999/xlink" width="2000" zoomAndPan="magnify" viewBox="0 0 1500 1499.999933" height="2000" preserveAspectRatio="xMidYMid meet" version="1.0"><defs><clipPath id="842febf650"><path d="M 375 17.238281 L 1124 17.238281 L 1124 1481 L 375 1481 Z M 375 17.238281 " clip-rule="nonzero"/></clipPath><clipPath id="6a06a23c68"><path d="M 375 21 L 1125 21 L 1125 1482.738281 L 375 1482.738281 Z M 375 21 " clip-rule="nonzero"/></clipPath></defs><path fill="#ea9421" d="M 1092.316406 401.414062 L 1092.316406 1450.273438 L 405.851562 1450.273438 L 405.851562 401.414062 C 405.851562 298.46875 449.097656 201.011719 523.625 133.902344 C 529.246094 128.84375 535.03125 123.953125 540.980469 119.289062 C 602.445312 70.824219 675.78125 46.625 749.082031 46.625 C 822.386719 46.625 895.71875 70.859375 957.183594 119.289062 C 960.523438 121.902344 963.765625 124.578125 966.972656 127.324219 C 1046.160156 194.53125 1092.316406 295.03125 1092.316406 401.414062 Z M 1092.316406 401.414062 " fill-opacity="1" fill-rule="nonzero"/><path fill="#dabc22" d="M 493.007812 343.199219 L 486.691406 305.277344 L 492.476562 267.164062 L 510.300781 233.011719 L 537.046875 205.175781 L 571.730469 188.21875 L 609.785156 182.796875 L 647.613281 188.910156 L 682.328125 205.441406 L 709.871094 232.582031 L 726.800781 267.292969 L 732.949219 305.3125 L 727.230469 343.460938 L 708.976562 377.347656 L 682.425781 405.28125 L 647.941406 422.738281 L 609.785156 428.191406 L 571.832031 422.109375 L 537.082031 405.347656 L 510.101562 377.710938 Z M 921.3125 284.519531 L 918.171875 284.089844 L 918.367188 283.691406 L 875.1875 271.460938 L 837.925781 251.589844 L 818.980469 223.789062 L 831.3125 189.242188 L 865.070312 168.414062 L 868.808594 168.316406 L 868.34375 166.398438 L 869.46875 165.703125 L 867.683594 156.679688 L 828.765625 158.960938 L 789.851562 156.878906 L 754.109375 147.226562 L 737.28125 122.695312 L 750.570312 87.355469 L 751.101562 78.199219 L 742.042969 79.585938 L 725.078125 114.429688 L 737.511719 149.703125 L 774.246094 165.242188 L 818.386719 169.671875 L 846.058594 168.910156 L 827.609375 178.996094 L 806.878906 217.046875 L 824.601562 254.667969 L 861.929688 275.757812 L 879.617188 282.105469 L 861.863281 283.527344 L 810.582031 294.171875 L 785.882812 334.734375 L 792.363281 382.140625 L 802.648438 415.234375 L 811.472656 432.457031 L 781.253906 420.160156 L 738.339844 412.457031 L 702.199219 425.679688 L 682.128906 462.96875 L 676.808594 506.144531 L 657.496094 484.988281 L 623.308594 461.8125 L 583.996094 461.746094 L 553.445312 486.972656 L 544.386719 505.054688 L 545.113281 495.039062 L 529.476562 459.863281 L 497.039062 447.796875 L 462.457031 455.960938 L 448.964844 469.613281 L 453.460938 455.960938 L 443.378906 420.851562 L 394.277344 406.835938 L 397.75 412.65625 L 398.179688 412.65625 L 437.890625 427.300781 L 441.164062 457.679688 L 431.179688 486.476562 L 440.832031 492.722656 L 470.027344 466.042969 L 508.347656 459.203125 L 530.765625 486.375 L 531.460938 532.097656 L 543.429688 536.195312 L 558.472656 502.210938 L 583.832031 475.53125 L 616.167969 472.921875 L 647.546875 491.101562 L 677.601562 524.0625 L 685.964844 522.410156 L 686.726562 517.816406 L 687.320312 517.683594 L 686.824219 517.152344 L 693.835938 474.671875 L 705.078125 436.886719 L 738.734375 423 L 774.542969 430.871094 L 821.128906 449.8125 L 829.59375 442.210938 L 815.144531 411.300781 L 800.992188 380.125 L 798.214844 346.140625 L 810.980469 309.839844 L 853.332031 296.683594 L 884.710938 292.949219 L 900.21875 290.933594 L 913.210938 294.566406 L 913.34375 294.269531 L 915.921875 295.195312 Z M 921.3125 284.519531 " fill-opacity="1" fill-rule="nonzero"/><path fill="#d62900" d="M 745.347656 427.828125 L 759.167969 446.640625 L 758.96875 446.769531 L 754.441406 450.902344 L 753.878906 450.308594 L 700.976562 488.160156 L 701.933594 489.152344 L 694.03125 494.605469 L 679.386719 481.085938 L 663.546875 471.003906 L 645.5625 461.449219 L 628.402344 450.472656 L 611.605469 433.183594 L 603.242188 410.605469 L 603.96875 386.671875 L 613.984375 362.902344 L 631.742188 344.058594 L 655.945312 334.832031 L 675.320312 335.261719 L 693.074219 342.964844 L 706.167969 355.859375 L 716.019531 371.527344 L 723.890625 390.109375 L 732.847656 408.191406 Z M 778.148438 440.160156 L 850.058594 418.871094 L 850.390625 420.226562 L 859.25 417.382812 L 857.863281 397.25 L 861.234375 376.917969 L 865.929688 358.703125 L 868.34375 340.089844 L 868.609375 322.105469 L 862.820312 305.148438 L 838.125 282.765625 L 818.816406 278.699219 L 799.109375 279.394531 L 780.460938 283.625 L 763.269531 291.824219 L 748.652344 309.046875 L 741.675781 330.703125 L 741.609375 353.546875 L 747.265625 375.628906 L 755.066406 397.015625 L 763.996094 419.796875 L 774.875 441.648438 L 778.609375 440.523438 L 778.246094 440.589844 Z M 884.015625 436.523438 L 884.941406 437.347656 L 886 438.308594 L 885.800781 438.109375 L 945.414062 490.210938 L 944.222656 492.523438 L 953.21875 497.085938 L 974.378906 472.789062 L 1002.746094 454.042969 L 1026.882812 430.175781 L 1033.992188 412.851562 L 1034.652344 394.074219 L 1024.601562 368.421875 L 1005.921875 348.125 L 981.253906 336.023438 L 961.417969 332.453125 L 941.578125 335.59375 L 925.476562 344.785156 L 913.410156 359.03125 L 903.324219 384.421875 L 895.027344 410.605469 L 881.402344 434.144531 Z M 1000.863281 490.410156 L 981.652344 505.085938 L 962.507812 519.832031 L 963.765625 522.34375 L 957.914062 590.3125 L 955.929688 590.941406 L 957.914062 596.230469 L 978.910156 595.570312 L 999.9375 595.667969 L 1020.105469 600.957031 L 1040.140625 606.378906 L 1064.574219 604.59375 L 1085.109375 591.304688 L 1098.5 570.644531 L 1102.335938 551.371094 L 1103.027344 531.765625 L 1101.109375 511.929688 L 1094.730469 493.085938 L 1079.917969 474.871094 L 1058.757812 464.789062 L 1035.414062 467.003906 L 1017.460938 477.648438 Z M 485.898438 709.65625 L 459.082031 688.167969 L 427.175781 678.25 L 401.917969 695.804688 L 394.113281 729.589844 L 394.410156 748.003906 L 396.230469 766.316406 L 402.84375 787.476562 L 414.8125 805.890625 L 434.78125 814.882812 L 454.453125 812.765625 L 472.707031 805.097656 L 487.617188 798.121094 L 504.082031 803.078125 L 509.902344 795.277344 L 506 793.855469 L 513.835938 732.894531 L 515.226562 730.183594 L 515.753906 729.6875 L 500.84375 719.574219 Z M 977.488281 971.285156 L 991.140625 956.011719 L 999.210938 937.199219 L 998.382812 916.769531 L 988.960938 898.621094 L 971.964844 884.007812 L 951.136719 875.742188 L 929.046875 871.476562 L 906.566406 872.867188 L 886.5625 877.660156 L 870.757812 890.421875 L 862.820312 907.644531 L 861.597656 926.71875 L 862.789062 953.730469 L 862.65625 980.703125 L 856.441406 1001.761719 L 842.289062 1018.195312 L 846.355469 1024.410156 L 846.222656 1024.175781 L 848.242188 1022.261719 L 923.128906 1037.300781 L 923.59375 1039.683594 L 931.363281 1041.367188 L 936.089844 1032.011719 L 938.734375 1020.839844 L 947.464844 1001.136719 L 961.75 985.5 Z M 1106.632812 1029.597656 L 1102.070312 1009.136719 L 1092.84375 990.257812 L 1079.386719 974.226562 L 1063.453125 962.753906 L 1044.375 958.257812 L 1025.363281 963.8125 L 1009.921875 976.375 L 997.160156 996.96875 L 985.949219 1018.523438 L 971.46875 1038.160156 L 951.003906 1051.253906 L 952.523438 1055.816406 L 952.554688 1056.113281 L 953.117188 1055.914062 L 972.691406 1128.113281 L 971.007812 1129.765625 L 976.394531 1136.179688 L 985.089844 1130.660156 L 994.910156 1125.636719 L 1014.121094 1116.90625 L 1036.605469 1112.644531 L 1059.253906 1109.203125 L 1079.191406 1103.289062 L 1095.257812 1089.996094 L 1103.691406 1070.921875 L 1107.691406 1050.460938 Z M 1106.632812 1029.597656 " fill-opacity="1" fill-rule="nonzero"/><path fill="#2c511c" d="M 1030.355469 1179.652344 L 1022.320312 1216.085938 L 1015.246094 1252.582031 L 996.234375 1288.449219 L 975.105469 1322.929688 L 954.839844 1358.105469 L 935.527344 1393.875 L 916.320312 1429.480469 L 901.671875 1467.894531 L 859.714844 1467.464844 L 818.121094 1462.175781 L 776.261719 1464.585938 L 734.570312 1462.308594 L 692.941406 1458.242188 L 651.117188 1459.792969 L 609.390625 1457.347656 L 568.09375 1453.875 L 597.15625 1425.546875 L 614.183594 1387.195312 L 620.101562 1345.9375 L 626.980469 1304.75 L 621.722656 1263.160156 L 627.179688 1221.671875 L 630.386719 1180.644531 L 634.882812 1138.992188 L 654.390625 1102.726562 L 678.460938 1069.667969 L 704.148438 1038.625 L 661.234375 1017.203125 L 614.25 1005.136719 L 577.75 984.175781 L 543.261719 960.140625 L 514.066406 929.464844 L 496.511719 891.015625 L 481.996094 851.941406 L 473.632812 810.484375 L 482.09375 769.128906 L 495.550781 729.425781 L 518.863281 694.515625 L 547.429688 663.503906 L 584.230469 642.910156 L 623.871094 627.734375 L 649.164062 622.742188 L 651.445312 602.214844 L 655.414062 560.128906 L 661.960938 518.542969 L 671.980469 477.21875 L 699.191406 447.332031 L 729.144531 420.257812 L 768.457031 406.109375 L 809.523438 400.09375 L 850.390625 406.042969 L 891.15625 414.273438 L 924.882812 438.605469 L 954.375 466.902344 L 973.75 502.738281 L 987.703125 541.253906 L 987.570312 582.28125 L 981.058594 622.414062 L 970.082031 662.546875 L 944.09375 695.273438 L 915.292969 721.65625 L 884.542969 745.226562 L 854.125 769.328125 L 832.171875 799.542969 L 819.113281 834.519531 L 812.5 871.046875 L 807.605469 907.679688 L 803.308594 938.851562 L 796.726562 969.761719 L 803.207031 989.265625 L 842.453125 998.589844 L 879.652344 993.632812 L 916.617188 1001.730469 L 950.042969 1019.21875 L 979.835938 1042.226562 L 999.707031 1073.996094 L 1015.507812 1107.1875 L 1024.238281 1142.890625 Z M 1030.355469 1179.652344 " fill-opacity="1" fill-rule="nonzero"/><path fill="#d62900" d="M 712.878906 527.203125 L 714.597656 551.136719 L 708.777344 569.683594 L 700.878906 587.570312 L 694.429688 607.339844 L 689.238281 627.4375 L 689.335938 627.472656 L 684.875 627.207031 L 683.121094 628.859375 L 683.78125 635.503906 L 656.703125 637.125 L 629.625 638.941406 L 602.546875 640.792969 L 595.503906 634.742188 L 593.585938 611.570312 L 588.890625 588.859375 L 580.988281 568.792969 L 575.269531 548.195312 L 578.011719 525.417969 L 590.839844 506.34375 L 608.894531 492.09375 L 632.171875 485.980469 L 656.207031 486.242188 L 679.15625 493.550781 L 699.15625 507.269531 Z M 864.972656 588.496094 L 852.207031 565.847656 L 832.703125 548.59375 L 808.136719 540.625 L 783.171875 543.105469 L 760.789062 554.875 L 744.652344 574.214844 L 736.984375 591.832031 L 733.148438 610.742188 L 729.210938 629.71875 L 720.878906 647.042969 L 725.640625 651.140625 L 725.011719 652.464844 L 747.429688 665.191406 L 767.632812 681.09375 L 783.207031 701.324219 L 793.621094 702.84375 L 811.011719 685.953125 L 830.519531 671.539062 L 849.761719 656.726562 L 860.839844 642.546875 L 869.003906 626.546875 L 870.226562 607.140625 Z M 565.117188 597.453125 L 560.355469 572.988281 L 553.183594 556.128906 L 539.558594 544.230469 L 505.835938 539.699219 L 483.945312 545.949219 L 465.234375 558.90625 L 450.984375 576.792969 L 444.171875 599.074219 L 444.503906 622.3125 L 454.15625 643.238281 L 469.664062 654.941406 L 487.121094 666.613281 L 501.570312 681.027344 L 508.578125 700.035156 L 516.714844 702.777344 L 528.8125 688.234375 L 542.46875 675.140625 L 557.746094 664.167969 L 573.25 653.6875 L 573.484375 653.785156 L 577.582031 645.355469 L 569.117188 622.015625 Z M 565.117188 597.453125 " fill-opacity="1" fill-rule="nonzero"/><path fill="#dabc22" d="M 605.355469 724.265625 L 610.648438 741.195312 L 586.476562 748.894531 L 584.359375 727.835938 L 585.253906 717.65625 L 588.492188 710.878906 L 588.261719 710.8125 L 599.042969 710.613281 L 603.175781 717.125 Z M 716.152344 810.75 L 738.238281 809.59375 L 719.921875 774.085938 L 706.597656 785.527344 L 706.628906 785.492188 Z M 591.636719 861.460938 L 575.796875 864.46875 L 575.863281 864.46875 L 590.511719 897.296875 L 601.058594 892.570312 L 597.785156 874.683594 Z M 721.609375 926.457031 L 706.828125 923.746094 L 704.050781 938.523438 L 704.019531 938.554688 L 713.96875 954.785156 L 725.773438 958.722656 L 732.652344 948.375 Z M 794.148438 1064.742188 L 783.765625 1082.359375 L 796.925781 1089.335938 L 807.175781 1071.683594 L 804.035156 1061.730469 Z M 904.25 1086.261719 L 889.140625 1120.839844 L 906.433594 1122.496094 L 911.789062 1106.957031 L 914.664062 1091.75 L 904.152344 1086.164062 Z M 927.429688 1192.84375 L 927.527344 1192.875 L 917.410156 1218.796875 L 938.472656 1226.53125 L 940.753906 1192.511719 Z M 856.707031 1330.433594 L 843.84375 1356.15625 L 864.375 1364.75 L 874.230469 1337.542969 L 856.539062 1330.335938 Z M 750.503906 1255.191406 L 736.453125 1269.242188 L 732.484375 1290.796875 L 751.695312 1292.78125 L 755.894531 1277.671875 L 761.050781 1265.011719 Z M 693.371094 1121.964844 L 680.609375 1149.503906 L 698.628906 1150.957031 L 701.503906 1140.179688 L 704.746094 1132.476562 Z M 916.019531 529.386719 L 940.523438 528.128906 L 922.601562 492.292969 L 914.765625 495.929688 L 914.832031 495.960938 L 914.269531 512.195312 Z M 910.53125 618.644531 L 899.953125 623.472656 L 900.019531 623.503906 L 890.496094 651.273438 L 898.695312 660.925781 L 910.136719 655.570312 L 915.03125 641.71875 L 917.972656 627.539062 Z M 847.414062 451.234375 L 847.25 450.902344 L 846.523438 452.160156 Z M 848.570312 448.621094 L 847.050781 450.472656 L 847.25 450.9375 Z M 841.859375 439.234375 L 842.222656 440.027344 L 844.539062 439.730469 Z M 842.222656 440.027344 L 827.707031 441.878906 L 815.476562 450.9375 L 816.335938 466.277344 L 831.710938 465.417969 L 839.777344 459.167969 L 847.019531 450.472656 Z M 841.726562 438.902344 L 840.40625 438.96875 L 841.859375 439.234375 Z M 751.960938 499.167969 L 731.59375 523.535156 L 736.222656 537.980469 L 750.804688 533.285156 L 763.960938 513.121094 L 752.027344 499.269531 Z M 672.308594 1351.328125 L 664.175781 1377.644531 L 669.136719 1390.207031 L 669.863281 1390.503906 L 685.074219 1384.320312 L 691.816406 1356.683594 L 672.441406 1351.394531 Z M 672.308594 1351.328125 " fill-opacity="1" fill-rule="nonzero"/><path fill="#2c511c" d="M 665.664062 513.285156 L 659.976562 515.632812 L 669.796875 530.476562 L 673.566406 539.667969 L 674.625 545.1875 L 674.957031 549.453125 L 672.507812 550.277344 L 669.929688 546.808594 L 667.449219 543.039062 L 663.019531 535.003906 L 653.792969 518.972656 L 653.894531 518.9375 L 653.992188 518.144531 L 646.6875 521.152344 L 636.238281 519.203125 L 628.433594 536.625 L 621.789062 557.71875 L 619.640625 558.082031 L 618.054688 555.867188 L 616.796875 553.351562 L 616.929688 546.742188 L 620.765625 534.445312 L 630.78125 518.210938 L 624.203125 516.988281 L 607.207031 502.773438 L 611.703125 498.972656 L 619.605469 504.460938 L 626.980469 509.152344 L 645.097656 512.691406 L 672.179688 494.9375 L 672.078125 494.871094 L 677.335938 496.757812 Z M 851.613281 594.542969 L 842.820312 593.253906 L 825.296875 585.121094 L 811.507812 552.0625 L 805.65625 550.609375 L 805.753906 550.640625 L 806.316406 573.453125 L 809.65625 577.75 L 790.910156 586.3125 L 782.34375 592.394531 L 778.113281 596.03125 L 776.425781 598.28125 L 774.875 600.394531 L 776.855469 602.808594 L 779.039062 601.816406 L 781.417969 600.792969 L 786.082031 598.082031 L 795.007812 592.5625 L 812.894531 581.882812 L 820.46875 591.601562 L 835.28125 598.28125 L 831.214844 617.421875 L 827.542969 626.347656 L 825.492188 631.273438 L 824.929688 633.984375 L 824.765625 636.332031 L 827.113281 637.984375 L 831.015625 634.976562 L 834.253906 630.117188 L 838.652344 619.734375 L 841.5625 601.15625 L 841.828125 601.289062 L 853.5625 602.476562 L 862.953125 597.1875 L 861.101562 594.445312 Z M 532.617188 587.636719 L 532.054688 584.230469 L 530.996094 582.511719 L 530.367188 581.71875 L 530.234375 581.355469 L 528.285156 578.710938 L 522.828125 573.023438 L 516.183594 567.667969 L 511.390625 565.386719 L 514.628906 561.484375 L 518.167969 543.929688 L 514.003906 543.535156 L 513.835938 543.433594 L 507.753906 558.210938 L 497.4375 570.246094 L 482.921875 578.578125 L 467.746094 582.839844 L 460.636719 582.148438 L 458.886719 586.675781 L 473.730469 590.148438 L 477.960938 588 L 476.441406 593.386719 L 477.699219 605.71875 L 481.105469 617.652344 L 483.816406 623.371094 L 486.261719 625.289062 L 486.460938 625.816406 L 487.585938 626.347656 L 489.535156 625.453125 L 489.933594 624.296875 L 489.632812 623.769531 L 489.898438 620.992188 L 488.410156 615.371094 L 485.5 604.957031 L 483.683594 594.710938 L 483.78125 585.054688 L 503.289062 575.171875 L 507.125 570.542969 L 508.316406 571.734375 L 508.8125 572.261719 L 509.503906 572.691406 L 510.5625 573.484375 L 511.09375 573.949219 L 517.078125 578.808594 L 522.335938 584.164062 L 524.019531 585.785156 L 524.617188 586.148438 L 525.210938 586.675781 L 529.308594 589.488281 L 528.054688 588.890625 L 531.425781 591.039062 L 533.144531 589.519531 L 532.484375 586.113281 Z M 460.902344 716.996094 L 449.628906 715.242188 L 426.21875 714.285156 L 426.351562 720.265625 L 426.351562 720.367188 L 449.132812 722.582031 L 460.140625 723.871094 L 465.234375 723.9375 L 470.65625 723.738281 L 471.152344 721.027344 L 466.621094 718.679688 Z M 446.253906 760.203125 L 435.675781 754.679688 L 430.121094 752.003906 L 427.277344 750.714844 L 424.203125 750.25 L 421.921875 754.085938 L 421.886719 754.121094 L 423.835938 756.53125 L 426.417969 758.25 L 431.507812 761.722656 L 442.78125 767.542969 L 454.257812 772.765625 L 460.042969 774.648438 L 463.347656 774.816406 L 463.84375 774.945312 L 465.367188 774.449219 L 466.488281 771.9375 L 457.164062 764.996094 Z M 969.121094 889.828125 L 966.3125 886.554688 L 966.246094 886.453125 L 951.167969 889.890625 L 933.609375 890.917969 L 919.757812 886.222656 L 914.832031 881.5625 L 912.550781 879.113281 L 910.035156 876.835938 L 907.523438 877.628906 L 908.085938 885.332031 L 913.675781 891.777344 L 931.296875 898.289062 L 944.621094 897.429688 L 946.011719 900.769531 L 949.183594 906.753906 L 953.78125 918.851562 L 956.988281 931.511719 L 960.195312 943.84375 L 962.839844 943.679688 L 964.128906 930.6875 L 960.757812 915.8125 L 955.433594 902.851562 L 951.796875 897.199219 L 951.566406 896.96875 L 952.457031 896.902344 Z M 918.269531 895.3125 L 902.265625 909.429688 L 895.191406 916.933594 L 889.503906 926.621094 L 892.382812 929.265625 L 897.40625 926.355469 L 900.84375 922.519531 L 907.589844 915.082031 L 922.203125 901.59375 L 923.460938 896.503906 L 918.238281 895.28125 Z M 1058.558594 1012.539062 L 1063.914062 1008.210938 L 1063.023438 1005.035156 L 1062.957031 1005.203125 L 1055.78125 1005.929688 L 1048.539062 1008.707031 L 1034.519531 1016.242188 L 1022.222656 1025.136719 L 1013.394531 1037.101562 L 1019.578125 1038.394531 L 1029.03125 1030.425781 L 1040.671875 1022.589844 L 1052.410156 1015.78125 Z M 1058.625 1051.351562 L 1050.226562 1061.300781 L 1045.796875 1065.863281 L 1045.167969 1066.460938 L 1044.636719 1067.285156 L 1044.671875 1067.152344 L 1043.648438 1068.3125 L 1042.851562 1069.136719 L 1042.390625 1069.964844 L 1042.390625 1070.164062 L 1041.464844 1071.949219 L 1042.421875 1074.660156 L 1045.199219 1075.285156 L 1045.929688 1075.023438 L 1045.992188 1074.824219 L 1046.984375 1074.726562 L 1047.84375 1074.292969 L 1048.472656 1073.699219 L 1049.996094 1072.378906 L 1050.324219 1072.246094 L 1050.953125 1071.714844 L 1051.382812 1071.1875 L 1056.011719 1066.328125 L 1064.144531 1055.21875 L 1063.023438 1050.957031 Z M 812.5 305.609375 L 816.996094 304.355469 L 817.0625 305.808594 L 828.765625 320.785156 L 833.992188 328.785156 L 840.207031 336.386719 L 843.480469 335.230469 L 842.390625 330.371094 L 842.191406 329.148438 L 841.828125 327.925781 L 840.933594 325.609375 L 835.480469 316.253906 L 823.941406 302.402344 L 828.238281 301.214844 L 839.808594 290.238281 L 835.875 287.59375 L 835.976562 287.757812 L 823.113281 295.230469 L 809.0625 297.609375 L 795.007812 295.460938 L 781.785156 289.445312 L 773.582031 290.800781 L 783.636719 300.15625 Z M 784 326.734375 L 782.378906 339 L 782.578125 345.675781 L 785.355469 351.132812 L 788 350.964844 L 790.179688 346.140625 L 790.875 339.925781 L 792.296875 328.421875 L 800.761719 306.867188 L 795.140625 303.0625 Z M 688.777344 374.734375 L 682.363281 369.082031 L 675.945312 365.117188 L 664.042969 359.695312 L 664.078125 359.628906 L 667.679688 351.429688 L 666.988281 343.097656 L 664.605469 343.164062 L 664.707031 343.265625 L 661.265625 349.84375 L 657.101562 356.816406 L 647.644531 369.183594 L 635.90625 378.835938 L 629.164062 382.207031 L 622.683594 386.109375 L 623.175781 389.214844 L 631.90625 389.480469 L 638.683594 386.339844 L 641.460938 400.09375 L 644.734375 409.28125 L 647.347656 413.28125 L 650.355469 417.183594 L 652.207031 416.257812 L 651.015625 409.316406 L 651.050781 410.738281 L 649.398438 403.066406 L 647.082031 395.101562 L 643.84375 382.605469 L 653.894531 374.40625 L 660.011719 365.511719 L 672.308594 371.464844 L 678.890625 375.132812 L 686.230469 378.304688 L 684.808594 378.109375 L 692.28125 381.976562 L 693.835938 379.695312 L 688.015625 373.578125 Z M 1016.171875 371.5625 L 1009.195312 369.777344 L 1001.027344 369.050781 L 985.820312 365.246094 L 972.890625 356.851562 L 967.667969 350.570312 L 964.03125 344.023438 L 961.351562 344.125 L 961.582031 344.289062 L 965.78125 360.355469 L 980.460938 371.199219 L 997.789062 376.390625 L 1007.046875 377.214844 L 1016.5 375.199219 Z M 945.28125 392.125 L 945.28125 392.09375 L 944.953125 390.109375 Z M 965.582031 364.585938 L 952.789062 375.960938 L 947.597656 383.035156 L 947.035156 383.859375 L 946.605469 384.785156 L 945.945312 386.671875 L 945.316406 392.09375 L 945.515625 393.28125 L 947.167969 393.878906 L 949.515625 392.523438 L 947.695312 393.382812 L 951.695312 390.175781 L 952.523438 388.917969 L 953.117188 388.390625 L 954.042969 386.867188 L 958.34375 381.015625 L 969.519531 370.605469 L 970.707031 365.613281 Z M 991.605469 376.191406 L 988.167969 393.878906 L 987.4375 411.894531 L 990.710938 412.523438 L 998.546875 377.679688 Z M 1089.738281 540.492188 L 1085.769531 535.171875 L 1081.570312 522.90625 L 1087.058594 497.417969 L 1083.324219 493.152344 L 1074.132812 507.039062 L 1074 513.78125 L 1072.511719 513.21875 L 1064.839844 511.234375 L 1050.128906 507.433594 L 1036.304688 506.441406 L 1024.601562 512.757812 L 1025.792969 515.664062 L 1031.578125 514.871094 L 1038.421875 514.707031 L 1050.855469 515.996094 L 1064.511719 519.335938 L 1073.898438 519.105469 L 1073.832031 523.765625 L 1091.984375 548.128906 L 1093.207031 545.683594 Z M 1075.882812 534.246094 L 1073.207031 535.898438 L 1074.660156 535.367188 L 1069.570312 537.949219 L 1064.742188 540.460938 L 1054.523438 546.839844 L 1045.101562 553.816406 L 1040.636719 557.683594 L 1037.429688 562.742188 L 1039.578125 565.253906 L 1042.355469 564.425781 L 1045.003906 563.203125 L 1050.359375 559.765625 L 1060.375 552.460938 L 1070.261719 545.550781 L 1075.125 542.210938 L 1078.992188 537.816406 Z M 1075.882812 534.246094 " fill-opacity="1" fill-rule="nonzero"/><g clip-path="url(#842febf650)"><path fill="#658e89" d="M 984.660156 106.761719 L 974.839844 96.910156 L 939.230469 77.4375 L 904.78125 56.742188 L 866.625 44.214844 L 828.734375 31.289062 L 789.386719 22.625 L 749.082031 17.238281 L 708.910156 23.683594 L 669.960938 33.304688 L 631.445312 43.816406 L 591.46875 52.675781 L 559.53125 78.328125 L 523.558594 97.140625 L 506.992188 115.390625 L 478.523438 143.785156 L 453.265625 175.09375 L 429.789062 207.953125 L 414.414062 245.34375 L 399.570312 282.667969 L 391.632812 322.007812 L 379.367188 360.851562 L 378.410156 401.382812 L 380.226562 441.183594 L 376.921875 481.019531 L 380.390625 520.855469 L 381.714844 560.691406 L 383.5 600.527344 L 378.210938 640.363281 L 378.9375 680.199219 L 380.757812 720.035156 L 383.730469 759.871094 L 375.101562 799.609375 L 379.167969 839.445312 L 383.234375 879.246094 L 379.5 919.082031 L 377.945312 958.917969 L 379.996094 998.753906 L 382.308594 1038.589844 L 379.832031 1078.425781 L 377.613281 1118.261719 L 381.78125 1158.097656 L 377.417969 1197.933594 L 378.472656 1237.769531 L 377.648438 1277.605469 L 379.464844 1317.441406 L 375.367188 1357.277344 L 383.101562 1397.113281 L 381.085938 1436.984375 L 380.492188 1475.761719 L 418.28125 1480.457031 L 457.164062 1478.738281 L 496.082031 1479.101562 L 534.964844 1479.332031 L 573.878906 1475.726562 L 612.796875 1475.5625 L 651.710938 1480.523438 L 690.628906 1472.820312 L 729.542969 1475.925781 L 768.457031 1479.859375 L 807.375 1479.960938 L 846.289062 1479.464844 L 885.207031 1473.976562 L 924.121094 1475.234375 L 963.039062 1475.628906 L 1001.953125 1473.777344 L 1040.871094 1475.332031 L 1079.816406 1475.296875 L 1118.171875 1476.191406 L 1117.113281 1436.949219 L 1118.933594 1397.113281 L 1117.972656 1357.277344 L 1123.066406 1317.441406 L 1118.933594 1277.605469 L 1118.171875 1237.769531 L 1121.3125 1197.933594 L 1118.171875 1158.097656 L 1119.230469 1118.261719 L 1114.566406 1078.460938 L 1119.890625 1038.625 L 1117.875 998.820312 L 1114.5 958.984375 L 1114.832031 919.148438 L 1119.5625 879.3125 L 1121.511719 839.476562 L 1122.402344 799.640625 L 1121.414062 759.804688 L 1115.859375 719.96875 L 1114.699219 680.132812 L 1121.542969 640.296875 L 1115.296875 600.460938 L 1119.132812 560.625 L 1116.652344 520.789062 L 1122.007812 480.953125 L 1117.511719 441.085938 L 1117.3125 401.214844 L 1118.007812 359.429688 L 1106.566406 319.128906 L 1102.300781 277.078125 L 1080.578125 240.8125 L 1062.460938 203.589844 L 1040.175781 168.582031 L 1012.898438 137.273438 Z M 1065.433594 1423.398438 L 1026.320312 1421.777344 L 986.746094 1426.40625 L 947.101562 1424.984375 L 907.523438 1428.023438 L 867.945312 1426.074219 L 828.335938 1424.058594 L 788.726562 1420.882812 L 749.117188 1425.117188 L 709.507812 1428.125 L 669.898438 1427.59375 L 630.320312 1420.453125 L 590.710938 1427.460938 L 551.097656 1422.074219 L 511.488281 1425.347656 L 471.878906 1425.246094 L 431.308594 1424.785156 L 432.929688 1384.519531 L 429.886719 1345.210938 L 430.582031 1305.90625 L 428.269531 1266.597656 L 434.417969 1227.257812 L 433.292969 1187.949219 L 431.476562 1148.644531 L 434.78125 1109.335938 L 431.308594 1070.03125 L 429.988281 1030.722656 L 428.203125 991.414062 L 433.492188 952.109375 L 432.765625 912.769531 L 430.945312 873.460938 L 427.972656 834.15625 L 436.535156 794.816406 L 432.46875 755.472656 L 428.402344 716.132812 L 432.167969 676.792969 L 433.722656 637.453125 L 431.675781 598.148438 L 429.359375 558.808594 L 431.839844 519.46875 L 434.054688 480.128906 L 429.886719 440.789062 L 434.253906 401.445312 L 435.507812 361.808594 L 443.277344 322.898438 L 453.03125 284.351562 L 472.640625 249.738281 L 486.164062 211.523438 L 512.152344 180.878906 L 540.289062 152.414062 L 559.597656 142.894531 L 592.394531 118.199219 L 629.164062 99.851562 L 667.980469 86.496094 L 707.6875 74.726562 L 749.117188 71.816406 L 789.882812 79.488281 L 831.972656 80.246094 L 870.292969 96.976562 L 905.210938 119.222656 L 938.867188 142.5625 L 948.191406 149.539062 L 981.621094 174.167969 L 1006.550781 207.226562 L 1027.84375 242.632812 L 1046.65625 279.558594 L 1057.5 319.558594 L 1064.941406 360.191406 L 1066.757812 401.414062 L 1067.585938 440.722656 L 1065.765625 480.027344 L 1066.726562 519.335938 L 1061.632812 558.640625 L 1065.765625 597.980469 L 1066.527344 637.289062 L 1063.386719 676.597656 L 1066.527344 715.902344 L 1065.46875 755.210938 L 1070.128906 794.515625 L 1064.808594 833.824219 L 1066.824219 873.132812 L 1070.195312 912.472656 L 1069.867188 951.777344 L 1065.136719 991.085938 L 1063.1875 1030.425781 L 1062.292969 1069.765625 L 1063.285156 1109.105469 L 1068.839844 1148.445312 L 1070 1187.785156 L 1063.152344 1227.09375 L 1069.402344 1266.433594 L 1065.566406 1305.773438 L 1068.046875 1345.113281 L 1062.691406 1384.453125 Z M 1065.433594 1423.398438 " fill-opacity="1" fill-rule="nonzero"/></g><g clip-path="url(#6a06a23c68)"><path fill="#d62900" d="M 1120.949219 1343.789062 L 1124.816406 1308.914062 L 1123.066406 1268.382812 L 1121.015625 1229.574219 L 1121.875 1186.761719 L 1120.683594 1147.488281 L 1120.15625 1109.304688 L 1117.511719 1068.972656 L 1122.636719 1029.730469 L 1121.046875 990.492188 L 1114.171875 951.214844 L 1115.59375 911.941406 L 1123 874.652344 L 1123 756.894531 L 1122.074219 715.605469 L 1116.417969 676.332031 L 1122.636719 644.199219 L 1121.777344 597.816406 L 1119.066406 559.601562 L 1121.710938 519.269531 L 1122.636719 478.574219 L 1118.667969 441.449219 L 1118.46875 404.324219 L 1119.097656 359.792969 L 1108.320312 318.933594 L 1100.21875 277.941406 L 1083.785156 239.523438 L 1062.824219 203.558594 L 1043.316406 166.398438 L 1013.558594 136.84375 L 986.148438 105.007812 L 975.140625 96.546875 L 940.523438 75.386719 L 903.820312 58.757812 L 868.90625 37.632812 L 828.800781 30.859375 L 789.554688 21.136719 L 749.117188 23.914062 L 709.078125 24.90625 L 669.203125 29.996094 L 629.558594 38.429688 L 591.601562 52.972656 L 559.730469 78.628906 L 523.589844 97.207031 L 504.414062 112.546875 L 474.492188 140.214844 L 450.453125 173.109375 L 427.839844 206.894531 L 408.660156 242.832031 L 397.089844 281.875 L 383.597656 320.320312 L 379.203125 360.816406 L 378.605469 401.382812 L 380.722656 441.183594 L 381.515625 480.988281 L 380.292969 520.789062 L 378.472656 560.59375 L 379.101562 600.394531 L 376.226562 640.199219 L 380.65625 680 L 378.738281 719.707031 L 383.566406 759.507812 L 381.78125 799.277344 L 383.433594 839.082031 L 379.894531 878.882812 L 379.796875 916.074219 L 376.753906 953.695312 L 377.152344 998.226562 L 383.003906 1038.027344 L 378.472656 1077.832031 L 375.101562 1116.3125 L 379.832031 1154.5625 L 375.101562 1194.230469 L 378.410156 1233.902344 L 376.160156 1276.8125 L 378.410156 1312.714844 L 375.101562 1352.652344 L 375.566406 1396.253906 L 376.589844 1419.761719 L 379.597656 1425.246094 L 378.574219 1476.554688 L 415.871094 1482.605469 L 534.898438 1482.605469 L 572.027344 1478.109375 L 612.828125 1475.265625 L 649.828125 1480.984375 L 690.660156 1473.019531 L 728.484375 1477.25 L 767.597656 1482.605469 L 806.714844 1482.605469 L 846.324219 1479.859375 L 885.238281 1475.894531 L 923.792969 1477.546875 L 963.070312 1478.40625 L 1001.988281 1474.4375 L 1040.835938 1477.25 L 1079.851562 1480.554688 L 1122.074219 1478.902344 L 1122.371094 1419.59375 L 1118.898438 1383.03125 Z M 1092.84375 1434.042969 L 1078.957031 1470.605469 L 1040.207031 1457.679688 L 1005.359375 1435.660156 L 971.535156 1450.835938 L 941.25 1469.679688 L 905.078125 1455.660156 L 871.152344 1435.828125 L 841 1449.117188 L 815.476562 1467.792969 L 781.882812 1455.992188 L 752.523438 1436.984375 L 728.683594 1455.332031 L 700.679688 1468.457031 L 670.0625 1449.316406 L 637.328125 1433.082031 L 604.230469 1448.023438 L 574.90625 1472.589844 L 544.75 1452.785156 L 516.382812 1430.207031 L 485.964844 1455.894531 L 454.488281 1471.363281 L 428.167969 1457.082031 L 383.832031 1421.347656 L 399.273438 1390.46875 L 417.886719 1363.824219 L 406.050781 1332.320312 L 397.816406 1299.625 L 406.742188 1262.828125 L 415.074219 1226.496094 L 391.105469 1180.214844 L 401.75 1145.964844 L 420.035156 1111.851562 L 393.816406 1062.855469 L 404.066406 1026.292969 L 413.785156 989.929688 L 394.015625 940.902344 L 402.480469 908.042969 L 418.316406 875.84375 L 386.210938 823.542969 L 414.613281 780.039062 L 405.984375 751.640625 L 398.578125 722.183594 L 412.859375 696.332031 L 419.605469 668.167969 L 407.503906 641.554688 L 390.972656 617.15625 L 409.457031 592.328125 L 425.6875 563.238281 L 409.851562 535.335938 L 395.074219 511.003906 L 418.714844 460.125 L 400.792969 415.859375 L 412.167969 389.976562 L 424.398438 361.710938 L 413.457031 325.972656 L 403.835938 289.046875 L 431.046875 269.144531 L 458.15625 250.46875 L 461.464844 213.34375 L 467.085938 179.027344 L 518.828125 161.738281 L 541.046875 112.578125 L 586.148438 108.445312 L 619.242188 62.992188 L 675.78125 71.320312 L 700.015625 53.4375 L 724.550781 29.566406 L 762.308594 58.890625 L 811.144531 43.355469 L 845.960938 70.859375 L 874.527344 73.734375 L 905.210938 70.792969 L 922.105469 109.339844 L 966.839844 115.324219 L 980.460938 162.332031 L 1010.78125 178.332031 L 1044.703125 187.789062 L 1027.015625 236.550781 L 1054.886719 255.890625 L 1081.667969 269.277344 L 1064.972656 307.59375 L 1104.617188 348.355469 L 1079.816406 398.308594 L 1103.789062 446.273438 L 1076.742188 496.027344 L 1105.011719 548.660156 L 1091.292969 577.453125 L 1078.5625 604.230469 L 1091.65625 631.273438 L 1105.609375 660.792969 L 1080.3125 711.835938 L 1096.546875 735.277344 L 1108.980469 762.417969 L 1081.339844 807.542969 L 1098.136719 835.707031 L 1112.253906 864.371094 L 1082.761719 905.859375 L 1112.648438 957.695312 L 1099.65625 988.011719 L 1080.679688 1016.738281 L 1106.5 1053.898438 L 1087.785156 1105.867188 L 1109.808594 1156.445312 L 1082.496094 1194.132812 L 1099.855469 1223.257812 L 1111.59375 1254.101562 L 1097.804688 1300.449219 L 1079.554688 1343.890625 L 1095.789062 1371.394531 L 1111.425781 1400.683594 L 1113.3125 1398.765625 Z M 1092.84375 1434.042969 " fill-opacity="1" fill-rule="nonzero"/></g></svg>