<svg xmlns="http://www.w3.org/2000/svg" xmlns:xlink="http://www.w3.org/1999/xlink" width="2000" zoomAndPan="magnify" viewBox="0 0 1500 1499.999933" height="2000" preserveAspectRatio="xMidYMid meet" version="1.0"><defs><clipPath id="eec3fea11a"><path d="M 0.00390625 0 L 1494.753906 0 L 1494.753906 1499.996094 L 0.00390625 1499.996094 Z M 0.00390625 0 " clip-rule="nonzero"/></clipPath><clipPath id="df1e64264f"><path d="M 0.00390625 0 L 1494.753906 0 L 1494.753906 1499 L 0.00390625 1499 Z M 0.00390625 0 " clip-rule="nonzero"/></clipPath><clipPath id="082b445b4b"><rect x="0" width="1495" y="0" height="1500"/></clipPath></defs><g clip-path="url(#eec3fea11a)"><g transform="matrix(1, 0, 0, 1, 0, 0.000000000000112861)"><g clip-path="url(#082b445b4b)"><path fill="#dabc22" d="M 31.929688 1461.800781 L 1458.304688 1461.800781 L 1458.304688 35.628906 C 670.519531 35.628906 31.929688 674.128906 31.929688 1461.800781 Z M 31.929688 1461.800781 " fill-opacity="1" fill-rule="nonzero"/><path fill="#658e89" d="M 501.75 613.171875 L 557.726562 573.421875 L 584.945312 553.566406 L 612.164062 532.082031 L 602.425781 517.917969 L 574.597656 538.792969 L 547.566406 560.511719 L 494.570312 605.15625 Z M 570.964844 451.089844 L 588.953125 467.398438 L 599.023438 475.554688 L 608.949219 486.273438 L 601.210938 497.503906 L 588.628906 490.699219 L 578.886719 482.171875 L 558.796875 463.296875 L 540.761719 444.703125 L 526.265625 422.476562 L 532.511719 416.835938 L 532.558594 416.789062 L 552.785156 433.425781 Z M 733.117188 321.347656 L 753.25 341.667969 L 773.664062 360.449219 L 783.59375 368.835938 L 789.1875 373.496094 L 794.035156 380.578125 L 784.992188 391.160156 L 778.046875 387.570312 L 772.359375 383.003906 L 760.707031 372.796875 L 739.640625 353.597656 L 720.066406 333.046875 L 703.890625 308.8125 L 711.957031 303.078125 L 711.957031 303.125 Z M 678.164062 755.355469 L 673.78125 754.050781 L 680.960938 735.128906 L 695.503906 719.75 L 709.8125 704.886719 L 717.457031 697.148438 L 724.398438 690.34375 L 725.097656 689.460938 L 738.054688 689.554688 L 739.5 702.183594 L 724.914062 717.09375 L 709.996094 730.421875 L 695.6875 743.566406 L 687.8125 749.996094 L 684.363281 752.792969 L 681.984375 754.378906 L 679.65625 754.890625 L 681.613281 753.164062 L 681.707031 752.558594 L 681.847656 750.230469 L 679.5625 747.898438 L 678.628906 748.039062 Z M 679.375 754.984375 L 679.65625 754.9375 L 679.609375 754.984375 Z M 898.625 335.234375 L 856.304688 372.332031 L 856.257812 372.285156 L 867.582031 384.726562 L 910.789062 349.730469 L 932.277344 332.113281 L 953.808594 314.265625 L 952.039062 313.472656 L 955.582031 302.335938 L 942.015625 298 L 919.363281 316.828125 Z M 946.769531 316.828125 L 946.910156 316.921875 L 945 317.292969 Z M 933.113281 219.800781 L 944.582031 233.457031 L 950.265625 240.257812 L 956 249.535156 L 945.09375 258.992188 L 931.0625 245.152344 L 919.925781 231.359375 L 909.109375 217.285156 L 903.378906 209.457031 L 899.371094 201.765625 L 907.757812 194.261719 L 907.667969 194.402344 Z M 954.835938 510.460938 L 954.414062 515.074219 L 930.644531 494.753906 L 906.453125 474.761719 L 882.40625 456.027344 L 857.515625 435.246094 L 864.878906 424.710938 L 891.632812 441.257812 L 917.546875 460.640625 L 942.15625 480.167969 L 966.671875 502.070312 L 962.617188 516.707031 Z M 1039.804688 479.050781 L 1055.929688 468.890625 L 1063.714844 463.859375 L 1076.855469 460.875 L 1082.308594 471.40625 L 1065.25 484.875 L 1048.707031 494.335938 L 1033.089844 504.167969 L 1015.660156 514.003906 L 1008.433594 503.9375 L 1008.527344 503.984375 L 1022.976562 490.980469 Z M 1092.097656 132.746094 L 1100.253906 138.851562 L 1113.445312 149.199219 L 1126.074219 159.449219 L 1132.367188 164.578125 L 1135.539062 167.09375 L 1137.121094 168.351562 L 1136.984375 168.585938 L 1141.269531 177.484375 L 1134.746094 184.894531 L 1127.566406 184.289062 L 1122.90625 180.933594 L 1116.007812 175.0625 L 1102.773438 163.597656 L 1089.859375 152.460938 L 1083.476562 146.121094 L 1077.648438 139.179688 L 1076.902344 130.882812 L 1085.105469 129.066406 L 1085.011719 129.160156 Z M 1232.019531 194.125 L 1257.792969 178.09375 L 1282.402344 160.058594 L 1307.523438 139.972656 L 1328.078125 122.308594 L 1328.265625 122.214844 L 1328.21875 122.167969 L 1329.945312 120.679688 L 1325.84375 118.441406 L 1317.59375 105.347656 L 1270.796875 145.332031 L 1247.210938 164.53125 L 1224.652344 184.664062 L 1224.699219 184.710938 Z M 1314.050781 121.5625 L 1313.351562 119.417969 L 1313.957031 119.980469 Z M 1330.96875 308.859375 L 1321.925781 324.609375 L 1294.148438 307.925781 L 1266.882812 290.402344 L 1241.386719 271.949219 L 1218.78125 249.90625 L 1223.164062 243.847656 L 1223.117188 244.359375 L 1249.777344 257.222656 L 1277.042969 274.746094 L 1303.421875 291.847656 Z M 1222.230469 468.890625 L 1232.765625 459.476562 L 1245.488281 450.996094 L 1270.238281 434.636719 L 1293.542969 417.769531 L 1305.707031 408.539062 L 1320.761719 399.6875 L 1328.683594 409.9375 L 1318.058594 422.195312 L 1305.613281 431.003906 L 1280.679688 448.664062 L 1255.601562 464.511719 L 1241.945312 471.453125 L 1227.171875 477.28125 Z M 1365.179688 346.699219 L 1382.425781 331.925781 L 1401.628906 318.503906 L 1441.199219 295.578125 L 1463.152344 290.824219 L 1465.296875 298.980469 L 1456.019531 307.414062 L 1416.21875 330.480469 L 1394.730469 343.34375 L 1370.773438 355.507812 L 1364.992188 346.558594 Z M 1421.996094 431.75 L 1401.023438 418.046875 L 1380.609375 405.046875 L 1361.496094 389.714844 L 1363.921875 383.421875 L 1363.875 383.234375 L 1387.460938 389.621094 L 1409.738281 402.714844 L 1430.617188 416.371094 L 1441.011719 423.3125 L 1450.941406 434.359375 L 1443.761719 444.285156 L 1431.597656 438.597656 Z M 1368.070312 622.539062 L 1368.023438 622.445312 L 1427.171875 585.445312 L 1440.035156 588.332031 L 1436.910156 601.195312 L 1377.671875 638.804688 L 1364.902344 635.261719 Z M 1402.886719 125.339844 L 1384.101562 112.429688 L 1367.183594 97.375 L 1372.871094 88.800781 L 1372.871094 88.988281 L 1393.191406 98.121094 L 1412.394531 110.613281 L 1431.363281 123.894531 L 1449.121094 138.246094 L 1450.660156 149.898438 L 1439.242188 152.742188 L 1420.550781 138.898438 Z M 142.859375 1161.820312 L 117.925781 1180.042969 L 94.152344 1198.359375 L 81.800781 1208.378906 L 66.886719 1217.558594 L 59.195312 1209.636719 L 69.21875 1197.566406 L 81.101562 1186.988281 L 105.664062 1166.761719 L 130.183594 1147.886719 L 143.277344 1138.847656 L 160.105469 1132.695312 L 165.605469 1140.710938 L 155.675781 1153.574219 Z M 120.628906 1336.859375 L 151.390625 1358.949219 L 175.253906 1385.375 L 168.449219 1391.757812 L 153.394531 1384.070312 L 139.550781 1373.117188 L 108.414062 1351.449219 L 77.605469 1329.871094 L 46.984375 1304.984375 L 53.511719 1294.5 L 53.558594 1294.40625 L 87.488281 1314.398438 Z M 312.144531 1292.636719 L 326.546875 1279.632812 L 342.347656 1266.351562 L 349.570312 1277.164062 L 354 1279.308594 L 352.132812 1281.03125 L 352.367188 1281.355469 L 351.296875 1281.824219 L 339.457031 1292.773438 L 324.820312 1305.542969 L 296.25 1331.875 L 238.59375 1383.789062 L 229.738281 1373.816406 L 230.019531 1374.097656 L 284.132812 1318.125 Z M 332.652344 1222.5 L 332.792969 1226.507812 L 332.417969 1225.992188 L 334.46875 1229.628906 L 332.652344 1227.390625 L 332.882812 1227.113281 L 326.964844 1222.730469 L 313.820312 1212.757812 L 286.695312 1192.347656 L 260.128906 1172.726562 L 236.078125 1149.566406 L 242.835938 1141.316406 L 242.835938 1141.410156 L 276.628906 1161.636719 L 308.601562 1185.496094 L 339.921875 1208.609375 L 349.664062 1223.523438 L 336.847656 1232.097656 L 332.746094 1223.199219 Z M 239.292969 1051.421875 L 239.339844 1051.328125 L 238.828125 1051.09375 L 239.246094 1044.804688 L 266 1020.011719 L 296.484375 996.847656 L 357.773438 952.625 L 367.609375 968.050781 L 337.730469 989.953125 L 307.667969 1011.574219 L 278.863281 1033.058594 L 247.355469 1054.03125 L 241.019531 1053.378906 Z M 140.34375 1036.507812 L 128.832031 1023.273438 L 122.957031 1016.144531 L 118.0625 1005.003906 L 125.847656 998.15625 L 140.808594 1011.484375 L 152.695312 1024.996094 L 177.117188 1050.722656 L 177.070312 1060.882812 L 167.003906 1062.324219 L 167.097656 1062.234375 Z M 523.328125 1395.019531 L 511.398438 1404.574219 L 487.8125 1424.054688 L 464.929688 1443.066406 L 439.945312 1461.476562 L 434.121094 1454.859375 L 434.210938 1454.90625 L 453.789062 1431.648438 L 476.441406 1410.957031 L 498.90625 1391.386719 L 510.976562 1381.972656 L 525.191406 1372.835938 L 534.375 1383.554688 Z M 492.847656 1341.007812 L 463.761719 1317.007812 L 436.125 1293.007812 L 409.601562 1265.140625 L 416.175781 1257.777344 L 416.082031 1257.917969 L 444.699219 1278.699219 L 472.152344 1301.257812 L 498.859375 1323.113281 L 513.402344 1334.25 L 520.019531 1339.796875 L 523.28125 1342.59375 L 525.285156 1343.476562 L 524.214844 1344.597656 L 519.785156 1347.160156 L 531.113281 1347.160156 L 532.882812 1355.128906 L 532.558594 1356.015625 L 523.375 1361.234375 L 508.085938 1352.890625 Z M 515.5 1022.992188 L 487.019531 1004.027344 L 460.40625 984.128906 L 435.890625 961.386719 L 443.582031 952.855469 L 443.488281 953.277344 L 457.003906 961.058594 L 471.125 970.660156 L 498.394531 989.578125 L 525.054688 1007.566406 L 539.734375 1016.328125 L 553.859375 1026.347656 L 543.976562 1040.65625 L 528.875 1031.894531 Z M 438.175781 908.769531 L 487.90625 869.34375 L 514.332031 853.5 L 527.429688 845.484375 L 534.28125 841.617188 L 542.625 841.289062 L 547.285156 850.703125 L 543.089844 856.949219 L 536.101562 861.003906 L 522.769531 868.878906 L 495.550781 885.328125 L 441.625 914.039062 L 437.988281 908.585938 Z M 637.707031 1459.796875 L 626.101562 1450.199219 L 601.539062 1429.597656 L 577.859375 1409.46875 L 566.722656 1399.355469 L 555.347656 1386.910156 L 561.316406 1378.058594 L 561.5 1377.589844 L 575.203125 1385.28125 L 587.929688 1395.066406 L 613.097656 1414.871094 L 636.773438 1434.957031 L 649.3125 1444.929688 L 661.429688 1457.699219 L 650.898438 1469.117188 Z M 1065.949219 642.390625 L 1008.855469 609.398438 L 1013.886719 599.097656 L 1013.839844 599.191406 L 1074.105469 628.226562 L 1103.144531 644.117188 L 1130.96875 662.757812 L 1124.304688 672.355469 L 1094.847656 658.328125 Z M 339.875 697.800781 L 319.648438 715.605469 L 277.886719 749.808594 L 269.171875 740.441406 L 308.648438 703.675781 L 327.992188 686.011719 L 349.335938 667.417969 L 360.289062 679.394531 Z M 278.910156 822.136719 L 303.566406 842.457031 L 326.917969 863.007812 L 338.382812 872.839844 L 348.917969 885.65625 L 343.277344 892.601562 L 330.273438 886.355469 L 318.855469 876.523438 L 295.222656 856.296875 L 272.804688 835.976562 L 259.476562 823.023438 L 249.128906 811.1875 L 253.835938 805.082031 L 254.070312 804.613281 L 266.886719 812.957031 Z M 649.3125 683.542969 L 653.554688 675.480469 L 651.222656 679.628906 L 653.925781 674.082031 L 654.160156 674.316406 L 654.253906 674.128906 L 654.160156 674.316406 L 654.207031 674.359375 L 653.554688 675.480469 L 649.265625 683.636719 Z M 637.519531 693.933594 L 628.011719 698.222656 L 612.074219 700.085938 L 612.074219 700.226562 L 600.792969 697.664062 L 596.132812 694.867188 L 587.417969 688.855469 L 580.9375 680.558594 L 575.019531 665.785156 L 574.832031 665.273438 L 574.738281 662.804688 L 574.738281 662.570312 L 574.503906 654.136719 L 574.644531 653.808594 L 574.832031 652.132812 L 574.878906 661.453125 L 577.347656 640.621094 L 582.429688 631.019531 L 599.300781 618.019531 L 615.289062 614.894531 L 631.742188 617.414062 L 645.070312 626.3125 L 654.71875 639.082031 L 658.027344 660.800781 L 650.011719 682.097656 L 649.125 683.636719 Z M 649.3125 683.589844 L 649.917969 682.003906 L 651.269531 679.628906 Z M 662.550781 380.066406 L 662.269531 380.207031 L 662.644531 380.300781 L 665.578125 400.570312 L 658.496094 419.726562 L 622.792969 435.523438 L 591.191406 412.6875 L 587.695312 392.464844 L 595.292969 373.402344 L 595.527344 373.261719 L 610.8125 360.867188 L 630.855469 357.464844 L 649.871094 364.828125 Z M 807.363281 297.765625 L 810.625 300.003906 L 813.050781 302.894531 Z M 806.476562 296.929688 L 807.363281 297.765625 L 806.757812 297.347656 Z M 864.320312 234.433594 L 878.675781 250.886719 L 881.984375 261.558594 L 880.121094 284.34375 L 871.453125 298.464844 L 858.261719 308.207031 L 841.949219 312.261719 L 824.980469 309.742188 L 810.71875 300.003906 L 800 287.28125 L 796.269531 271.109375 L 798.507812 254.332031 L 803.589844 244.59375 L 819.902344 230.566406 L 853.925781 228.933594 Z M 814.121094 304.152344 L 813.050781 302.894531 L 814.589844 304.292969 Z M 1031.644531 392.554688 L 1031.554688 390.273438 L 1031.601562 390.367188 L 1031.738281 393.117188 L 1032.066406 395.027344 L 1031.878906 396.097656 L 1032.160156 400.710938 L 1031.601562 402.34375 L 1032.113281 400.339844 L 1031.878906 400.570312 L 1031.738281 396.890625 L 1030.246094 406.304688 L 1027.5 414.367188 L 1026.660156 415.996094 L 1021.71875 423.265625 L 1014.121094 429.511719 L 1000.277344 435.058594 L 989.929688 435.335938 L 979.863281 432.914062 L 967.558594 424.617188 L 961.40625 417.070312 L 957.023438 408.214844 L 955.488281 393.070312 L 957.722656 382.957031 L 962.664062 374.289062 L 969.421875 367.113281 L 982.519531 360.492188 L 997.574219 358.445312 L 1007.734375 360.820312 L 1016.453125 365.667969 L 1023.535156 372.378906 L 1030.292969 385.238281 Z M 1027.5 414.414062 L 1029.640625 410.359375 L 1029.640625 410.40625 L 1030.0625 410.265625 L 1025.121094 418.980469 L 1026.660156 416.089844 L 1027.265625 415.207031 Z M 1030.246094 406.304688 L 1031.601562 402.390625 L 1029.6875 410.078125 L 1029.640625 410.078125 Z M 1029.734375 410.078125 L 1029.59375 410.3125 L 1029.640625 410.03125 Z M 1048.378906 166.628906 L 1054.53125 175.109375 L 1058.726562 196.21875 L 1058.398438 196.21875 L 1054.113281 211.738281 L 1044.695312 224.273438 L 1030.992188 231.777344 L 1015.054688 234.386719 L 1004.332031 232.105469 L 986.902344 220.546875 L 981.167969 211.785156 L 976.695312 190.816406 L 981.542969 175.34375 L 990.675781 162.621094 L 1004.566406 155.304688 L 1020.507812 152.507812 L 1031.179688 155.070312 Z M 237.476562 968.5625 L 228.898438 974.292969 L 219.066406 977.742188 L 208.34375 978.816406 L 193.058594 974.621094 L 184.339844 969.167969 L 174.507812 957.332031 L 172.78125 952.296875 L 171.246094 947.3125 L 170.964844 947.125 L 170.3125 936.5 L 172.175781 926.105469 L 182.898438 909.097656 L 191.800781 902.992188 L 201.585938 899.402344 L 212.355469 898.519531 L 227.78125 902.480469 L 236.171875 908.445312 L 242.976562 915.996094 L 247.730469 925.035156 L 250.199219 935.242188 L 248.847656 951.273438 L 244.1875 960.59375 Z M 231.230469 1260.339844 L 224.378906 1279.398438 L 209.695312 1292.449219 L 200.140625 1295.617188 L 179.539062 1294.265625 L 167.050781 1286.15625 L 157.679688 1274.785156 L 153.671875 1254.886719 L 160.570312 1235.828125 L 167.28125 1227.71875 L 175.484375 1222.21875 L 195.339844 1218.304688 L 213.984375 1224.828125 L 214.03125 1224.734375 L 221.863281 1231.539062 L 227.269531 1239.789062 L 231.042969 1259.59375 Z M 334.28125 1369.34375 L 338.992188 1354.710938 L 348.125 1342.917969 L 361.457031 1336.207031 L 376.695312 1334.34375 L 386.90625 1336.582031 L 403.078125 1348.230469 L 408.53125 1356.621094 L 411.746094 1376.753906 L 411.652344 1376.753906 L 407.226562 1391.480469 L 397.902344 1403.175781 L 384.527344 1409.839844 L 369.285156 1411.890625 L 359.125 1409.328125 L 343.046875 1397.722656 L 337.59375 1389.382812 Z M 771.894531 858.113281 L 762.339844 845.765625 L 759.261719 835.605469 L 761.128906 813.980469 L 766.347656 804.800781 L 782.101562 791.519531 L 792.355469 788.070312 L 813.890625 790.027344 L 814.589844 790.355469 L 827.5 798.554688 L 836.679688 810.625 L 840.222656 820.367188 L 838.3125 841.617188 L 837.984375 841.523438 L 838.078125 842.410156 L 826.007812 859.464844 L 816.917969 865.199219 L 801.351562 868.460938 L 785.222656 866.503906 Z M 1320.949219 544.945312 L 1311.765625 533.527344 L 1307.570312 513.816406 L 1307.992188 512.417969 L 1312.046875 497.878906 L 1320.714844 486.085938 L 1328.730469 480.402344 L 1343.320312 476.71875 L 1353.480469 477.511719 L 1367.511719 482.777344 L 1374.734375 489.394531 L 1383.542969 506.777344 L 1383.683594 506.730469 L 1383.824219 508.597656 L 1382.613281 529.007812 L 1378.324219 538.050781 L 1363.410156 550.769531 L 1348.820312 554.6875 L 1333.53125 552.730469 Z M 1310.367188 251.628906 L 1304.960938 243.382812 L 1300.535156 223.761719 L 1304.496094 209.035156 L 1313.023438 196.964844 L 1325.890625 189.742188 L 1340.898438 186.992188 L 1351.011719 189.136719 L 1367.511719 199.714844 L 1373.148438 207.777344 L 1377.53125 227.445312 L 1373.429688 242.078125 L 1364.945312 254.148438 L 1352.222656 261.605469 L 1337.214844 263.933594 L 1327.054688 262.164062 Z M 1236.957031 100.125 L 1232.203125 115.273438 L 1222.929688 127.527344 L 1209.414062 134.84375 L 1193.707031 137.128906 L 1183.125 134.984375 L 1166.347656 123.195312 L 1160.332031 114.804688 L 1156.746094 94.066406 L 1161.359375 78.921875 L 1170.542969 66.621094 L 1184.011719 59.164062 L 1199.765625 56.925781 L 1210.34375 59.164062 L 1227.265625 70.90625 L 1232.949219 79.480469 L 1237.050781 100.171875 Z M 479.097656 493.265625 L 484.644531 501.28125 L 488.09375 520.945312 L 483.476562 535.253906 L 474.484375 546.671875 L 461.617188 553.429688 L 446.75 555.476562 L 436.730469 553.382812 L 420.882812 542.011719 L 415.800781 533.714844 L 411.933594 514.1875 L 416.828125 499.976562 L 425.589844 488.417969 L 438.5 481.753906 L 453.367188 479.515625 L 463.34375 481.707031 Z M 479.097656 493.265625 " fill-opacity="1" fill-rule="nonzero"/><path fill="#ea9421" d="M 1371.9375 1462.175781 L 1285.570312 1460.496094 L 1199.253906 1460.542969 L 1112.933594 1463.945312 L 1026.613281 1458.632812 L 940.292969 1463.386719 L 854.160156 1459.890625 L 771.335938 1433.5625 L 692.472656 1395.535156 L 608.761719 1370.089844 L 552.832031 1348.046875 L 534.328125 1338.210938 L 451.179688 1307.453125 L 369.566406 1272.644531 L 308.742188 1230.746094 L 270.800781 1124.914062 L 320.113281 1019.21875 L 355.628906 1004.445312 L 386.296875 1002.675781 L 472.523438 1025.511719 L 558.191406 1049.976562 L 562.199219 1047.320312 L 644.324219 1076.726562 L 723.839844 1098.957031 L 713.121094 1090.660156 L 651.96875 1039.539062 L 589.140625 990.605469 L 525.566406 942.699219 L 463.296875 892.925781 L 401.027344 843.339844 L 343.976562 789.46875 L 321.746094 715.929688 L 344.023438 656.839844 L 397.71875 620.863281 L 462.363281 618.578125 L 524.402344 636.660156 L 579.445312 671.050781 L 630.4375 711.316406 L 692.378906 763.605469 L 756.1875 813.703125 L 821.394531 861.980469 L 885.339844 912.035156 L 913.027344 929.695312 L 912.652344 929.136719 L 870.9375 863.425781 L 824.003906 801.121094 L 827.683594 798.695312 L 818.175781 785.695312 L 766.765625 709.035156 L 719.039062 630.089844 L 665.578125 535.671875 L 637.382812 442.46875 L 699.136719 399.265625 L 794.21875 392.882812 L 851.316406 430.722656 L 898.625 480.074219 L 937.589844 533.390625 L 948.914062 540.796875 L 1002.703125 608 L 1053.738281 677.4375 L 1109.390625 743.144531 L 1160.753906 807.921875 L 1145.277344 739.976562 L 1132.601562 668.441406 L 1105.523438 593.367188 L 1082.960938 516.890625 L 1059.332031 440.835938 L 1040.222656 363.617188 L 1031.273438 284.765625 L 1030.945312 239.699219 L 1112.792969 187.597656 L 1205.730469 199.25 L 1270.332031 268.222656 L 1296.664062 356.441406 L 1321.507812 437.808594 L 1348.539062 518.476562 L 1376.320312 598.957031 L 1400.136719 680.652344 L 1427.542969 761.226562 L 1454.621094 840.917969 L 1454.902344 929.324219 L 1456.625 1018.101562 L 1454.574219 1106.878906 L 1459.375 1195.609375 L 1458.070312 1284.339844 L 1461.566406 1373.070312 L 1460.632812 1464.085938 Z M 727.101562 1103.429688 L 731.71875 1105.105469 L 727.617188 1101.9375 Z M 727.101562 1103.429688 " fill-opacity="1" fill-rule="nonzero"/><path fill="#eadcbb" d="M 1263.480469 1454.90625 L 1457.1875 1455.464844 L 1458.445312 1261.738281 L 1456.535156 1067.824219 L 1457.511719 873.914062 L 1277.320312 901.5 L 1115.636719 985.339844 L 986.902344 1113.914062 L 904.402344 1276.042969 L 875.179688 1456.957031 L 1069.539062 1454.066406 Z M 1263.480469 1454.90625 " fill-opacity="1" fill-rule="nonzero"/><path fill="#5e3023" d="M 370.171875 998.386719 L 340.15625 995.542969 L 305.617188 1012.089844 L 279.097656 1042.054688 L 260.828125 1077.65625 L 251.832031 1116.570312 L 257.425781 1155.671875 L 265.953125 1194.398438 L 292.054688 1224.269531 L 322.492188 1245.101562 L 353.8125 1265.839844 L 387.789062 1276.742188 L 420.460938 1290.492188 L 452.4375 1306.058594 L 485.667969 1318.453125 L 518.574219 1331.6875 L 538.804688 1336.953125 L 566.769531 1348.09375 L 594.546875 1359.324219 L 632.207031 1352.101562 L 668.933594 1340.820312 L 704.777344 1319.199219 L 717.035156 1283.6875 L 703.796875 1263.882812 L 666.835938 1247.199219 L 626.894531 1241.09375 L 586.671875 1243.191406 L 544.441406 1245.289062 L 502.867188 1237.597656 L 471.824219 1209.960938 L 468.75 1168.71875 L 506.457031 1144.347656 L 543.976562 1119.273438 L 562.0625 1081.015625 L 546.167969 1041.121094 L 543.183594 1041.402344 L 509.671875 1028.773438 L 474.4375 1022.714844 L 440.085938 1013.253906 L 404.800781 1007.613281 Z M 824.328125 409.890625 L 850.710938 431.375 L 876.765625 453.699219 L 896.292969 481.988281 L 917.96875 506.824219 L 941.925781 531.058594 L 929.199219 541.730469 L 901.421875 561.164062 L 868.609375 570.902344 L 844.746094 595.042969 L 843.253906 627.757812 L 865.34375 645.652344 L 904.355469 663.78125 L 941.179688 685.824219 L 963.085938 722.5 L 956.417969 764.535156 L 933.765625 777.910156 L 894.382812 786.53125 L 853.460938 787.792969 L 817.199219 786.953125 L 797.53125 755.167969 L 777.394531 724.226562 L 760.007812 691.605469 L 740.621094 660.195312 L 718.015625 630.789062 L 702.867188 597.652344 L 682.871094 567.546875 L 661.105469 538.515625 L 648.941406 507.199219 L 635.003906 476.765625 L 638.265625 442.980469 L 663.25 413.339844 L 698.4375 397.542969 L 730.179688 392.929688 L 761.828125 391.390625 L 792.496094 398.148438 Z M 1199.113281 1455.183594 L 1170.960938 1456.675781 L 1142.808594 1454.996094 L 1114.65625 1455.464844 L 1086.503906 1455.511719 L 1058.351562 1456.304688 L 1030.203125 1454.300781 L 1002.003906 1456.535156 L 973.851562 1455.277344 L 973.710938 1427.457031 L 977.625 1399.867188 L 980.65625 1372.1875 L 986.996094 1345.0625 L 992.449219 1317.660156 L 1002.890625 1291.796875 L 1012.398438 1265.605469 L 1024.792969 1240.671875 L 1037.238281 1215.742188 L 1051.59375 1191.835938 L 1069.304688 1170.257812 L 1086.367188 1148.355469 L 1104.683594 1127.476562 L 1124.398438 1107.855469 L 1143.835938 1087.816406 L 1167.183594 1072.4375 L 1189.835938 1056.359375 L 1213.328125 1041.542969 L 1237.332031 1027.46875 L 1262.921875 1016.515625 L 1288.183594 1004.726562 L 1314.65625 995.964844 L 1341.78125 989.488281 L 1369.234375 984.828125 L 1396.59375 979.652344 L 1424.421875 978.535156 L 1452.523438 976.8125 L 1451.546875 1005.050781 L 1452.570312 1033.199219 L 1451.546875 1061.347656 L 1451.78125 1089.496094 L 1452.246094 1117.644531 L 1452.011719 1145.789062 L 1452.105469 1173.9375 L 1452.199219 1202.039062 L 1453.085938 1230.1875 L 1451.265625 1258.335938 L 1453.269531 1286.484375 L 1452.945312 1314.632812 L 1452.757812 1342.78125 L 1453.085938 1370.925781 L 1452.105469 1399.074219 L 1453.597656 1427.269531 L 1453.085938 1456.304688 L 1424.09375 1454.019531 L 1395.941406 1454.066406 L 1367.789062 1455.511719 L 1339.636719 1455.929688 L 1311.488281 1454.4375 L 1283.335938 1455.652344 L 1255.183594 1455.417969 L 1227.078125 1456.304688 Z M 367.003906 730.9375 L 374.832031 746.222656 L 398.929688 770.734375 L 469.308594 824.933594 L 541.597656 880.902344 L 613.378906 937.476562 L 652.714844 968.421875 L 673.316406 983.613281 L 690.28125 1002.117188 L 684.550781 1010.085938 L 665.484375 999.460938 L 646.238281 984.359375 L 608.15625 955.511719 L 535.214844 897.492188 L 461.292969 837.097656 L 391.007812 781.171875 L 362.855469 751.253906 L 355.441406 714.90625 L 363.785156 714.8125 L 362.714844 715.042969 Z M 919.644531 1125.378906 L 871.496094 1083.34375 L 822.09375 1042.800781 L 772.359375 1002.953125 L 723.28125 962.316406 L 625.914062 885.75 L 532.371094 823.90625 L 448.289062 744.171875 L 455.699219 738.394531 L 456.398438 737.925781 L 535.027344 803.960938 L 629.644531 863.472656 L 695.503906 914.363281 L 761.3125 965.207031 L 825.308594 1018.332031 L 878.769531 1064.46875 L 933.347656 1111.351562 Z M 870.425781 1160.378906 L 852.15625 1145.929688 L 834.023438 1131.671875 L 797.761719 1103.101562 L 729.339844 1043.078125 L 734.234375 1036.882812 L 809.695312 1089.914062 L 845.957031 1118.25 L 882.359375 1147.839844 Z M 483.429688 672.683594 L 538.152344 698.082031 L 589.234375 736.25 L 637.148438 778.65625 L 706.128906 834.441406 L 775.667969 889.476562 L 844.652344 945.214844 L 903.890625 989.160156 L 933.628906 1012.789062 L 962.945312 1036.367188 L 954.789062 1046.433594 L 926.871094 1030.871094 L 900.628906 1011.761719 L 849.359375 970.101562 L 797.949219 930.582031 L 745.792969 891.996094 L 696.15625 849.398438 L 645.304688 808.25 L 598.414062 765.933594 L 549.894531 725.4375 L 491.121094 691.136719 L 459.988281 681.585938 L 426.195312 677.714844 L 425.03125 670.308594 L 425.21875 670.539062 Z M 866.183594 1199.988281 L 886.367188 1212.945312 L 907.527344 1225.339844 L 902.585938 1239.230469 L 857.792969 1215.460938 L 816.59375 1186.847656 L 776.460938 1156.789062 L 739.40625 1122.488281 L 744.488281 1115.640625 L 744.300781 1116.105469 L 785.738281 1142.15625 L 826.242188 1171.65625 Z M 871.964844 1285.691406 L 865.160156 1303.355469 L 800.839844 1276.371094 L 735.167969 1252.835938 L 669.679688 1228.648438 L 604.195312 1209.449219 L 537.917969 1179.484375 L 541.738281 1172.402344 L 541.878906 1172.121094 L 603.824219 1193.09375 L 668.328125 1210.476562 L 734.140625 1231.867188 L 798.460938 1257.355469 Z M 670.425781 1145.746094 L 710.929688 1158.605469 L 731.625 1165.503906 L 751.339844 1175.152344 L 747.425781 1186.476562 L 726.730469 1182.652344 L 705.894531 1176.128906 L 664.785156 1161.496094 L 624.890625 1146.863281 L 586.066406 1127.710938 L 587.371094 1123.839844 L 587.371094 1124.074219 L 628.945312 1132.324219 Z M 715.03125 1336.300781 L 714.890625 1336.953125 L 777.535156 1351.914062 L 808.296875 1360.8125 L 823.539062 1365.660156 L 838.964844 1371.8125 L 835.980469 1384.488281 L 820.878906 1381.644531 L 805.546875 1376.847656 L 773.898438 1366.734375 L 712.886719 1344.085938 Z M 982.613281 1038.976562 L 953.296875 999.972656 L 924.351562 960.640625 L 910.507812 939.855469 L 901.699219 920.140625 L 906.316406 916.414062 L 906.40625 916.042969 L 921.277344 928.902344 L 934.933594 947.078125 L 963.039062 984.265625 L 990.445312 1020.570312 L 1004.148438 1038.746094 L 1017.289062 1054.078125 L 1015.148438 1069.222656 L 997.902344 1058.878906 Z M 1029.222656 987.761719 L 1019.15625 977.601562 L 1009.695312 966.09375 L 993.242188 944.050781 L 957.769531 897.585938 L 923.605469 851.589844 L 893.078125 803.03125 L 898.765625 798.601562 L 898.902344 798.417969 L 935.492188 841.058594 L 971.894531 886.867188 L 1006.152344 932.910156 L 1024.050781 955.328125 L 1032.671875 966.046875 L 1039.570312 979.746094 Z M 1150.640625 907.699219 L 1137.402344 890.644531 L 1112.234375 856.949219 L 1062.269531 792.03125 L 1010.859375 726.976562 L 956.511719 664.292969 L 894.054688 593.273438 L 900.582031 585.863281 L 961.359375 643.277344 L 1017.988281 705.632812 L 1071.03125 769.476562 L 1121.742188 835.1875 L 1149.800781 873.398438 L 1162.992188 893.113281 L 1175.25 913.429688 L 1164.34375 922.378906 L 1155.625 916.042969 Z M 1037.425781 871.628906 L 980.144531 795.808594 L 986.855469 790.402344 L 986.714844 790.539062 L 1015.847656 820.132812 L 1043.34375 854.011719 L 1098.855469 918.324219 L 1113.679688 933.515625 L 1121.414062 950.527344 L 1092.609375 936.125 Z M 1236.214844 897.679688 L 1212.347656 871.117188 L 1189.042969 845.253906 L 1177.578125 832.109375 L 1169.933594 817.058594 L 1174.035156 813.144531 L 1174.035156 813.28125 L 1186.761719 821.019531 L 1198.085938 831.691406 L 1220.878906 855.457031 L 1242.457031 879.132812 L 1253.226562 890.363281 L 1264.363281 903.457031 L 1260.917969 914.921875 L 1248.003906 910.449219 Z M 1108.316406 289.003906 L 1113.726562 315.289062 L 1124.164062 365.945312 L 1150.265625 467.632812 L 1169.980469 536.789062 L 1188.53125 606.226562 L 1207.410156 675.621094 L 1222.183594 734.058594 L 1228.382812 762.347656 L 1235.09375 792.917969 L 1227.683594 794.640625 L 1229.175781 794.222656 L 1209.972656 741.792969 L 1194.964844 690.671875 L 1165.832031 588.238281 L 1146.675781 519.59375 L 1127.335938 450.996094 L 1108.644531 382.210938 L 1095.828125 325.261719 L 1091.121094 295.0625 L 1090.1875 280.570312 L 1088.789062 264.867188 L 1100.535156 263.515625 L 1105.476562 275.910156 Z M 1327.707031 822.277344 L 1331.667969 838.167969 L 1340.246094 830.851562 L 1338.753906 816.125 L 1332.695312 800.980469 L 1322.90625 768.636719 L 1301.140625 707.167969 L 1276.484375 632.652344 L 1249.355469 558.972656 L 1223.816406 484.734375 L 1184.757812 373.960938 L 1164.296875 318.039062 L 1141.269531 264.261719 L 1141.550781 264.027344 L 1135.585938 266.03125 L 1153.433594 329.828125 L 1172.636719 391.996094 L 1198.832031 465.394531 L 1222.742188 539.585938 L 1249.730469 612.753906 L 1286.085938 723.246094 L 1305.707031 778.050781 L 1313.023438 806.292969 L 1321.179688 829.546875 L 1321.414062 824.46875 L 1323.046875 825.910156 Z M 1334.417969 831.316406 L 1334 823.394531 L 1335.164062 823.628906 Z M 1350.171875 691.695312 L 1315.773438 594.4375 L 1281.84375 502.117188 L 1251.082031 408.679688 L 1220.085938 323.351562 L 1225.261719 317.851562 L 1225.398438 317.667969 L 1250.988281 348.65625 L 1265.390625 386.730469 L 1277.972656 429.371094 L 1293.449219 475.835938 L 1328.636719 574.121094 L 1363.875 672.402344 L 1403.773438 784.203125 L 1397.058594 797.34375 L 1383.917969 789.234375 Z M 1350.171875 691.695312 " fill-opacity="1" fill-rule="nonzero"/><g clip-path="url(#df1e64264f)"><path fill="#658e89" d="M 662.175781 1498.945312 L 579.304688 1495.636719 L 496.433594 1494.984375 L 413.566406 1490.042969 L 330.695312 1494.050781 L 247.824219 1490.089844 L 164.953125 1491.953125 L 82.082031 1490.367188 L 0.00390625 1492.605469 L 3.03125 1461.847656 L 3.824219 1380.15625 L 10.722656 1298.691406 L 20.929688 1217.605469 L 38.875 1137.867188 L 55 1057.574219 L 79.332031 979.375 L 111.351562 904.019531 L 139.738281 826.984375 L 180.519531 755.777344 L 220.230469 684.054688 L 267.210938 616.898438 L 319.226562 553.660156 L 368.355469 487.953125 L 429.644531 433.285156 L 485.808594 373.683594 L 550.175781 323.070312 L 611.328125 268.175781 L 681.332031 225.347656 L 752.320312 184.523438 L 825.496094 147.941406 L 899.742188 113.546875 L 977.300781 87.496094 L 1054.4375 60.328125 L 1133.019531 36.980469 L 1213.980469 24.210938 L 1295.359375 15.960938 L 1376.226562 0.863281 L 1458.304688 2.632812 L 1493.121094 2.167969 L 1488.132812 85.914062 L 1487.25 168.816406 L 1492.796875 251.675781 L 1489.625 334.535156 L 1490.511719 417.394531 L 1494.378906 500.253906 L 1494.847656 583.113281 L 1489.765625 665.972656 L 1486.96875 748.832031 L 1491.816406 831.691406 L 1493.027344 914.550781 L 1492.003906 997.410156 L 1492.328125 1080.269531 L 1488.695312 1163.125 L 1492.84375 1245.984375 L 1487.761719 1328.84375 L 1487.527344 1411.703125 L 1493.960938 1497.640625 L 1407.921875 1496.378906 L 1325.050781 1491.953125 L 1242.179688 1494.050781 L 1159.308594 1490.367188 L 1076.4375 1493.210938 L 993.566406 1491.582031 L 910.695312 1494.375 L 827.824219 1493.023438 L 744.953125 1498.339844 Z M 1170.542969 1428.808594 L 1255.601562 1426.851562 L 1340.664062 1432.023438 L 1428.335938 1431.835938 L 1423.859375 1344.175781 L 1427.03125 1259.128906 L 1426.144531 1174.078125 L 1422.277344 1089.027344 L 1421.808594 1004.027344 L 1426.890625 918.976562 L 1429.6875 833.925781 L 1424.839844 748.878906 L 1423.628906 663.875 L 1424.652344 578.824219 L 1424.328125 493.824219 L 1427.960938 408.820312 L 1423.8125 323.816406 L 1428.894531 238.769531 L 1429.128906 153.71875 L 1421.671875 70.066406 L 1341.363281 77.664062 L 1256.765625 84 L 1173.058594 98.167969 L 1089.207031 113.316406 L 1009.039062 142.160156 L 927.988281 168.398438 L 851.035156 204.886719 L 774.878906 242.960938 L 703.097656 288.773438 L 632.019531 335.609375 L 565.882812 389.246094 L 501.980469 445.449219 L 442.601562 506.359375 L 384.527344 568.574219 L 335.496094 638.152344 L 287.671875 708.289062 L 241.113281 779.402344 L 206.714844 857.183594 L 168.914062 933.191406 L 141.273438 1013.441406 L 114.847656 1094.0625 L 91.683594 1175.894531 L 81.800781 1260.386719 L 65.253906 1344.039062 L 65.117188 1428.808594 L 150.085938 1431.789062 L 235.144531 1424.847656 L 320.207031 1428.292969 L 405.269531 1429.320312 L 490.28125 1430.484375 L 575.34375 1429.414062 L 660.40625 1432.722656 L 745.46875 1430.160156 L 830.480469 1427.035156 L 915.542969 1430.160156 L 1000.558594 1433.234375 L 1085.574219 1424.847656 Z M 1170.542969 1428.808594 " fill-opacity="1" fill-rule="nonzero"/></g></g></g></g></svg>