<svg xmlns="http://www.w3.org/2000/svg" xmlns:xlink="http://www.w3.org/1999/xlink" width="2000" zoomAndPan="magnify" viewBox="0 0 1500 1499.999933" height="2000" preserveAspectRatio="xMidYMid meet" version="1.0"><defs><filter x="0%" y="0%" width="100%" height="100%" id="d718f1ead7"><feColorMatrix values="0 0 0 0 1 0 0 0 0 1 0 0 0 0 1 0 0 0 1 0" color-interpolation-filters="sRGB"/></filter><clipPath id="dd025b4ca4"><rect x="0" width="1500" y="0" height="1500"/></clipPath><mask id="3b43341e30"><g filter="url(#d718f1ead7)"><rect x="-150" width="1800" fill="#000000" y="-149.999993" height="1799.99992" fill-opacity="0.44"/></g></mask><clipPath id="786a849814"><path d="M 31 19.003906 L 596 19.003906 L 596 24.253906 L 31 24.253906 Z M 31 19.003906 " clip-rule="nonzero"/></clipPath><clipPath id="fad59d0283"><rect x="0" width="627" y="0" height="335"/></clipPath></defs><g transform="matrix(1, 0, 0, 1, 0, 0.000000000000112861)"><g clip-path="url(#dd025b4ca4)"><path fill="#86270d" d="M 187.5 187.5 L 187.5 93.75 C 187.5 42.039062 145.460938 0 93.75 0 C 42.039062 0 0 42.039062 0 93.75 C 0 145.460938 42.039062 187.5 93.75 187.5 Z M 39.472656 93.75 C 39.472656 63.847656 63.847656 39.472656 93.75 39.472656 C 123.652344 39.472656 148.027344 63.847656 148.027344 93.75 L 148.027344 148.027344 L 93.75 148.027344 C 63.847656 148.027344 39.472656 123.652344 39.472656 93.75 Z M 39.472656 93.75 " fill-opacity="1" fill-rule="nonzero"/><path fill="#86270d" d="M 335.527344 389.800781 L 335.527344 296.050781 L 148.027344 296.050781 L 148.027344 389.800781 C 148.027344 441.511719 190.066406 483.550781 241.777344 483.550781 C 293.488281 483.550781 335.527344 441.511719 335.527344 389.800781 Z M 296.050781 335.527344 L 296.050781 389.800781 C 296.050781 419.703125 271.675781 444.078125 241.777344 444.078125 C 211.875 444.078125 187.5 419.703125 187.5 389.800781 L 187.5 335.527344 Z M 296.050781 335.527344 " fill-opacity="1" fill-rule="nonzero"/><path fill="#86270d" d="M 483.550781 241.777344 C 483.550781 190.066406 441.511719 148.027344 389.800781 148.027344 L 296.050781 148.027344 L 296.050781 335.527344 L 389.800781 335.527344 C 441.511719 335.527344 483.550781 293.488281 483.550781 241.777344 Z M 335.527344 187.5 L 389.800781 187.5 C 419.703125 187.5 444.078125 211.875 444.078125 241.777344 C 444.078125 271.675781 419.703125 296.050781 389.800781 296.050781 L 335.527344 296.050781 Z M 335.527344 187.5 " fill-opacity="1" fill-rule="nonzero"/><path fill="#86270d" d="M 335.527344 335.527344 L 335.527344 148.027344 L 148.027344 148.027344 L 148.027344 335.527344 Z M 296.050781 187.5 L 296.050781 296.050781 L 187.5 296.050781 L 187.5 187.5 Z M 296.050781 187.5 " fill-opacity="1" fill-rule="nonzero"/><path fill="#86270d" d="M 1500 39.472656 L 1500 0 L 296.050781 0 L 296.050781 148.027344 L 167.761719 148.027344 L 167.761719 187.5 L 335.527344 187.5 L 335.527344 39.472656 Z M 1500 39.472656 " fill-opacity="1" fill-rule="nonzero"/><path fill="#86270d" d="M 187.5 335.527344 L 187.5 167.761719 L 148.027344 167.761719 L 148.027344 296.050781 L 0 296.050781 L 0 1500 L 39.472656 1500 L 39.472656 335.527344 Z M 187.5 335.527344 " fill-opacity="1" fill-rule="nonzero"/><path fill="#86270d" d="M 315.789062 148.027344 L 315.789062 187.5 L 897.238281 187.5 L 897.238281 148.027344 Z M 315.789062 148.027344 " fill-opacity="1" fill-rule="nonzero"/><path fill="#86270d" d="M 148.027344 315.789062 L 148.027344 897.238281 L 187.5 897.238281 L 187.5 315.789062 Z M 148.027344 315.789062 " fill-opacity="1" fill-rule="nonzero"/></g></g><g mask="url(#3b43341e30)"><g transform="matrix(1, 0, 0, 1, 297, 0.000000000000112861)"><g clip-path="url(#fad59d0283)"><g clip-path="url(#786a849814)"><path fill="#86270d" d="M 33.785156 18.992188 L 591.894531 18.992188 L 595.265625 21.453125 L 595.265625 21.953125 L 591.527344 24.191406 L 34.195312 24.191406 L 31.5625 22.402344 L 31.5625 20.753906 Z M 33.785156 18.992188 " fill-opacity="1" fill-rule="evenodd"/></g></g></g></g></svg>