<svg xmlns="http://www.w3.org/2000/svg" xmlns:xlink="http://www.w3.org/1999/xlink" width="2000" zoomAndPan="magnify" viewBox="0 0 1500 1499.999933" height="2000" preserveAspectRatio="xMidYMid meet" version="1.0"><defs><filter x="0%" y="0%" width="100%" height="100%" id="fd26eb056c"><feColorMatrix values="0 0 0 0 1 0 0 0 0 1 0 0 0 0 1 0 0 0 1 0" color-interpolation-filters="sRGB"/></filter><clipPath id="e1c553032a"><rect x="0" width="1500" y="0" height="1500"/></clipPath><mask id="377e221c9d"><g filter="url(#fd26eb056c)"><rect x="-150" width="1800" fill="#000000" y="-149.999993" height="1799.99992" fill-opacity="0.44"/></g></mask><clipPath id="82b5ea1bf0"><path d="M 30 310.117188 L 595 310.117188 L 595 315.367188 L 30 315.367188 Z M 30 310.117188 " clip-rule="nonzero"/></clipPath><clipPath id="03b41ae74b"><rect x="0" width="626" y="0" height="326"/></clipPath></defs><g transform="matrix(1, 0, 0, 1, 0, 0.000000000000112861)"><g clip-path="url(#e1c553032a)"><path fill="#86270d" d="M 187.5 1312.5 L 187.5 1406.25 C 187.5 1457.960938 145.460938 1500 93.75 1500 C 42.039062 1500 0 1457.960938 0 1406.25 C 0 1354.539062 42.039062 1312.5 93.75 1312.5 Z M 39.472656 1406.25 C 39.472656 1436.152344 63.847656 1460.527344 93.75 1460.527344 C 123.652344 1460.527344 148.027344 1436.152344 148.027344 1406.25 L 148.027344 1351.972656 L 93.75 1351.972656 C 63.847656 1351.972656 39.472656 1376.347656 39.472656 1406.25 Z M 39.472656 1406.25 " fill-opacity="1" fill-rule="nonzero"/><path fill="#86270d" d="M 335.527344 1110.195312 L 335.527344 1203.945312 L 148.027344 1203.945312 L 148.027344 1110.195312 C 148.027344 1058.488281 190.066406 1016.445312 241.777344 1016.445312 C 293.488281 1016.445312 335.527344 1058.488281 335.527344 1110.195312 Z M 296.050781 1164.472656 L 296.050781 1110.195312 C 296.050781 1080.296875 271.675781 1055.921875 241.777344 1055.921875 C 211.875 1055.921875 187.5 1080.296875 187.5 1110.195312 L 187.5 1164.472656 Z M 296.050781 1164.472656 " fill-opacity="1" fill-rule="nonzero"/><path fill="#86270d" d="M 483.550781 1258.222656 C 483.550781 1309.933594 441.511719 1351.972656 389.800781 1351.972656 L 296.050781 1351.972656 L 296.050781 1164.472656 L 389.800781 1164.472656 C 441.511719 1164.472656 483.550781 1206.511719 483.550781 1258.222656 Z M 335.527344 1312.5 L 389.800781 1312.5 C 419.703125 1312.5 444.078125 1288.125 444.078125 1258.222656 C 444.078125 1228.320312 419.703125 1203.945312 389.800781 1203.945312 L 335.527344 1203.945312 Z M 335.527344 1312.5 " fill-opacity="1" fill-rule="nonzero"/><path fill="#86270d" d="M 335.527344 1164.472656 L 335.527344 1351.972656 L 148.027344 1351.972656 L 148.027344 1164.472656 Z M 296.050781 1312.5 L 296.050781 1203.945312 L 187.5 1203.945312 L 187.5 1312.5 Z M 296.050781 1312.5 " fill-opacity="1" fill-rule="nonzero"/><path fill="#86270d" d="M 1500 1460.527344 L 1500 1500 L 296.050781 1500 L 296.050781 1351.972656 L 167.761719 1351.972656 L 167.761719 1312.5 L 335.527344 1312.5 L 335.527344 1460.527344 Z M 1500 1460.527344 " fill-opacity="1" fill-rule="nonzero"/><path fill="#86270d" d="M 187.5 1164.472656 L 187.5 1332.238281 L 148.027344 1332.238281 L 148.027344 1203.945312 L 0 1203.945312 L 0 0 L 39.472656 0 L 39.472656 1164.472656 Z M 187.5 1164.472656 " fill-opacity="1" fill-rule="nonzero"/><path fill="#86270d" d="M 315.789062 1351.972656 L 315.789062 1312.5 L 897.238281 1312.5 L 897.238281 1351.972656 Z M 315.789062 1351.972656 " fill-opacity="1" fill-rule="nonzero"/><path fill="#86270d" d="M 148.027344 1184.210938 L 148.027344 602.761719 L 187.5 602.761719 L 187.5 1184.210938 Z M 148.027344 1184.210938 " fill-opacity="1" fill-rule="nonzero"/></g></g><g mask="url(#377e221c9d)"><g transform="matrix(1, 0, 0, 1, 306, 1174)"><g clip-path="url(#03b41ae74b)"><g clip-path="url(#82b5ea1bf0)"><path fill="#86270d" d="M 33.15625 310.105469 L 591.265625 310.105469 L 594.640625 312.570312 L 594.640625 313.070312 L 590.902344 315.304688 L 33.566406 315.304688 L 30.933594 313.519531 L 30.933594 311.867188 Z M 33.15625 310.105469 " fill-opacity="1" fill-rule="evenodd"/></g></g></g></g></svg>