<svg xmlns="http://www.w3.org/2000/svg" xmlns:xlink="http://www.w3.org/1999/xlink" width="2000" zoomAndPan="magnify" viewBox="0 0 1500 1499.999933" height="2000" preserveAspectRatio="xMidYMid meet" version="1.0"><defs><filter x="0%" y="0%" width="100%" height="100%" id="6d7fca048e"><feColorMatrix values="0 0 0 0 1 0 0 0 0 1 0 0 0 0 1 0 0 0 1 0" color-interpolation-filters="sRGB"/></filter><mask id="11a2462c18"><g filter="url(#6d7fca048e)"><rect x="-150" width="1800" fill="#000000" y="-149.999993" height="1799.99992" fill-opacity="0.44"/></g></mask><clipPath id="6a313fde10"><path d="M 30 16.210938 L 595 16.210938 L 595 21.460938 L 30 21.460938 Z M 30 16.210938 " clip-rule="nonzero"/></clipPath><clipPath id="721a56b240"><rect x="0" width="626" y="0" height="332"/></clipPath></defs><path fill="#86270d" d="M 1312.5 187.5 L 1312.5 93.75 C 1312.5 42.039062 1354.539062 0 1406.25 0 C 1457.960938 0 1500 42.039062 1500 93.75 C 1500 145.460938 1457.960938 187.5 1406.25 187.5 Z M 1460.527344 93.75 C 1460.527344 63.847656 1436.152344 39.472656 1406.25 39.472656 C 1376.347656 39.472656 1351.972656 63.847656 1351.972656 93.75 L 1351.972656 148.027344 L 1406.25 148.027344 C 1436.152344 148.027344 1460.527344 123.652344 1460.527344 93.75 Z M 1460.527344 93.75 " fill-opacity="1" fill-rule="nonzero"/><path fill="#86270d" d="M 1164.472656 389.800781 L 1164.472656 296.050781 L 1351.972656 296.050781 L 1351.972656 389.800781 C 1351.972656 441.511719 1309.933594 483.550781 1258.222656 483.550781 C 1206.511719 483.550781 1164.472656 441.511719 1164.472656 389.800781 Z M 1203.949219 335.527344 L 1203.949219 389.800781 C 1203.949219 419.703125 1228.324219 444.078125 1258.222656 444.078125 C 1288.125 444.078125 1312.5 419.703125 1312.5 389.800781 L 1312.5 335.527344 Z M 1203.949219 335.527344 " fill-opacity="1" fill-rule="nonzero"/><path fill="#86270d" d="M 1016.449219 241.777344 C 1016.449219 190.066406 1058.488281 148.027344 1110.199219 148.027344 L 1203.949219 148.027344 L 1203.949219 335.527344 L 1110.199219 335.527344 C 1058.488281 335.527344 1016.449219 293.488281 1016.449219 241.777344 Z M 1164.472656 187.5 L 1110.199219 187.5 C 1080.296875 187.5 1055.921875 211.875 1055.921875 241.777344 C 1055.921875 271.675781 1080.296875 296.050781 1110.199219 296.050781 L 1164.472656 296.050781 Z M 1164.472656 187.5 " fill-opacity="1" fill-rule="nonzero"/><path fill="#86270d" d="M 1164.472656 335.527344 L 1164.472656 148.027344 L 1351.972656 148.027344 L 1351.972656 335.527344 Z M 1203.949219 187.5 L 1203.949219 296.050781 L 1312.5 296.050781 L 1312.5 187.5 Z M 1203.949219 187.5 " fill-opacity="1" fill-rule="nonzero"/><path fill="#86270d" d="M 0 39.472656 L 0 0 L 1203.949219 0 L 1203.949219 148.027344 L 1332.238281 148.027344 L 1332.238281 187.5 L 1164.472656 187.5 L 1164.472656 39.472656 Z M 0 39.472656 " fill-opacity="1" fill-rule="nonzero"/><path fill="#86270d" d="M 1312.5 335.527344 L 1312.5 167.761719 L 1351.972656 167.761719 L 1351.972656 296.050781 L 1500 296.050781 L 1500 1500 L 1460.527344 1500 L 1460.527344 335.527344 Z M 1312.5 335.527344 " fill-opacity="1" fill-rule="nonzero"/><path fill="#86270d" d="M 1184.210938 148.027344 L 1184.210938 187.5 L 602.761719 187.5 L 602.761719 148.027344 Z M 1184.210938 148.027344 " fill-opacity="1" fill-rule="nonzero"/><path fill="#86270d" d="M 1351.972656 315.789062 L 1351.972656 897.238281 L 1312.5 897.238281 L 1312.5 315.789062 Z M 1351.972656 315.789062 " fill-opacity="1" fill-rule="nonzero"/><g mask="url(#11a2462c18)"><g transform="matrix(1, 0, 0, 1, 426, 0.000000000000112861)"><g clip-path="url(#721a56b240)"><g clip-path="url(#6a313fde10)"><path fill="#86270d" d="M 33.15625 16.199219 L 591.265625 16.199219 L 594.640625 18.664062 L 594.640625 19.164062 L 590.902344 21.398438 L 33.566406 21.398438 L 30.933594 19.613281 L 30.933594 17.960938 Z M 33.15625 16.199219 " fill-opacity="1" fill-rule="evenodd"/></g></g></g></g></svg>