<svg xmlns="http://www.w3.org/2000/svg" xmlns:xlink="http://www.w3.org/1999/xlink" width="2000" zoomAndPan="magnify" viewBox="0 0 1500 1499.999933" height="2000" preserveAspectRatio="xMidYMid meet" version="1.0"><defs><filter x="0%" y="0%" width="100%" height="100%" id="3dc350d49f"><feColorMatrix values="0 0 0 0 1 0 0 0 0 1 0 0 0 0 1 0 0 0 1 0" color-interpolation-filters="sRGB"/></filter><clipPath id="c91b05dc2d"><rect x="0" width="1500" y="0" height="1500"/></clipPath><mask id="c1db2beccc"><g filter="url(#3dc350d49f)"><rect x="-150" width="1800" fill="#000000" y="-149.999993" height="1799.99992" fill-opacity="0.44"/></g></mask><clipPath id="6a7fcbb74a"><path d="M 31 310.5625 L 596 310.5625 L 596 315.8125 L 31 315.8125 Z M 31 310.5625 " clip-rule="nonzero"/></clipPath><clipPath id="0607337e1a"><rect x="0" width="627" y="0" height="339"/></clipPath></defs><g transform="matrix(1, 0, 0, 1, 0, 0.000000000000112861)"><g clip-path="url(#c91b05dc2d)"><path fill="#86270d" d="M 1312.5 1312.5 L 1312.5 1406.25 C 1312.5 1457.960938 1354.539062 1500 1406.25 1500 C 1457.960938 1500 1500 1457.960938 1500 1406.25 C 1500 1354.539062 1457.960938 1312.5 1406.25 1312.5 Z M 1460.527344 1406.25 C 1460.527344 1436.152344 1436.152344 1460.527344 1406.25 1460.527344 C 1376.347656 1460.527344 1351.972656 1436.152344 1351.972656 1406.25 L 1351.972656 1351.972656 L 1406.25 1351.972656 C 1436.152344 1351.972656 1460.527344 1376.347656 1460.527344 1406.25 Z M 1460.527344 1406.25 " fill-opacity="1" fill-rule="nonzero"/><path fill="#86270d" d="M 1164.472656 1110.195312 L 1164.472656 1203.945312 L 1351.972656 1203.945312 L 1351.972656 1110.195312 C 1351.972656 1058.488281 1309.933594 1016.445312 1258.222656 1016.445312 C 1206.511719 1016.445312 1164.472656 1058.488281 1164.472656 1110.195312 Z M 1203.949219 1164.472656 L 1203.949219 1110.195312 C 1203.949219 1080.296875 1228.324219 1055.921875 1258.222656 1055.921875 C 1288.125 1055.921875 1312.5 1080.296875 1312.5 1110.195312 L 1312.5 1164.472656 Z M 1203.949219 1164.472656 " fill-opacity="1" fill-rule="nonzero"/><path fill="#86270d" d="M 1016.449219 1258.222656 C 1016.449219 1309.933594 1058.488281 1351.972656 1110.199219 1351.972656 L 1203.949219 1351.972656 L 1203.949219 1164.472656 L 1110.199219 1164.472656 C 1058.488281 1164.472656 1016.449219 1206.511719 1016.449219 1258.222656 Z M 1164.472656 1312.5 L 1110.199219 1312.5 C 1080.296875 1312.5 1055.921875 1288.125 1055.921875 1258.222656 C 1055.921875 1228.320312 1080.296875 1203.945312 1110.199219 1203.945312 L 1164.472656 1203.945312 Z M 1164.472656 1312.5 " fill-opacity="1" fill-rule="nonzero"/><path fill="#86270d" d="M 1164.472656 1164.472656 L 1164.472656 1351.972656 L 1351.972656 1351.972656 L 1351.972656 1164.472656 Z M 1203.949219 1312.5 L 1203.949219 1203.945312 L 1312.5 1203.945312 L 1312.5 1312.5 Z M 1203.949219 1312.5 " fill-opacity="1" fill-rule="nonzero"/><path fill="#86270d" d="M 0 1460.527344 L 0 1500 L 1203.949219 1500 L 1203.949219 1351.972656 L 1332.238281 1351.972656 L 1332.238281 1312.5 L 1164.472656 1312.5 L 1164.472656 1460.527344 Z M 0 1460.527344 " fill-opacity="1" fill-rule="nonzero"/><path fill="#86270d" d="M 1312.5 1164.472656 L 1312.5 1332.238281 L 1351.972656 1332.238281 L 1351.972656 1203.945312 L 1500 1203.945312 L 1500 0 L 1460.527344 0 L 1460.527344 1164.472656 Z M 1312.5 1164.472656 " fill-opacity="1" fill-rule="nonzero"/><path fill="#86270d" d="M 1184.210938 1351.972656 L 1184.210938 1312.5 L 602.761719 1312.5 L 602.761719 1351.972656 Z M 1184.210938 1351.972656 " fill-opacity="1" fill-rule="nonzero"/><path fill="#86270d" d="M 1351.972656 1184.210938 L 1351.972656 602.761719 L 1312.5 602.761719 L 1312.5 1184.210938 Z M 1351.972656 1184.210938 " fill-opacity="1" fill-rule="nonzero"/></g></g><g mask="url(#c1db2beccc)"><g transform="matrix(1, 0, 0, 1, 421, 1161)"><g clip-path="url(#0607337e1a)"><g clip-path="url(#6a7fcbb74a)"><path fill="#86270d" d="M 33.96875 310.546875 L 592.082031 310.546875 L 595.453125 313.011719 L 595.453125 313.511719 L 591.714844 315.75 L 34.382812 315.75 L 31.75 313.960938 L 31.75 312.3125 Z M 33.96875 310.546875 " fill-opacity="1" fill-rule="evenodd"/></g></g></g></g></svg>