<svg xmlns="http://www.w3.org/2000/svg" xmlns:xlink="http://www.w3.org/1999/xlink" width="2000" zoomAndPan="magnify" viewBox="0 0 1500 1499.999933" height="2000" preserveAspectRatio="xMidYMid meet" version="1.0"><defs><filter x="0%" y="0%" width="100%" height="100%" id="1d45d38fe0"><feColorMatrix values="0 0 0 0 1 0 0 0 0 1 0 0 0 0 1 0 0 0 1 0" color-interpolation-filters="sRGB"/></filter><clipPath id="8223b6b68f"><path d="M 342 199.5625 L 1467.132812 199.5625 L 1467.132812 1444.953125 L 342 1444.953125 Z M 342 199.5625 " clip-rule="nonzero"/></clipPath><mask id="01889e3784"><g filter="url(#1d45d38fe0)"><rect x="-150" width="1800" fill="#000000" y="-149.999993" height="1799.99992" fill-opacity="0.74"/></g></mask><clipPath id="bbf0717ee5"><path d="M 392 266 L 973 266 L 973 1105 L 392 1105 Z M 392 266 " clip-rule="nonzero"/></clipPath><clipPath id="44086f3aa5"><path d="M 372.1875 1127.835938 L 986.75 237.007812 L 994.777344 242.546875 L 380.210938 1133.375 Z M 372.1875 1127.835938 " clip-rule="nonzero"/></clipPath><clipPath id="4f1d056778"><path d="M 372.1875 1127.835938 L 986.75 237.007812 L 994.777344 242.546875 L 380.210938 1133.375 Z M 372.1875 1127.835938 " clip-rule="nonzero"/></clipPath><clipPath id="466216b58a"><rect x="0" width="1468" y="0" height="1470"/></clipPath></defs><g clip-path="url(#8223b6b68f)"><path fill="#6fb000" d="M 348.0625 1198.558594 C 469.429688 1397.898438 725.574219 1483.027344 947.5 1429.25 C 1135.175781 1383.777344 1299.269531 1222.414062 1385.601562 1055.792969 C 1470.957031 891.082031 1486.984375 748.941406 1444.507812 612.8125 C 1432.402344 573.976562 1415.515625 535.640625 1394.132812 497.398438 L 1380.113281 477.390625 C 1317.324219 372.921875 1207.949219 279.832031 1056.074219 206.179688 C 1056.074219 206.179688 1024.59375 190.78125 1012.71875 207.558594 C 1012.71875 207.558594 354.773438 1156.492188 345.363281 1170.417969 C 338.078125 1182.164062 348.0625 1198.542969 348.0625 1198.558594 " fill-opacity="1" fill-rule="nonzero"/></g><path fill="#92d302" d="M 1010.117188 209.148438 L 979.707031 254.199219 L 1050.546875 288.804688 C 1304.683594 431.074219 1399.027344 630.414062 1309.578125 842.355469 C 1300.152344 864.699219 1273.855469 922.988281 1233.078125 981.949219 C 1019.757812 1250.269531 652.589844 1234.066406 542.199219 1192.324219 C 503.796875 1177.785156 473.867188 1165.828125 450.746094 1156.148438 L 379.253906 1121.390625 L 344.179688 1172.101562 C 344.179688 1172.101562 342.667969 1174.820312 344.3125 1177.324219 C 345.976562 1179.8125 346.894531 1180.042969 352.117188 1182.644531 C 373.117188 1193.203125 420.105469 1214.839844 513.992188 1250.363281 C 585.175781 1277.28125 666.707031 1289.714844 742.019531 1291.53125 C 850.574219 1294.152344 963.871094 1272.34375 1053.246094 1229.378906 C 1123.875 1195.441406 1186.605469 1150.101562 1237.59375 1098.527344 C 1286.746094 1048.808594 1324.402344 991.324219 1355.421875 932.25 C 1366.402344 911.28125 1376.671875 889.953125 1385.832031 868.277344 C 1498.632812 601.046875 1346.300781 358.171875 1031.5 205.398438 C 1031.5 205.398438 1017.175781 199.792969 1010.117188 209.148438 " fill-opacity="1" fill-rule="nonzero"/><path fill="#fffbb8" d="M 371.988281 1131.488281 L 443.820312 1166.34375 L 445.847656 1167.261719 C 472.28125 1178.320312 503.128906 1190.527344 537.554688 1203.574219 C 574.867188 1217.710938 616.195312 1227.464844 655.765625 1233.339844 C 756.019531 1248.164062 861.398438 1239.882812 952.4375 1213.0625 C 1011.074219 1195.765625 1063.476562 1169.195312 1108.804688 1135.832031 C 1145.847656 1108.570312 1176.355469 1082.382812 1206.820312 1050.261719 C 1221.546875 1034.710938 1237.996094 1013.707031 1250.65625 997.101562 C 1286.035156 950.710938 1313.710938 900.453125 1335.78125 848 C 1427.679688 629.511719 1328.761719 419.386719 1064.394531 271.472656 L 1063.476562 270.976562 L 992.234375 235.984375 L 371.988281 1131.488281 " fill-opacity="1" fill-rule="nonzero"/><path fill="#addb2a" d="M 755.792969 694.882812 C 752.808594 692.699219 752.40625 691.953125 752.15625 691.476562 C 750.800781 689.046875 750.207031 686.386719 750.511719 683.863281 C 750.894531 679.941406 753.265625 676.363281 757.015625 674.03125 C 759.425781 672.519531 762.3125 671.617188 764.972656 671.425781 L 1229.332031 594.792969 C 1229.730469 594.734375 1230.113281 594.714844 1230.515625 594.734375 C 1242.414062 595.578125 1254.230469 598.542969 1266.625 603.820312 C 1290.933594 614.171875 1301.453125 641.46875 1302.789062 645.179688 L 1305.160156 648.949219 C 1305.390625 649.332031 1305.5625 649.714844 1305.621094 650.136719 C 1314.035156 700.8125 1312.90625 751.621094 1302.351562 801.109375 C 1299.097656 816.359375 1294.757812 831.949219 1289.441406 847.484375 C 1289.382812 847.675781 1289.269531 847.882812 1289.136719 848.074219 L 1281.3125 860.261719 C 1280.949219 860.894531 1272.324219 875.605469 1257.101562 885.015625 C 1250.847656 888.878906 1244.304688 891.308594 1237.648438 892.265625 C 1213.722656 895.671875 1194.65625 890.46875 1173.253906 881.59375 L 756.691406 695.4375 C 756.363281 695.28125 756.058594 695.109375 755.792969 694.882812 " fill-opacity="1" fill-rule="nonzero"/><path fill="#addb2a" d="M 737.203125 655.953125 C 733.394531 656.007812 732.421875 655.683594 731.867188 655.492188 C 728.84375 654.402344 726.109375 652.738281 724.042969 650.671875 C 720.8125 647.476562 719.109375 643.34375 719.453125 639.421875 C 719.644531 636.878906 720.675781 634.507812 722.1875 632.804688 L 949.375 304.183594 C 949.566406 303.917969 949.777344 303.667969 950.082031 303.457031 C 958.382812 297.164062 968.519531 292.515625 981.085938 289.28125 C 1012.625 279.21875 1046.683594 301.375 1047.085938 301.660156 C 1097.5 335.15625 1141.964844 374.296875 1179.300781 417.972656 C 1190.753906 431.421875 1201.847656 445.769531 1212.289062 460.613281 C 1212.441406 460.824219 1212.558594 461.035156 1212.652344 461.246094 L 1218.488281 475.074219 C 1218.8125 475.726562 1226.421875 491.910156 1225.105469 507.902344 L 1225.105469 507.921875 C 1224.570312 514.464844 1222.578125 520.128906 1219.195312 524.71875 C 1207.011719 541.246094 1190.257812 548.441406 1168.742188 554.140625 L 738.234375 655.816406 C 737.929688 655.914062 737.582031 655.953125 737.203125 655.953125 " fill-opacity="1" fill-rule="nonzero"/><path fill="#addb2a" d="M 741.273438 715.769531 C 737.582031 714.625 736.570312 714.699219 735.996094 714.738281 C 732.820312 714.910156 729.820312 715.753906 727.3125 717.1875 C 723.46875 719.367188 720.925781 722.867188 720.332031 726.789062 C 719.949219 729.277344 720.390625 731.878906 721.460938 733.945312 L 867.023438 1115.707031 C 867.136719 1116.03125 867.289062 1116.339844 867.519531 1116.625 C 874.117188 1125.0625 882.898438 1132.390625 894.351562 1139.046875 C 916.785156 1152.074219 950.046875 1146.679688 954.539062 1145.875 L 959.550781 1145.816406 C 960.066406 1145.816406 960.546875 1145.742188 961.003906 1145.589844 C 1017.347656 1127.320312 1069.253906 1101.933594 1115.230469 1070.140625 C 1129.382812 1060.363281 1143.382812 1049.574219 1156.808594 1038.132812 C 1157.039062 1037.960938 1157.171875 1037.789062 1157.304688 1037.597656 L 1166.101562 1025.910156 C 1166.5625 1025.316406 1177.578125 1011.8125 1179.910156 995.972656 C 1180.886719 989.46875 1180.234375 983.421875 1178 978.066406 C 1169.929688 958.609375 1155.375 946.941406 1135.847656 935.40625 L 742.25 716.191406 C 741.945312 716 741.621094 715.867188 741.273438 715.769531 " fill-opacity="1" fill-rule="nonzero"/><path fill="#addb2a" d="M 692.085938 720.820312 C 690.304688 717.933594 689.503906 717.398438 689.042969 717.074219 C 686.460938 715.351562 683.421875 714.125 680.265625 713.589844 C 675.40625 712.730469 670.359375 713.476562 666.457031 715.617188 C 663.914062 717.015625 661.945312 718.890625 660.929688 720.839844 L 431.675781 1048.445312 C 431.503906 1048.714844 431.351562 1048.980469 431.273438 1049.324219 C 428.808594 1058.527344 428.902344 1068.304688 431.675781 1079.1875 C 438.636719 1104.765625 475.875 1122.019531 476.351562 1122.191406 C 535.296875 1143.445312 597.203125 1157.507812 660.316406 1164.070312 C 679.730469 1166.117188 699.90625 1167.398438 720.292969 1167.953125 C 720.5625 1167.972656 720.832031 1167.933594 721.117188 1167.914062 L 738.175781 1165.578125 C 739.019531 1165.503906 759.40625 1163.324219 775.28125 1154.617188 L 775.28125 1154.597656 C 781.78125 1151.023438 786.679688 1146.8125 789.777344 1142.089844 C 800.925781 1125.042969 800.238281 1109.125 795.761719 1090.398438 L 692.46875 721.644531 C 692.390625 721.375 692.277344 721.070312 692.085938 720.820312 " fill-opacity="1" fill-rule="nonzero"/><path fill="#fffbb8" d="M 1027.367188 740.277344 C 1052.441406 749.019531 1056.839844 764.746094 1053.265625 771.878906 C 1049.6875 779.054688 1037.410156 789.328125 1012.316406 780.621094 C 997.09375 775.34375 962.324219 747.585938 964.714844 741.15625 C 967.125 734.710938 1012.164062 735.015625 1027.367188 740.277344 " fill-opacity="1" fill-rule="nonzero"/><path fill="#fffbb8" d="M 705.378906 962.4375 C 704.25 988.96875 690.441406 997.710938 682.578125 996.335938 C 674.679688 994.976562 661.3125 986.15625 662.421875 959.625 C 663.109375 943.515625 679.691406 902.234375 686.539062 902.671875 C 693.386719 903.113281 706.066406 946.367188 705.378906 962.4375 " fill-opacity="1" fill-rule="nonzero"/><path fill="#fffbb8" d="M 981.277344 549.742188 C 1001.148438 541.246094 1002.390625 529.5 995.351562 518.75 C 988.296875 507.980469 975.636719 502.222656 955.78125 510.753906 C 943.734375 515.898438 928.757812 531.507812 917.953125 543.351562 C 910.953125 551.058594 911.605469 553.242188 912.3125 554.351562 C 913 555.402344 914.96875 557.105469 926.828125 556.703125 C 944.996094 556.148438 969.265625 554.886719 981.277344 549.742188 " fill-opacity="1" fill-rule="nonzero"/><path fill="#81c401" d="M 911.011719 844.613281 C 935.738281 867.359375 937.902344 879.851562 929.847656 885.4375 C 921.796875 891.023438 906.613281 887.617188 881.882812 864.871094 C 866.871094 851.078125 847.746094 824.8125 833.917969 805.28125 C 824.949219 792.617188 825.636719 790.875 826.421875 790.339844 C 827.242188 789.765625 829.539062 789.519531 844.054688 798.433594 C 866.316406 812.109375 896.035156 830.839844 911.011719 844.613281 " fill-opacity="1" fill-rule="nonzero"/><path fill="#81c401" d="M 972.136719 709 C 1001.664062 709.917969 1011.589844 702.953125 1011.09375 694 C 1010.539062 685.046875 999.789062 677.453125 970.28125 676.554688 C 952.359375 676 923.421875 681.070312 902.15625 685.125 C 888.328125 687.726562 887.507812 689.3125 887.523438 690.214844 C 887.621094 691.113281 888.710938 692.796875 902.941406 696.277344 C 924.78125 701.613281 954.273438 708.464844 972.136719 709 " fill-opacity="1" fill-rule="nonzero"/><path fill="#81c401" d="M 851.933594 923.277344 C 869.777344 949.675781 883.816406 955.855469 893.433594 952.066406 C 903.035156 948.28125 904.585938 936 886.742188 909.597656 C 875.933594 893.585938 851.835938 869.960938 833.785156 852.667969 C 822.058594 841.457031 819.765625 841.324219 818.789062 841.707031 C 817.832031 842.070312 816.667969 843.65625 821.90625 857.527344 C 829.902344 878.761719 841.128906 907.304688 851.933594 923.277344 " fill-opacity="1" fill-rule="nonzero"/><path fill="#81c401" d="M 636.699219 902.082031 C 630.003906 924.863281 618.914062 930.605469 608.125 927.828125 C 597.339844 925.074219 590.933594 914.878906 597.625 892.09375 C 601.660156 878.28125 615.449219 857.566406 626.007812 842.375 C 632.816406 832.542969 634.976562 832.332031 636.066406 832.597656 C 637.136719 832.867188 638.878906 834.148438 639.394531 845.933594 C 640.179688 863.992188 640.734375 888.308594 636.699219 902.082031 " fill-opacity="1" fill-rule="nonzero"/><path fill="#81c401" d="M 885.613281 460.671875 C 903.914062 440.71875 918.257812 438.765625 928.070312 444.945312 C 937.882812 451.125 939.46875 463.136719 921.1875 483.109375 C 910.113281 495.199219 885.460938 510.847656 866.964844 522.15625 C 854.957031 529.519531 852.640625 529.023438 851.628906 528.410156 C 850.671875 527.796875 849.503906 525.980469 854.839844 514.367188 C 863.046875 496.578125 874.578125 472.761719 885.613281 460.671875 " fill-opacity="1" fill-rule="nonzero"/><path fill="#92d302" d="M 87.824219 925.074219 C 86.140625 912.296875 86.8125 899.230469 89.605469 887.3125 C 103.125 829.632812 161.839844 784.277344 210.800781 756.765625 C 252.550781 733.332031 285.175781 723.269531 330.21875 714.394531 C 334.730469 713.515625 349.113281 707.945312 349.246094 718.621094 C 349.324219 724.953125 343.222656 728.339844 334.101562 738.460938 C 305.527344 770.160156 274.007812 805.03125 261.578125 853.546875 C 250.753906 895.710938 239.660156 956.871094 196.703125 981.757812 C 170.082031 997.175781 141.910156 997.921875 118.214844 980.78125 C 100.429688 967.90625 90.675781 946.921875 87.824219 925.074219 " fill-opacity="1" fill-rule="nonzero"/><path fill="#addb2a" d="M 170.40625 957.308594 C 146.980469 970.890625 122.347656 973.054688 100.621094 961.691406 C 93.753906 950.824219 89.527344 938.121094 87.824219 925.074219 C 86.140625 912.296875 86.8125 899.230469 89.605469 887.3125 C 103.125 829.632812 161.839844 784.277344 210.800781 756.765625 C 243.273438 738.554688 270.277344 728.4375 301.816406 720.648438 C 274.945312 750.609375 246.851562 783.953125 235.28125 829.097656 C 224.457031 871.261719 213.363281 932.421875 170.40625 957.308594 " fill-opacity="1" fill-rule="nonzero"/><path fill="#92d302" d="M 396.925781 286.96875 C 395.835938 285.589844 394.839844 284.289062 394.09375 283.140625 C 381.664062 263.953125 358.214844 238.378906 341.558594 211.210938 C 311.207031 161.683594 277.757812 90.789062 334.292969 46.0625 C 335.6875 44.972656 337.0625 43.878906 338.554688 42.808594 C 367.894531 21.917969 411.347656 28.421875 436.210938 54.058594 C 455.734375 74.203125 458.527344 102.554688 454.453125 129.871094 C 450.382812 157.167969 444.757812 187.164062 439.691406 214.617188 C 433.472656 248.34375 441.296875 285.035156 434.238281 317.175781 C 433.015625 322.703125 407.617188 300.378906 396.925781 286.96875 " fill-opacity="1" fill-rule="nonzero"/><path fill="#addb2a" d="M 402.875 66.015625 C 415.707031 84.53125 415.765625 109.917969 411.15625 131.132812 C 406.222656 153.839844 403.007812 177.121094 399.871094 200.269531 C 396.027344 228.679688 401.6875 257.929688 399.222656 286.394531 C 399.144531 287.371094 398.304688 287.484375 396.925781 286.96875 C 395.835938 285.589844 394.839844 284.289062 394.09375 283.140625 C 381.664062 263.953125 358.214844 238.378906 341.558594 211.210938 C 311.207031 161.683594 277.757812 90.789062 334.292969 46.0625 C 358.179688 37.777344 388.148438 44.800781 402.875 66.015625 " fill-opacity="1" fill-rule="nonzero"/><path fill="#addb2a" d="M 8.128906 424.132812 C 24.136719 385.222656 78.96875 368.234375 117.507812 375.121094 C 164.667969 383.519531 208.085938 410.875 245.089844 440.183594 C 249.375 443.566406 253.601562 447.050781 257.769531 450.589844 C 259.050781 451.679688 239.277344 457.167969 237.863281 457.515625 C 219.5 461.933594 201.140625 466.503906 182.914062 471.152344 C 135.808594 483.148438 95.972656 512.875 45.445312 500.996094 C 19.203125 494.835938 1.742188 469.261719 3.75 442.667969 C 4.265625 436.03125 5.777344 429.851562 8.128906 424.132812 " fill-opacity="1" fill-rule="nonzero"/><path fill="#addb2a" d="M 766.328125 144.773438 C 742.519531 178.921875 726.625 191.816406 697.824219 221.410156 C 680.074219 239.660156 659.839844 273.058594 660.433594 275.335938 C 646.71875 221.160156 638.417969 185.730469 640.390625 143.835938 C 642.855469 90.863281 674.242188 37.816406 726.757812 21.058594 C 749.402344 13.828125 775.738281 20.960938 786.199219 43.726562 C 802.722656 79.691406 786.410156 115.964844 766.328125 144.773438 " fill-opacity="1" fill-rule="nonzero"/><g mask="url(#01889e3784)"><g transform="matrix(1, 0, 0, 1, 0, 0.000000000000112861)"><g clip-path="url(#466216b58a)"><g clip-path="url(#bbf0717ee5)"><g clip-path="url(#44086f3aa5)"><g clip-path="url(#4f1d056778)"><path fill="#fffbb8" d="M 392.980469 1097.65625 L 964.585938 269.101562 L 971.695312 266.617188 L 972.4375 267.128906 L 971.929688 274.96875 L 401.121094 1102.371094 L 395.773438 1104.445312 L 393.324219 1102.757812 Z M 392.980469 1097.65625 " fill-opacity="1" fill-rule="evenodd"/></g></g></g></g></g></g></svg>