<svg xmlns="http://www.w3.org/2000/svg" xmlns:xlink="http://www.w3.org/1999/xlink" width="378" zoomAndPan="magnify" viewBox="0 0 283.5 84.749999" height="113" preserveAspectRatio="xMidYMid meet" version="1.0"><defs><g/><clipPath id="5e07d4d00c"><path d="M 0.0390625 0 L 277.382812 0 L 277.382812 83.273438 L 0.0390625 83.273438 Z M 0.0390625 0 " clip-rule="nonzero"/></clipPath><clipPath id="a7726a7e75"><path d="M 242 49 L 277.199219 49 L 277.199219 76.714844 L 242 76.714844 Z M 242 49 " clip-rule="nonzero"/></clipPath><clipPath id="0257f07a17"><path d="M 0.171875 49 L 36 49 L 36 76.714844 L 0.171875 76.714844 Z M 0.171875 49 " clip-rule="nonzero"/></clipPath><clipPath id="b2d234010c"><path d="M 139 0 L 153 0 L 153 20 L 139 20 Z M 139 0 " clip-rule="nonzero"/></clipPath><clipPath id="53fb39c7cc"><rect x="0" width="278" y="0" height="84"/></clipPath><clipPath id="69d4ed54bd"><rect x="0" width="278" y="0" height="84"/></clipPath></defs><g transform="matrix(1, 0, 0, 1, 3, 0.000000000000001628)"><g clip-path="url(#69d4ed54bd)"><g clip-path="url(#5e07d4d00c)"><g transform="matrix(1, 0, 0, 1, 0, 0.000000000000001628)"><g clip-path="url(#53fb39c7cc)"><g clip-path="url(#a7726a7e75)"><path fill="#ab2d0c" d="M 271.421875 76.503906 C 262.019531 75.34375 252.605469 74.304688 243.183594 73.394531 C 242.558594 73.332031 242.101562 72.78125 242.164062 72.160156 C 242.347656 70.222656 242.535156 68.285156 242.71875 66.347656 C 242.777344 65.726562 243.335938 65.269531 243.964844 65.332031 C 245.542969 65.484375 247.121094 65.640625 248.695312 65.800781 C 249.203125 60.785156 249.710938 55.769531 250.222656 50.753906 C 250.285156 50.132812 250.851562 49.683594 251.488281 49.75 C 259.132812 50.53125 266.773438 51.394531 274.40625 52.335938 C 275.796875 52.507812 276.882812 53.53125 277.105469 54.878906 C 277.328125 56.234375 276.628906 57.53125 275.367188 58.113281 C 271.59375 59.84375 267.835938 61.59375 264.101562 63.367188 C 267.335938 65.941406 270.546875 68.53125 273.738281 71.132812 C 274.804688 72.003906 275.148438 73.433594 274.605469 74.6875 C 274.058594 75.945312 272.78125 76.671875 271.421875 76.503906 Z M 244.53125 71.253906 C 253.597656 72.140625 262.652344 73.144531 271.699219 74.261719 C 272.226562 74.328125 272.445312 73.957031 272.515625 73.792969 C 272.570312 73.667969 272.71875 73.222656 272.292969 72.878906 C 268.644531 69.902344 264.964844 66.941406 261.253906 64 C 260.945312 63.757812 260.789062 63.378906 260.832031 62.992188 C 260.875 62.609375 261.113281 62.273438 261.46875 62.105469 C 265.746094 60.066406 270.046875 58.054688 274.375 56.066406 C 274.878906 55.832031 274.84375 55.367188 274.820312 55.230469 C 274.792969 55.058594 274.664062 54.644531 274.128906 54.578125 C 266.894531 53.6875 259.652344 52.863281 252.40625 52.113281 C 251.890625 57.128906 251.371094 62.140625 250.851562 67.15625 C 250.789062 67.777344 250.226562 68.226562 249.601562 68.164062 C 248.027344 68.003906 246.453125 67.84375 244.878906 67.691406 C 244.765625 68.878906 244.648438 70.066406 244.53125 71.253906 Z M 244.53125 71.253906 " fill-opacity="1" fill-rule="nonzero"/></g><path fill="#ab2d0c" d="M 249.601562 68.164062 C 175.894531 60.617188 101.605469 60.617188 27.898438 68.164062 C 27.269531 68.226562 26.710938 67.777344 26.648438 67.15625 C 25.53125 56.378906 24.417969 45.597656 23.304688 34.820312 C 23.238281 34.199219 23.710938 33.640625 24.355469 33.578125 C 100.421875 25.789062 177.078125 25.789062 253.144531 33.578125 C 253.789062 33.640625 254.261719 34.199219 254.195312 34.820312 C 253.082031 45.597656 251.96875 56.378906 250.851562 67.15625 C 250.789062 67.777344 250.226562 68.226562 249.601562 68.164062 Z M 28.804688 65.800781 C 101.914062 58.394531 175.585938 58.394531 248.695312 65.800781 C 249.714844 55.769531 250.730469 45.738281 251.746094 35.707031 C 176.609375 28.09375 100.890625 28.09375 25.753906 35.707031 C 26.769531 45.738281 27.785156 55.769531 28.804688 65.800781 Z M 28.804688 65.800781 " fill-opacity="1" fill-rule="nonzero"/><g clip-path="url(#0257f07a17)"><path fill="#ab2d0c" d="M 34.316406 73.394531 C 24.894531 74.304688 15.480469 75.34375 6.078125 76.503906 C 4.714844 76.671875 3.4375 75.941406 2.890625 74.683594 C 2.347656 73.429688 2.695312 72 3.761719 71.132812 C 6.953125 68.527344 10.164062 65.941406 13.398438 63.367188 C 9.664062 61.59375 5.910156 59.84375 2.132812 58.113281 C 0.871094 57.53125 0.171875 56.234375 0.394531 54.882812 C 0.617188 53.535156 1.703125 52.507812 3.09375 52.335938 C 10.726562 51.394531 18.367188 50.53125 26.011719 49.75 C 26.648438 49.683594 27.214844 50.132812 27.277344 50.753906 C 27.785156 55.769531 28.296875 60.785156 28.804688 65.800781 C 30.378906 65.640625 31.957031 65.484375 33.535156 65.332031 C 34.164062 65.269531 34.71875 65.726562 34.78125 66.347656 C 34.964844 68.285156 35.152344 70.222656 35.335938 72.160156 C 35.398438 72.78125 34.941406 73.332031 34.316406 73.394531 Z M 3.371094 54.578125 C 2.816406 54.648438 2.699219 55.097656 2.675781 55.234375 C 2.652344 55.371094 2.617188 55.832031 3.125 56.066406 C 7.453125 58.054688 11.753906 60.066406 16.03125 62.105469 C 16.386719 62.273438 16.625 62.609375 16.667969 62.992188 C 16.710938 63.378906 16.550781 63.757812 16.246094 64 C 12.535156 66.941406 8.855469 69.902344 5.207031 72.878906 C 4.792969 73.214844 4.910156 73.628906 4.980469 73.792969 C 5.035156 73.917969 5.257812 74.328125 5.800781 74.261719 C 14.847656 73.144531 23.902344 72.140625 32.96875 71.253906 C 32.851562 70.066406 32.734375 68.878906 32.621094 67.691406 C 31.046875 67.84375 29.472656 68.003906 27.898438 68.164062 C 27.269531 68.226562 26.710938 67.777344 26.648438 67.15625 C 26.128906 62.140625 25.609375 57.128906 25.09375 52.113281 C 17.847656 52.863281 10.605469 53.683594 3.371094 54.578125 Z M 3.371094 54.578125 " fill-opacity="1" fill-rule="nonzero"/></g><path fill="#ab2d0c" d="M 243.183594 73.394531 C 243.039062 73.378906 242.894531 73.335938 242.757812 73.265625 C 242.355469 73.050781 242.117188 72.613281 242.164062 72.160156 C 242.347656 70.222656 242.535156 68.285156 242.71875 66.347656 C 242.777344 65.726562 243.335938 65.269531 243.964844 65.332031 C 245.921875 65.519531 247.875 65.714844 249.832031 65.914062 C 250.292969 65.960938 250.679688 66.28125 250.808594 66.71875 C 250.941406 67.15625 250.796875 67.628906 250.4375 67.917969 C 248.285156 69.652344 246.144531 71.394531 244.011719 73.140625 C 243.777344 73.335938 243.476562 73.421875 243.183594 73.394531 Z M 244.878906 67.691406 C 244.816406 68.347656 244.75 69.003906 244.6875 69.664062 C 245.414062 69.070312 246.140625 68.476562 246.867188 67.886719 C 246.203125 67.820312 245.542969 67.753906 244.878906 67.691406 Z M 244.878906 67.691406 " fill-opacity="1" fill-rule="nonzero"/><path fill="#ab2d0c" d="M 34.316406 73.394531 C 34.023438 73.421875 33.722656 73.335938 33.488281 73.140625 C 31.355469 71.394531 29.214844 69.652344 27.0625 67.917969 C 26.703125 67.628906 26.558594 67.15625 26.6875 66.71875 C 26.820312 66.277344 27.207031 65.960938 27.667969 65.914062 C 29.621094 65.714844 31.578125 65.519531 33.535156 65.332031 C 34.164062 65.269531 34.71875 65.726562 34.78125 66.347656 C 34.964844 68.285156 35.152344 70.222656 35.335938 72.160156 C 35.382812 72.613281 35.144531 73.050781 34.738281 73.265625 C 34.605469 73.335938 34.460938 73.378906 34.316406 73.394531 Z M 30.632812 67.886719 C 31.359375 68.476562 32.085938 69.070312 32.8125 69.664062 C 32.75 69.003906 32.683594 68.347656 32.621094 67.691406 C 31.957031 67.753906 31.292969 67.820312 30.632812 67.886719 Z M 30.632812 67.886719 " fill-opacity="1" fill-rule="nonzero"/><g fill="#ce994a" fill-opacity="1"><g transform="translate(48.424532, 17.318904)"><g><path d="M 1.25 -8 L 1.25 -8.453125 L 8.828125 -8.453125 L 8.828125 -8 Z M 1.25 -8 "/></g></g></g><g fill="#ce994a" fill-opacity="1"><g transform="translate(58.506473, 17.318904)"><g><path d="M 5.984375 -1.5625 C 5.660156 -0.925781 5.210938 -0.445312 4.640625 -0.125 C 4.078125 0.195312 3.5 0.359375 2.90625 0.359375 C 2.34375 0.359375 1.8125 0.21875 1.3125 -0.0625 C 0.8125 -0.351562 0.425781 -0.789062 0.15625 -1.375 C -0.101562 -1.96875 -0.164062 -2.703125 -0.03125 -3.578125 C 0.0820312 -4.359375 0.375 -5.03125 0.84375 -5.59375 C 1.320312 -6.164062 1.898438 -6.609375 2.578125 -6.921875 C 3.253906 -7.234375 3.941406 -7.390625 4.640625 -7.390625 C 5.066406 -7.390625 5.484375 -7.328125 5.890625 -7.203125 C 6.296875 -7.078125 6.671875 -6.878906 7.015625 -6.609375 C 7.171875 -6.929688 7.285156 -7.328125 7.359375 -7.796875 C 7.441406 -8.265625 7.398438 -8.765625 7.234375 -9.296875 C 7.109375 -9.734375 6.90625 -10.066406 6.625 -10.296875 C 6.34375 -10.535156 6.078125 -10.65625 5.828125 -10.65625 C 5.640625 -10.65625 5.476562 -10.59375 5.34375 -10.46875 C 5.21875 -10.351562 5.144531 -10.164062 5.125 -9.90625 C 5.082031 -9.320312 4.953125 -8.867188 4.734375 -8.546875 C 4.515625 -8.234375 4.253906 -8.007812 3.953125 -7.875 C 3.660156 -7.738281 3.375 -7.65625 3.09375 -7.625 C 2.5625 -7.5625 2.140625 -7.644531 1.828125 -7.875 C 1.515625 -8.101562 1.351562 -8.394531 1.34375 -8.75 C 1.34375 -9.101562 1.53125 -9.441406 1.90625 -9.765625 C 2.4375 -10.242188 3.046875 -10.601562 3.734375 -10.84375 C 4.429688 -11.09375 5.125 -11.21875 5.8125 -11.21875 C 6.40625 -11.21875 6.96875 -11.117188 7.5 -10.921875 C 8.03125 -10.734375 8.492188 -10.441406 8.890625 -10.046875 C 9.285156 -9.660156 9.570312 -9.164062 9.75 -8.5625 C 9.925781 -7.957031 9.945312 -7.242188 9.8125 -6.421875 C 9.738281 -5.847656 9.675781 -5.25 9.625 -4.625 C 9.570312 -4 9.613281 -3.304688 9.75 -2.546875 C 9.894531 -1.785156 10.21875 -0.9375 10.71875 0 L 6.140625 0 C 6.054688 -0.269531 6.003906 -0.535156 5.984375 -0.796875 C 5.972656 -1.054688 5.972656 -1.3125 5.984375 -1.5625 Z M 3.515625 -4.0625 C 3.367188 -3.457031 3.320312 -2.929688 3.375 -2.484375 C 3.425781 -2.035156 3.550781 -1.6875 3.75 -1.4375 C 3.945312 -1.195312 4.175781 -1.078125 4.4375 -1.078125 C 4.695312 -1.078125 4.972656 -1.222656 5.265625 -1.515625 C 5.554688 -1.816406 5.816406 -2.285156 6.046875 -2.921875 C 6.285156 -3.566406 6.453125 -4.398438 6.546875 -5.421875 C 6.546875 -5.828125 6.460938 -6.125 6.296875 -6.3125 C 6.128906 -6.5 5.929688 -6.59375 5.703125 -6.59375 C 5.328125 -6.59375 4.914062 -6.375 4.46875 -5.9375 C 4.03125 -5.5 3.710938 -4.875 3.515625 -4.0625 Z M 3.515625 -4.0625 "/></g></g></g><g fill="#ce994a" fill-opacity="1"><g transform="translate(69.547769, 17.318904)"><g><path d="M 0.484375 0 C 0.691406 -0.84375 0.859375 -1.785156 0.984375 -2.828125 C 1.109375 -3.867188 1.191406 -4.953125 1.234375 -6.078125 C 1.273438 -7.203125 1.273438 -8.320312 1.234375 -9.4375 C 1.191406 -10.5625 1.109375 -11.644531 0.984375 -12.6875 C 0.859375 -13.726562 0.691406 -14.671875 0.484375 -15.515625 L 5.078125 -15.515625 C 4.867188 -14.671875 4.695312 -13.726562 4.5625 -12.6875 C 4.4375 -11.644531 4.351562 -10.5625 4.3125 -9.4375 C 4.269531 -8.320312 4.269531 -7.203125 4.3125 -6.078125 C 4.351562 -4.953125 4.4375 -3.875 4.5625 -2.84375 C 4.695312 -1.8125 4.867188 -0.863281 5.078125 0 Z M 0.484375 0 "/></g></g></g><g fill="#ce994a" fill-opacity="1"><g transform="translate(75.094581, 17.318904)"><g><path d="M 0.484375 0 C 0.691406 -0.84375 0.859375 -1.785156 0.984375 -2.828125 C 1.109375 -3.867188 1.191406 -4.953125 1.234375 -6.078125 C 1.273438 -7.203125 1.273438 -8.320312 1.234375 -9.4375 C 1.191406 -10.5625 1.109375 -11.644531 0.984375 -12.6875 C 0.859375 -13.726562 0.691406 -14.671875 0.484375 -15.515625 L 5.078125 -15.515625 C 4.867188 -14.671875 4.695312 -13.726562 4.5625 -12.6875 C 4.4375 -11.644531 4.351562 -10.5625 4.3125 -9.4375 C 4.269531 -8.320312 4.269531 -7.203125 4.3125 -6.078125 C 4.351562 -4.953125 4.4375 -3.875 4.5625 -2.84375 C 4.695312 -1.8125 4.867188 -0.863281 5.078125 0 Z M 0.484375 0 "/></g></g></g><g fill="#ce994a" fill-opacity="1"><g transform="translate(80.641393, 17.318904)"><g/></g></g><g fill="#f1ede4" fill-opacity="1"><g transform="translate(85.178646, 17.318904)"><g><path d="M 6.625 -1.8125 C 6.195312 -1.082031 5.644531 -0.53125 4.96875 -0.15625 C 4.300781 0.207031 3.65625 0.390625 3.03125 0.390625 C 2.488281 0.390625 2.003906 0.253906 1.578125 -0.015625 C 1.148438 -0.296875 0.859375 -0.707031 0.703125 -1.25 C 0.554688 -1.800781 0.617188 -2.484375 0.890625 -3.296875 C 1.160156 -4.117188 1.335938 -4.894531 1.421875 -5.625 C 1.515625 -6.363281 1.550781 -7.070312 1.53125 -7.75 C 1.5 -8.644531 1.332031 -9.269531 1.03125 -9.625 C 0.738281 -9.988281 0.34375 -10.21875 -0.15625 -10.3125 L -0.03125 -10.828125 C 0.195312 -10.828125 0.5 -10.847656 0.875 -10.890625 C 1.25 -10.941406 1.644531 -11.035156 2.0625 -11.171875 C 2.488281 -11.304688 2.90625 -11.5 3.3125 -11.75 C 3.726562 -12 4.097656 -12.320312 4.421875 -12.71875 C 4.753906 -13.125 5 -13.617188 5.15625 -14.203125 L 5.6875 -14.203125 C 5.539062 -13.628906 5.421875 -13.0625 5.328125 -12.5 C 5.234375 -11.9375 5.15625 -11.378906 5.09375 -10.828125 L 6.765625 -10.828125 L 6.859375 -10.3125 L 5.046875 -10.3125 C 4.960938 -9.394531 4.929688 -8.484375 4.953125 -7.578125 C 4.972656 -6.671875 5.050781 -5.78125 5.1875 -4.90625 C 4.875 -4.851562 4.507812 -4.734375 4.09375 -4.546875 C 3.675781 -4.359375 3.265625 -4.125 2.859375 -3.84375 C 2.453125 -3.570312 2.101562 -3.265625 1.8125 -2.921875 C 1.53125 -2.578125 1.367188 -2.21875 1.328125 -1.84375 C 1.285156 -1.476562 1.425781 -1.109375 1.75 -0.734375 C 1.90625 -0.546875 2.09375 -0.394531 2.3125 -0.28125 C 2.539062 -0.175781 2.765625 -0.125 2.984375 -0.125 C 3.203125 -0.125 3.398438 -0.175781 3.578125 -0.28125 C 3.890625 -0.476562 4.0625 -0.769531 4.09375 -1.15625 C 4.132812 -1.539062 4.066406 -1.929688 3.890625 -2.328125 C 3.722656 -2.734375 3.476562 -3.054688 3.15625 -3.296875 C 3.613281 -3.660156 4.035156 -3.921875 4.421875 -4.078125 C 4.816406 -4.234375 5.179688 -4.3125 5.515625 -4.3125 C 5.941406 -4.3125 6.28125 -4.191406 6.53125 -3.953125 C 6.789062 -3.710938 6.9375 -3.398438 6.96875 -3.015625 C 7 -2.640625 6.882812 -2.238281 6.625 -1.8125 Z M 6.625 -1.8125 "/></g></g></g><g fill="#f1ede4" fill-opacity="1"><g transform="translate(92.434853, 17.318904)"><g><path d="M 5.984375 -1.5625 C 5.660156 -0.925781 5.210938 -0.445312 4.640625 -0.125 C 4.078125 0.195312 3.5 0.359375 2.90625 0.359375 C 2.34375 0.359375 1.8125 0.21875 1.3125 -0.0625 C 0.8125 -0.351562 0.425781 -0.789062 0.15625 -1.375 C -0.101562 -1.96875 -0.164062 -2.703125 -0.03125 -3.578125 C 0.0820312 -4.359375 0.375 -5.03125 0.84375 -5.59375 C 1.320312 -6.164062 1.898438 -6.609375 2.578125 -6.921875 C 3.253906 -7.234375 3.941406 -7.390625 4.640625 -7.390625 C 5.066406 -7.390625 5.484375 -7.328125 5.890625 -7.203125 C 6.296875 -7.078125 6.671875 -6.878906 7.015625 -6.609375 C 7.171875 -6.929688 7.285156 -7.328125 7.359375 -7.796875 C 7.441406 -8.265625 7.398438 -8.765625 7.234375 -9.296875 C 7.109375 -9.734375 6.90625 -10.066406 6.625 -10.296875 C 6.34375 -10.535156 6.078125 -10.65625 5.828125 -10.65625 C 5.640625 -10.65625 5.476562 -10.59375 5.34375 -10.46875 C 5.21875 -10.351562 5.144531 -10.164062 5.125 -9.90625 C 5.082031 -9.320312 4.953125 -8.867188 4.734375 -8.546875 C 4.515625 -8.234375 4.253906 -8.007812 3.953125 -7.875 C 3.660156 -7.738281 3.375 -7.65625 3.09375 -7.625 C 2.5625 -7.5625 2.140625 -7.644531 1.828125 -7.875 C 1.515625 -8.101562 1.351562 -8.394531 1.34375 -8.75 C 1.34375 -9.101562 1.53125 -9.441406 1.90625 -9.765625 C 2.4375 -10.242188 3.046875 -10.601562 3.734375 -10.84375 C 4.429688 -11.09375 5.125 -11.21875 5.8125 -11.21875 C 6.40625 -11.21875 6.96875 -11.117188 7.5 -10.921875 C 8.03125 -10.734375 8.492188 -10.441406 8.890625 -10.046875 C 9.285156 -9.660156 9.570312 -9.164062 9.75 -8.5625 C 9.925781 -7.957031 9.945312 -7.242188 9.8125 -6.421875 C 9.738281 -5.847656 9.675781 -5.25 9.625 -4.625 C 9.570312 -4 9.613281 -3.304688 9.75 -2.546875 C 9.894531 -1.785156 10.21875 -0.9375 10.71875 0 L 6.140625 0 C 6.054688 -0.269531 6.003906 -0.535156 5.984375 -0.796875 C 5.972656 -1.054688 5.972656 -1.3125 5.984375 -1.5625 Z M 3.515625 -4.0625 C 3.367188 -3.457031 3.320312 -2.929688 3.375 -2.484375 C 3.425781 -2.035156 3.550781 -1.6875 3.75 -1.4375 C 3.945312 -1.195312 4.175781 -1.078125 4.4375 -1.078125 C 4.695312 -1.078125 4.972656 -1.222656 5.265625 -1.515625 C 5.554688 -1.816406 5.816406 -2.285156 6.046875 -2.921875 C 6.285156 -3.566406 6.453125 -4.398438 6.546875 -5.421875 C 6.546875 -5.828125 6.460938 -6.125 6.296875 -6.3125 C 6.128906 -6.5 5.929688 -6.59375 5.703125 -6.59375 C 5.328125 -6.59375 4.914062 -6.375 4.46875 -5.9375 C 4.03125 -5.5 3.710938 -4.875 3.515625 -4.0625 Z M 3.515625 -4.0625 "/></g></g></g><g fill="#f1ede4" fill-opacity="1"><g transform="translate(102.778357, 17.318904)"><g><path d="M 5.75 0.34375 C 4.90625 0.34375 4.148438 0.195312 3.484375 -0.09375 C 2.816406 -0.394531 2.242188 -0.800781 1.765625 -1.3125 C 1.296875 -1.820312 0.941406 -2.398438 0.703125 -3.046875 C 0.460938 -3.703125 0.34375 -4.390625 0.34375 -5.109375 C 0.351562 -6.203125 0.53125 -7.132812 0.875 -7.90625 C 1.21875 -8.675781 1.671875 -9.300781 2.234375 -9.78125 C 2.804688 -10.269531 3.425781 -10.625 4.09375 -10.84375 C 4.769531 -11.0625 5.441406 -11.171875 6.109375 -11.171875 C 6.734375 -11.171875 7.316406 -11.082031 7.859375 -10.90625 C 8.410156 -10.738281 8.878906 -10.5 9.265625 -10.1875 C 9.660156 -9.882812 9.914062 -9.519531 10.03125 -9.09375 C 10.113281 -8.820312 10.113281 -8.546875 10.03125 -8.265625 C 9.945312 -7.992188 9.789062 -7.742188 9.5625 -7.515625 C 9.332031 -7.304688 9.070312 -7.148438 8.78125 -7.046875 C 8.488281 -6.953125 8.210938 -6.890625 7.953125 -6.859375 C 7.429688 -6.796875 7.003906 -6.863281 6.671875 -7.0625 C 6.347656 -7.269531 6.175781 -7.539062 6.15625 -7.875 C 6.144531 -8.21875 6.328125 -8.550781 6.703125 -8.875 C 6.773438 -8.945312 6.851562 -9.066406 6.9375 -9.234375 C 7.03125 -9.398438 7.097656 -9.578125 7.140625 -9.765625 C 7.179688 -9.960938 7.171875 -10.140625 7.109375 -10.296875 C 7.054688 -10.453125 6.929688 -10.5625 6.734375 -10.625 C 6.378906 -10.71875 6.015625 -10.617188 5.640625 -10.328125 C 5.273438 -10.046875 4.941406 -9.644531 4.640625 -9.125 C 4.335938 -8.613281 4.097656 -8.050781 3.921875 -7.4375 C 3.828125 -7.070312 3.742188 -6.613281 3.671875 -6.0625 C 3.609375 -5.507812 3.585938 -4.925781 3.609375 -4.3125 C 3.628906 -3.695312 3.722656 -3.097656 3.890625 -2.515625 C 4.066406 -1.941406 4.34375 -1.441406 4.71875 -1.015625 C 4.988281 -0.722656 5.273438 -0.507812 5.578125 -0.375 C 5.878906 -0.238281 6.171875 -0.191406 6.453125 -0.234375 C 6.765625 -0.265625 6.96875 -0.398438 7.0625 -0.640625 C 7.15625 -0.890625 7.160156 -1.179688 7.078125 -1.515625 C 7.003906 -1.847656 6.875 -2.175781 6.6875 -2.5 C 6.5 -2.820312 6.28125 -3.070312 6.03125 -3.25 C 6.488281 -3.601562 6.914062 -3.859375 7.3125 -4.015625 C 7.707031 -4.171875 8.066406 -4.25 8.390625 -4.25 C 8.816406 -4.25 9.15625 -4.132812 9.40625 -3.90625 C 9.664062 -3.675781 9.8125 -3.367188 9.84375 -2.984375 C 9.882812 -2.609375 9.773438 -2.203125 9.515625 -1.765625 C 9.128906 -1.097656 8.59375 -0.578125 7.90625 -0.203125 C 7.226562 0.160156 6.507812 0.34375 5.75 0.34375 Z M 5.75 0.34375 "/></g></g></g><g fill="#f1ede4" fill-opacity="1"><g transform="translate(113.139383, 17.318904)"><g><path d="M 5.453125 0.34375 C 4.347656 0.34375 3.414062 0.0859375 2.65625 -0.421875 C 1.894531 -0.929688 1.316406 -1.617188 0.921875 -2.484375 C 0.535156 -3.347656 0.34375 -4.320312 0.34375 -5.40625 C 0.34375 -6.488281 0.535156 -7.460938 0.921875 -8.328125 C 1.316406 -9.191406 1.894531 -9.875 2.65625 -10.375 C 3.414062 -10.882812 4.347656 -11.140625 5.453125 -11.140625 C 6.554688 -11.140625 7.492188 -10.882812 8.265625 -10.375 C 9.035156 -9.875 9.617188 -9.191406 10.015625 -8.328125 C 10.410156 -7.460938 10.609375 -6.488281 10.609375 -5.40625 C 10.609375 -4.320312 10.410156 -3.347656 10.015625 -2.484375 C 9.617188 -1.617188 9.035156 -0.929688 8.265625 -0.421875 C 7.492188 0.0859375 6.554688 0.34375 5.453125 0.34375 Z M 6.34375 -10.484375 C 5.957031 -10.429688 5.597656 -10.203125 5.265625 -9.796875 C 4.929688 -9.398438 4.632812 -8.890625 4.375 -8.265625 C 4.125 -7.648438 3.910156 -6.972656 3.734375 -6.234375 C 3.566406 -5.503906 3.453125 -4.78125 3.390625 -4.0625 C 3.335938 -3.351562 3.34375 -2.703125 3.40625 -2.109375 C 3.46875 -1.523438 3.601562 -1.066406 3.8125 -0.734375 C 4.03125 -0.398438 4.320312 -0.253906 4.6875 -0.296875 C 5.0625 -0.335938 5.398438 -0.554688 5.703125 -0.953125 C 6.015625 -1.347656 6.289062 -1.859375 6.53125 -2.484375 C 6.769531 -3.109375 6.96875 -3.78125 7.125 -4.5 C 7.28125 -5.226562 7.382812 -5.953125 7.4375 -6.671875 C 7.5 -7.398438 7.5 -8.054688 7.4375 -8.640625 C 7.382812 -9.222656 7.265625 -9.679688 7.078125 -10.015625 C 6.898438 -10.359375 6.65625 -10.515625 6.34375 -10.484375 Z M 6.34375 -10.484375 "/></g></g></g><g fill="#f1ede4" fill-opacity="1"><g transform="translate(124.093465, 17.318904)"><g><path d="M 0.640625 -1.765625 C 0.398438 -2.203125 0.289062 -2.609375 0.3125 -2.984375 C 0.34375 -3.367188 0.488281 -3.675781 0.75 -3.90625 C 1.007812 -4.132812 1.351562 -4.25 1.78125 -4.25 C 2.101562 -4.25 2.460938 -4.171875 2.859375 -4.015625 C 3.253906 -3.859375 3.679688 -3.601562 4.140625 -3.25 C 3.804688 -3.007812 3.585938 -2.726562 3.484375 -2.40625 C 3.390625 -2.09375 3.398438 -1.78125 3.515625 -1.46875 C 3.640625 -1.164062 3.847656 -0.890625 4.140625 -0.640625 C 4.492188 -0.347656 4.867188 -0.203125 5.265625 -0.203125 C 5.628906 -0.203125 5.957031 -0.304688 6.25 -0.515625 C 6.550781 -0.734375 6.765625 -1.007812 6.890625 -1.34375 C 7.015625 -1.675781 7.015625 -2.03125 6.890625 -2.40625 C 6.765625 -2.789062 6.460938 -3.144531 5.984375 -3.46875 C 5.585938 -3.75 5.117188 -4.007812 4.578125 -4.25 C 4.035156 -4.488281 3.507812 -4.742188 3 -5.015625 C 2.320312 -5.390625 1.804688 -5.835938 1.453125 -6.359375 C 1.097656 -6.890625 0.914062 -7.429688 0.90625 -7.984375 C 0.894531 -8.535156 1.070312 -9.050781 1.4375 -9.53125 C 1.8125 -10.007812 2.382812 -10.398438 3.15625 -10.703125 C 3.59375 -10.867188 4.054688 -10.992188 4.546875 -11.078125 C 5.046875 -11.171875 5.539062 -11.21875 6.03125 -11.21875 C 6.644531 -11.21875 7.222656 -11.148438 7.765625 -11.015625 C 8.316406 -10.878906 8.769531 -10.679688 9.125 -10.421875 C 9.476562 -10.171875 9.6875 -9.847656 9.75 -9.453125 C 9.820312 -9.015625 9.679688 -8.585938 9.328125 -8.171875 C 8.984375 -7.765625 8.429688 -7.519531 7.671875 -7.4375 C 7.148438 -7.375 6.722656 -7.445312 6.390625 -7.65625 C 6.066406 -7.863281 5.894531 -8.132812 5.875 -8.46875 C 5.863281 -8.8125 6.046875 -9.140625 6.421875 -9.453125 C 6.578125 -9.585938 6.660156 -9.75 6.671875 -9.9375 C 6.679688 -10.125 6.585938 -10.289062 6.390625 -10.4375 C 6.203125 -10.59375 5.890625 -10.671875 5.453125 -10.671875 C 5.304688 -10.671875 5.117188 -10.59375 4.890625 -10.4375 C 4.660156 -10.289062 4.445312 -10.09375 4.25 -9.84375 C 4.0625 -9.601562 3.929688 -9.34375 3.859375 -9.0625 C 3.796875 -8.789062 3.835938 -8.519531 3.984375 -8.25 C 4.128906 -7.976562 4.429688 -7.75 4.890625 -7.5625 C 5.304688 -7.394531 5.753906 -7.222656 6.234375 -7.046875 C 6.710938 -6.878906 7.191406 -6.691406 7.671875 -6.484375 C 8.148438 -6.285156 8.582031 -6.039062 8.96875 -5.75 C 9.363281 -5.457031 9.675781 -5.101562 9.90625 -4.6875 C 10.144531 -4.28125 10.265625 -3.785156 10.265625 -3.203125 C 10.265625 -2.554688 10.078125 -1.976562 9.703125 -1.46875 C 9.328125 -0.957031 8.851562 -0.554688 8.28125 -0.265625 C 7.882812 -0.0664062 7.4375 0.0820312 6.9375 0.1875 C 6.4375 0.289062 5.921875 0.34375 5.390625 0.34375 C 4.753906 0.34375 4.125 0.265625 3.5 0.109375 C 2.875 -0.0351562 2.3125 -0.265625 1.8125 -0.578125 C 1.3125 -0.890625 0.921875 -1.285156 0.640625 -1.765625 Z M 0.640625 -1.765625 "/></g></g></g><g fill="#f1ede4" fill-opacity="1"><g transform="translate(134.681248, 17.318904)"><g/></g></g><g clip-path="url(#b2d234010c)"><g fill="#f1ede4" fill-opacity="1"><g transform="translate(139.216377, 17.318904)"><g><path d="M 0.34375 -11.6875 C 0.34375 -12.375 0.519531 -12.972656 0.875 -13.484375 C 1.226562 -14.003906 1.703125 -14.4375 2.296875 -14.78125 C 2.890625 -15.132812 3.546875 -15.398438 4.265625 -15.578125 C 4.992188 -15.765625 5.722656 -15.859375 6.453125 -15.859375 L 6.453125 -18.171875 L 6.96875 -18.171875 L 6.96875 -15.859375 C 7.695312 -15.804688 8.382812 -15.703125 9.03125 -15.546875 C 9.6875 -15.398438 10.28125 -15.3125 10.8125 -15.28125 C 11.070312 -15.269531 11.320312 -15.273438 11.5625 -15.296875 C 11.800781 -15.328125 12.050781 -15.398438 12.3125 -15.515625 C 12.175781 -14.898438 12.039062 -14.160156 11.90625 -13.296875 C 11.769531 -12.429688 11.664062 -11.394531 11.59375 -10.1875 C 11.226562 -11.414062 10.785156 -12.398438 10.265625 -13.140625 C 9.753906 -13.890625 9.210938 -14.429688 8.640625 -14.765625 C 8.078125 -15.109375 7.519531 -15.289062 6.96875 -15.3125 L 6.96875 -10.046875 C 7.539062 -9.785156 8.125 -9.53125 8.71875 -9.28125 C 9.320312 -9.03125 9.898438 -8.757812 10.453125 -8.46875 C 11.003906 -8.1875 11.503906 -7.859375 11.953125 -7.484375 C 12.398438 -7.117188 12.753906 -6.707031 13.015625 -6.25 C 13.273438 -5.789062 13.40625 -5.257812 13.40625 -4.65625 C 13.40625 -3.738281 13.140625 -2.921875 12.609375 -2.203125 C 12.078125 -1.492188 11.410156 -0.929688 10.609375 -0.515625 C 10.109375 -0.265625 9.539062 -0.0664062 8.90625 0.078125 C 8.28125 0.222656 7.632812 0.304688 6.96875 0.328125 L 6.96875 2.65625 L 6.453125 2.65625 L 6.453125 0.34375 C 5.921875 0.332031 5.367188 0.285156 4.796875 0.203125 C 4.234375 0.128906 3.695312 0.046875 3.1875 -0.046875 C 2.6875 -0.148438 2.238281 -0.21875 1.84375 -0.25 C 1.601562 -0.269531 1.359375 -0.257812 1.109375 -0.21875 C 0.859375 -0.1875 0.601562 -0.113281 0.34375 0 C 0.488281 -0.613281 0.625 -1.359375 0.75 -2.234375 C 0.882812 -3.109375 0.992188 -4.144531 1.078125 -5.34375 C 1.367188 -4.394531 1.734375 -3.59375 2.171875 -2.9375 C 2.609375 -2.289062 3.078125 -1.765625 3.578125 -1.359375 C 4.078125 -0.960938 4.578125 -0.671875 5.078125 -0.484375 C 5.578125 -0.296875 6.035156 -0.195312 6.453125 -0.1875 L 6.453125 -5.9375 C 6.222656 -6.0625 5.992188 -6.175781 5.765625 -6.28125 C 5.546875 -6.382812 5.351562 -6.476562 5.1875 -6.5625 C 4.59375 -6.832031 4.007812 -7.132812 3.4375 -7.46875 C 2.863281 -7.800781 2.34375 -8.164062 1.875 -8.5625 C 1.414062 -8.96875 1.046875 -9.425781 0.765625 -9.9375 C 0.484375 -10.445312 0.34375 -11.03125 0.34375 -11.6875 Z M 6.96875 -5.65625 L 6.96875 -0.203125 C 7.53125 -0.296875 8.007812 -0.515625 8.40625 -0.859375 C 8.800781 -1.210938 9.066406 -1.632812 9.203125 -2.125 C 9.347656 -2.613281 9.316406 -3.125 9.109375 -3.65625 C 8.898438 -4.1875 8.46875 -4.675781 7.8125 -5.125 C 7.53125 -5.320312 7.25 -5.5 6.96875 -5.65625 Z M 6.453125 -15.28125 C 6.117188 -15.207031 5.789062 -15.046875 5.46875 -14.796875 C 5.144531 -14.546875 4.882812 -14.242188 4.6875 -13.890625 C 4.488281 -13.535156 4.398438 -13.148438 4.421875 -12.734375 C 4.441406 -12.316406 4.609375 -11.894531 4.921875 -11.46875 C 5.234375 -11.050781 5.742188 -10.660156 6.453125 -10.296875 Z M 6.453125 -15.28125 "/></g></g></g></g><g fill="#f1ede4" fill-opacity="1"><g transform="translate(152.629894, 17.318904)"><g><path d="M 0.34375 -12.515625 L 6.25 -15.875 L 6.25 -4.6875 C 6.25 -3.789062 6.296875 -3.066406 6.390625 -2.515625 C 6.492188 -1.960938 6.644531 -1.5 6.84375 -1.125 C 7.039062 -0.75 7.273438 -0.375 7.546875 0 L 1.140625 0 C 1.421875 -0.375 1.65625 -0.75 1.84375 -1.125 C 2.039062 -1.5 2.191406 -1.960938 2.296875 -2.515625 C 2.398438 -3.066406 2.453125 -3.789062 2.453125 -4.6875 L 2.453125 -10.921875 C 2.453125 -11.316406 2.335938 -11.628906 2.109375 -11.859375 C 1.890625 -12.085938 1.613281 -12.253906 1.28125 -12.359375 C 0.957031 -12.460938 0.644531 -12.515625 0.34375 -12.515625 Z M 0.34375 -12.515625 "/></g></g></g><g fill="#f1ede4" fill-opacity="1"><g transform="translate(160.339556, 17.318904)"><g><path d="M 1.03125 0 C 1.03125 -1.09375 1.1875 -2.039062 1.5 -2.84375 C 1.820312 -3.644531 2.242188 -4.347656 2.765625 -4.953125 C 3.296875 -5.554688 3.875 -6.097656 4.5 -6.578125 C 5.125 -7.066406 5.75 -7.535156 6.375 -7.984375 C 7.007812 -8.429688 7.585938 -8.894531 8.109375 -9.375 C 8.628906 -9.851562 9.046875 -10.394531 9.359375 -11 C 9.679688 -11.613281 9.84375 -12.335938 9.84375 -13.171875 C 9.84375 -13.660156 9.710938 -14.0625 9.453125 -14.375 C 9.191406 -14.695312 8.867188 -14.941406 8.484375 -15.109375 C 8.097656 -15.273438 7.691406 -15.363281 7.265625 -15.375 C 6.878906 -15.394531 6.5 -15.34375 6.125 -15.21875 C 5.757812 -15.101562 5.460938 -14.929688 5.234375 -14.703125 C 5.003906 -14.484375 4.890625 -14.203125 4.890625 -13.859375 C 4.890625 -13.359375 5.039062 -12.945312 5.34375 -12.625 C 5.65625 -12.300781 6.019531 -12.0625 6.4375 -11.90625 C 6.289062 -11.15625 5.972656 -10.59375 5.484375 -10.21875 C 4.992188 -9.851562 4.46875 -9.671875 3.90625 -9.671875 C 3.5 -9.671875 3.101562 -9.765625 2.71875 -9.953125 C 2.34375 -10.148438 2.035156 -10.4375 1.796875 -10.8125 C 1.566406 -11.195312 1.453125 -11.65625 1.453125 -12.1875 C 1.460938 -12.769531 1.628906 -13.285156 1.953125 -13.734375 C 2.285156 -14.191406 2.734375 -14.578125 3.296875 -14.890625 C 3.859375 -15.203125 4.484375 -15.441406 5.171875 -15.609375 C 5.867188 -15.785156 6.585938 -15.875 7.328125 -15.875 C 8.054688 -15.875 8.769531 -15.78125 9.46875 -15.59375 C 10.164062 -15.414062 10.796875 -15.140625 11.359375 -14.765625 C 11.921875 -14.390625 12.367188 -13.90625 12.703125 -13.3125 C 13.035156 -12.726562 13.203125 -12.03125 13.203125 -11.21875 C 13.203125 -10.425781 13.003906 -9.726562 12.609375 -9.125 C 12.222656 -8.53125 11.707031 -8.003906 11.0625 -7.546875 C 10.414062 -7.085938 9.707031 -6.679688 8.9375 -6.328125 C 8.164062 -5.984375 7.382812 -5.660156 6.59375 -5.359375 C 5.8125 -5.054688 5.085938 -4.757812 4.421875 -4.46875 C 3.753906 -4.175781 3.203125 -3.863281 2.765625 -3.53125 C 2.335938 -3.207031 2.097656 -2.84375 2.046875 -2.4375 C 3.578125 -2.4375 4.910156 -2.453125 6.046875 -2.484375 C 7.179688 -2.515625 8.15625 -2.585938 8.96875 -2.703125 C 9.78125 -2.816406 10.472656 -3 11.046875 -3.25 C 11.617188 -3.5 12.117188 -3.847656 12.546875 -4.296875 C 12.585938 -3.890625 12.632812 -3.429688 12.6875 -2.921875 C 12.738281 -2.410156 12.796875 -1.898438 12.859375 -1.390625 C 12.929688 -0.890625 13.015625 -0.425781 13.109375 0 Z M 1.03125 0 "/></g></g></g><g fill="#ce994a" fill-opacity="1"><g transform="translate(174.57627, 17.318904)"><g/></g></g><g fill="#ce994a" fill-opacity="1"><g transform="translate(179.111399, 17.318904)"><g><path d="M 0.34375 -5.0625 C 0.34375 -5.914062 0.484375 -6.710938 0.765625 -7.453125 C 1.054688 -8.191406 1.457031 -8.835938 1.96875 -9.390625 C 2.488281 -9.953125 3.097656 -10.390625 3.796875 -10.703125 C 4.503906 -11.015625 5.28125 -11.171875 6.125 -11.171875 C 6.539062 -11.171875 6.972656 -11.125 7.421875 -11.03125 C 7.867188 -10.9375 8.28125 -10.78125 8.65625 -10.5625 C 9.03125 -10.351562 9.335938 -10.078125 9.578125 -9.734375 C 9.828125 -9.390625 9.96875 -8.96875 10 -8.46875 C 10.019531 -7.90625 9.882812 -7.382812 9.59375 -6.90625 C 9.3125 -6.4375 8.925781 -6.019531 8.4375 -5.65625 C 7.945312 -5.300781 7.414062 -5 6.84375 -4.75 C 6.269531 -4.507812 5.703125 -4.328125 5.140625 -4.203125 C 4.578125 -4.085938 4.070312 -4.03125 3.625 -4.03125 C 3.664062 -3.382812 3.796875 -2.765625 4.015625 -2.171875 C 4.242188 -1.585938 4.5625 -1.109375 4.96875 -0.734375 C 5.375 -0.359375 5.867188 -0.191406 6.453125 -0.234375 C 6.765625 -0.253906 6.96875 -0.382812 7.0625 -0.625 C 7.15625 -0.863281 7.160156 -1.148438 7.078125 -1.484375 C 7.003906 -1.828125 6.875 -2.160156 6.6875 -2.484375 C 6.5 -2.816406 6.28125 -3.070312 6.03125 -3.25 C 6.488281 -3.601562 6.914062 -3.859375 7.3125 -4.015625 C 7.707031 -4.171875 8.066406 -4.25 8.390625 -4.25 C 8.816406 -4.25 9.15625 -4.132812 9.40625 -3.90625 C 9.664062 -3.675781 9.8125 -3.367188 9.84375 -2.984375 C 9.882812 -2.609375 9.773438 -2.203125 9.515625 -1.765625 C 9.128906 -1.097656 8.59375 -0.578125 7.90625 -0.203125 C 7.226562 0.160156 6.507812 0.34375 5.75 0.34375 C 4.90625 0.34375 4.148438 0.203125 3.484375 -0.078125 C 2.816406 -0.367188 2.25 -0.769531 1.78125 -1.28125 C 1.3125 -1.789062 0.953125 -2.367188 0.703125 -3.015625 C 0.460938 -3.671875 0.34375 -4.351562 0.34375 -5.0625 Z M 3.921875 -7.4375 C 3.835938 -7.101562 3.765625 -6.675781 3.703125 -6.15625 C 3.640625 -5.644531 3.609375 -5.101562 3.609375 -4.53125 C 4.179688 -4.570312 4.695312 -4.769531 5.15625 -5.125 C 5.613281 -5.488281 6 -5.9375 6.3125 -6.46875 C 6.625 -7 6.835938 -7.539062 6.953125 -8.09375 C 7.148438 -8.988281 7.175781 -9.640625 7.03125 -10.046875 C 6.882812 -10.460938 6.660156 -10.671875 6.359375 -10.671875 C 6.109375 -10.671875 5.828125 -10.539062 5.515625 -10.28125 C 5.210938 -10.019531 4.914062 -9.644531 4.625 -9.15625 C 4.34375 -8.675781 4.109375 -8.101562 3.921875 -7.4375 Z M 3.921875 -7.4375 "/></g></g></g><g fill="#ce994a" fill-opacity="1"><g transform="translate(189.420097, 17.318904)"><g><path d="M 5.984375 -1.5625 C 5.660156 -0.925781 5.210938 -0.445312 4.640625 -0.125 C 4.078125 0.195312 3.5 0.359375 2.90625 0.359375 C 2.34375 0.359375 1.8125 0.21875 1.3125 -0.0625 C 0.8125 -0.351562 0.425781 -0.789062 0.15625 -1.375 C -0.101562 -1.96875 -0.164062 -2.703125 -0.03125 -3.578125 C 0.0820312 -4.359375 0.375 -5.03125 0.84375 -5.59375 C 1.320312 -6.164062 1.898438 -6.609375 2.578125 -6.921875 C 3.253906 -7.234375 3.941406 -7.390625 4.640625 -7.390625 C 5.066406 -7.390625 5.484375 -7.328125 5.890625 -7.203125 C 6.296875 -7.078125 6.671875 -6.878906 7.015625 -6.609375 C 7.171875 -6.929688 7.285156 -7.328125 7.359375 -7.796875 C 7.441406 -8.265625 7.398438 -8.765625 7.234375 -9.296875 C 7.109375 -9.734375 6.90625 -10.066406 6.625 -10.296875 C 6.34375 -10.535156 6.078125 -10.65625 5.828125 -10.65625 C 5.640625 -10.65625 5.476562 -10.59375 5.34375 -10.46875 C 5.21875 -10.351562 5.144531 -10.164062 5.125 -9.90625 C 5.082031 -9.320312 4.953125 -8.867188 4.734375 -8.546875 C 4.515625 -8.234375 4.253906 -8.007812 3.953125 -7.875 C 3.660156 -7.738281 3.375 -7.65625 3.09375 -7.625 C 2.5625 -7.5625 2.140625 -7.644531 1.828125 -7.875 C 1.515625 -8.101562 1.351562 -8.394531 1.34375 -8.75 C 1.34375 -9.101562 1.53125 -9.441406 1.90625 -9.765625 C 2.4375 -10.242188 3.046875 -10.601562 3.734375 -10.84375 C 4.429688 -11.09375 5.125 -11.21875 5.8125 -11.21875 C 6.40625 -11.21875 6.96875 -11.117188 7.5 -10.921875 C 8.03125 -10.734375 8.492188 -10.441406 8.890625 -10.046875 C 9.285156 -9.660156 9.570312 -9.164062 9.75 -8.5625 C 9.925781 -7.957031 9.945312 -7.242188 9.8125 -6.421875 C 9.738281 -5.847656 9.675781 -5.25 9.625 -4.625 C 9.570312 -4 9.613281 -3.304688 9.75 -2.546875 C 9.894531 -1.785156 10.21875 -0.9375 10.71875 0 L 6.140625 0 C 6.054688 -0.269531 6.003906 -0.535156 5.984375 -0.796875 C 5.972656 -1.054688 5.972656 -1.3125 5.984375 -1.5625 Z M 3.515625 -4.0625 C 3.367188 -3.457031 3.320312 -2.929688 3.375 -2.484375 C 3.425781 -2.035156 3.550781 -1.6875 3.75 -1.4375 C 3.945312 -1.195312 4.175781 -1.078125 4.4375 -1.078125 C 4.695312 -1.078125 4.972656 -1.222656 5.265625 -1.515625 C 5.554688 -1.816406 5.816406 -2.285156 6.046875 -2.921875 C 6.285156 -3.566406 6.453125 -4.398438 6.546875 -5.421875 C 6.546875 -5.828125 6.460938 -6.125 6.296875 -6.3125 C 6.128906 -6.5 5.929688 -6.59375 5.703125 -6.59375 C 5.328125 -6.59375 4.914062 -6.375 4.46875 -5.9375 C 4.03125 -5.5 3.710938 -4.875 3.515625 -4.0625 Z M 3.515625 -4.0625 "/></g></g></g><g fill="#ce994a" fill-opacity="1"><g transform="translate(199.763601, 17.318904)"><g><path d="M 5.75 0.34375 C 4.90625 0.34375 4.148438 0.195312 3.484375 -0.09375 C 2.816406 -0.394531 2.242188 -0.800781 1.765625 -1.3125 C 1.296875 -1.820312 0.941406 -2.398438 0.703125 -3.046875 C 0.460938 -3.703125 0.34375 -4.390625 0.34375 -5.109375 C 0.351562 -6.203125 0.53125 -7.132812 0.875 -7.90625 C 1.21875 -8.675781 1.671875 -9.300781 2.234375 -9.78125 C 2.804688 -10.269531 3.425781 -10.625 4.09375 -10.84375 C 4.769531 -11.0625 5.441406 -11.171875 6.109375 -11.171875 C 6.734375 -11.171875 7.316406 -11.082031 7.859375 -10.90625 C 8.410156 -10.738281 8.878906 -10.5 9.265625 -10.1875 C 9.660156 -9.882812 9.914062 -9.519531 10.03125 -9.09375 C 10.113281 -8.820312 10.113281 -8.546875 10.03125 -8.265625 C 9.945312 -7.992188 9.789062 -7.742188 9.5625 -7.515625 C 9.332031 -7.304688 9.070312 -7.148438 8.78125 -7.046875 C 8.488281 -6.953125 8.210938 -6.890625 7.953125 -6.859375 C 7.429688 -6.796875 7.003906 -6.863281 6.671875 -7.0625 C 6.347656 -7.269531 6.175781 -7.539062 6.15625 -7.875 C 6.144531 -8.21875 6.328125 -8.550781 6.703125 -8.875 C 6.773438 -8.945312 6.851562 -9.066406 6.9375 -9.234375 C 7.03125 -9.398438 7.097656 -9.578125 7.140625 -9.765625 C 7.179688 -9.960938 7.171875 -10.140625 7.109375 -10.296875 C 7.054688 -10.453125 6.929688 -10.5625 6.734375 -10.625 C 6.378906 -10.71875 6.015625 -10.617188 5.640625 -10.328125 C 5.273438 -10.046875 4.941406 -9.644531 4.640625 -9.125 C 4.335938 -8.613281 4.097656 -8.050781 3.921875 -7.4375 C 3.828125 -7.070312 3.742188 -6.613281 3.671875 -6.0625 C 3.609375 -5.507812 3.585938 -4.925781 3.609375 -4.3125 C 3.628906 -3.695312 3.722656 -3.097656 3.890625 -2.515625 C 4.066406 -1.941406 4.34375 -1.441406 4.71875 -1.015625 C 4.988281 -0.722656 5.273438 -0.507812 5.578125 -0.375 C 5.878906 -0.238281 6.171875 -0.191406 6.453125 -0.234375 C 6.765625 -0.265625 6.96875 -0.398438 7.0625 -0.640625 C 7.15625 -0.890625 7.160156 -1.179688 7.078125 -1.515625 C 7.003906 -1.847656 6.875 -2.175781 6.6875 -2.5 C 6.5 -2.820312 6.28125 -3.070312 6.03125 -3.25 C 6.488281 -3.601562 6.914062 -3.859375 7.3125 -4.015625 C 7.707031 -4.171875 8.066406 -4.25 8.390625 -4.25 C 8.816406 -4.25 9.15625 -4.132812 9.40625 -3.90625 C 9.664062 -3.675781 9.8125 -3.367188 9.84375 -2.984375 C 9.882812 -2.609375 9.773438 -2.203125 9.515625 -1.765625 C 9.128906 -1.097656 8.59375 -0.578125 7.90625 -0.203125 C 7.226562 0.160156 6.507812 0.34375 5.75 0.34375 Z M 5.75 0.34375 "/></g></g></g><g fill="#ce994a" fill-opacity="1"><g transform="translate(210.124627, 17.318904)"><g><path d="M 5.078125 0 L 0.484375 0 C 0.691406 -0.84375 0.859375 -1.785156 0.984375 -2.828125 C 1.109375 -3.867188 1.191406 -4.953125 1.234375 -6.078125 C 1.273438 -7.203125 1.273438 -8.320312 1.234375 -9.4375 C 1.191406 -10.5625 1.109375 -11.644531 0.984375 -12.6875 C 0.859375 -13.726562 0.691406 -14.671875 0.484375 -15.515625 L 5.078125 -15.515625 C 4.835938 -14.578125 4.65625 -13.519531 4.53125 -12.34375 C 4.40625 -11.175781 4.328125 -9.960938 4.296875 -8.703125 C 4.265625 -7.441406 4.289062 -6.203125 4.375 -4.984375 C 4.476562 -6.035156 4.6875 -6.945312 5 -7.71875 C 5.3125 -8.5 5.6875 -9.144531 6.125 -9.65625 C 6.570312 -10.164062 7.039062 -10.546875 7.53125 -10.796875 C 8.03125 -11.046875 8.507812 -11.171875 8.96875 -11.171875 C 9.425781 -11.171875 9.84375 -11.046875 10.21875 -10.796875 C 10.59375 -10.546875 10.867188 -10.179688 11.046875 -9.703125 C 11.222656 -9.191406 11.289062 -8.671875 11.25 -8.140625 C 11.21875 -7.617188 11.144531 -7.070312 11.03125 -6.5 C 10.914062 -5.9375 10.832031 -5.328125 10.78125 -4.671875 C 10.738281 -4.015625 10.789062 -3.300781 10.9375 -2.53125 C 11.09375 -1.757812 11.414062 -0.914062 11.90625 0 L 7.328125 0 C 7.171875 -0.5 7.113281 -1.050781 7.15625 -1.65625 C 7.195312 -2.269531 7.289062 -2.90625 7.4375 -3.5625 C 7.582031 -4.226562 7.734375 -4.882812 7.890625 -5.53125 C 8.046875 -6.1875 8.164062 -6.8125 8.25 -7.40625 C 8.34375 -8 8.351562 -8.53125 8.28125 -9 C 8.238281 -9.300781 8.148438 -9.523438 8.015625 -9.671875 C 7.878906 -9.828125 7.710938 -9.90625 7.515625 -9.90625 C 7.203125 -9.90625 6.851562 -9.695312 6.46875 -9.28125 C 6.082031 -8.863281 5.738281 -8.238281 5.4375 -7.40625 C 5.132812 -6.582031 4.929688 -5.550781 4.828125 -4.3125 C 4.734375 -3.070312 4.816406 -1.632812 5.078125 0 Z M 5.078125 0 "/></g></g></g><g fill="#ce994a" fill-opacity="1"><g transform="translate(222.33459, 17.318904)"><g><path d="M 1.25 -8 L 1.25 -8.453125 L 8.828125 -8.453125 L 8.828125 -8 Z M 1.25 -8 "/></g></g></g><g fill="#ce994a" fill-opacity="1"><g transform="translate(38.714476, 56.970035)"><g><path d="M 1.03125 -0.046875 C 0.976562 -1.140625 1.085938 -2.09375 1.359375 -2.90625 C 1.640625 -3.726562 2.023438 -4.453125 2.515625 -5.078125 C 3.015625 -5.710938 3.566406 -6.285156 4.171875 -6.796875 C 4.773438 -7.304688 5.375 -7.800781 5.96875 -8.28125 C 6.570312 -8.757812 7.125 -9.25 7.625 -9.75 C 8.125 -10.257812 8.515625 -10.828125 8.796875 -11.453125 C 9.085938 -12.085938 9.210938 -12.820312 9.171875 -13.65625 C 9.140625 -14.144531 8.984375 -14.539062 8.703125 -14.84375 C 8.429688 -15.144531 8.097656 -15.367188 7.703125 -15.515625 C 7.316406 -15.660156 6.910156 -15.726562 6.484375 -15.71875 C 6.097656 -15.71875 5.722656 -15.648438 5.359375 -15.515625 C 5.003906 -15.378906 4.71875 -15.191406 4.5 -14.953125 C 4.28125 -14.722656 4.179688 -14.4375 4.203125 -14.09375 C 4.222656 -13.59375 4.394531 -13.1875 4.71875 -12.875 C 5.039062 -12.570312 5.410156 -12.351562 5.828125 -12.21875 C 5.710938 -11.457031 5.421875 -10.878906 4.953125 -10.484375 C 4.492188 -10.085938 3.984375 -9.878906 3.421875 -9.859375 C 3.015625 -9.835938 2.613281 -9.910156 2.21875 -10.078125 C 1.832031 -10.253906 1.515625 -10.523438 1.265625 -10.890625 C 1.015625 -11.265625 0.875 -11.71875 0.84375 -12.25 C 0.820312 -12.832031 0.960938 -13.359375 1.265625 -13.828125 C 1.578125 -14.296875 2.003906 -14.695312 2.546875 -15.03125 C 3.097656 -15.375 3.710938 -15.648438 4.390625 -15.859375 C 5.066406 -16.066406 5.773438 -16.1875 6.515625 -16.21875 C 7.242188 -16.257812 7.960938 -16.207031 8.671875 -16.0625 C 9.378906 -15.914062 10.023438 -15.664062 10.609375 -15.3125 C 11.191406 -14.96875 11.660156 -14.507812 12.015625 -13.9375 C 12.378906 -13.363281 12.582031 -12.671875 12.625 -11.859375 C 12.664062 -11.066406 12.503906 -10.363281 12.140625 -9.75 C 11.785156 -9.132812 11.296875 -8.578125 10.671875 -8.078125 C 10.046875 -7.585938 9.351562 -7.148438 8.59375 -6.765625 C 7.84375 -6.390625 7.082031 -6.03125 6.3125 -5.6875 C 5.550781 -5.34375 4.84375 -5.007812 4.1875 -4.6875 C 3.539062 -4.363281 3.007812 -4.023438 2.59375 -3.671875 C 2.175781 -3.328125 1.953125 -2.953125 1.921875 -2.546875 C 3.453125 -2.617188 4.78125 -2.695312 5.90625 -2.78125 C 7.039062 -2.875 8.007812 -3 8.8125 -3.15625 C 9.625 -3.3125 10.304688 -3.523438 10.859375 -3.796875 C 11.421875 -4.078125 11.90625 -4.453125 12.3125 -4.921875 C 12.375 -4.515625 12.441406 -4.054688 12.515625 -3.546875 C 12.597656 -3.046875 12.6875 -2.546875 12.78125 -2.046875 C 12.875 -1.546875 12.976562 -1.082031 13.09375 -0.65625 Z M 1.03125 -0.046875 "/></g></g></g><g fill="#ce994a" fill-opacity="1"><g transform="translate(52.92997, 56.257774)"><g/></g></g><g fill="#ce994a" fill-opacity="1"><g transform="translate(57.459417, 56.030828)"><g><path d="M -0.453125 -10.8125 L 0.140625 -10.84375 C -0.0351562 -11.46875 -0.0859375 -12.09375 -0.015625 -12.71875 C 0.0546875 -13.34375 0.242188 -13.914062 0.546875 -14.4375 C 0.859375 -14.957031 1.273438 -15.390625 1.796875 -15.734375 C 2.328125 -16.078125 2.96875 -16.296875 3.71875 -16.390625 C 4.488281 -16.453125 5.082031 -16.378906 5.5 -16.171875 C 5.925781 -15.972656 6.191406 -15.6875 6.296875 -15.3125 C 6.398438 -14.945312 6.328125 -14.554688 6.078125 -14.140625 C 5.835938 -13.734375 5.429688 -13.363281 4.859375 -13.03125 C 4.285156 -12.707031 3.53125 -12.476562 2.59375 -12.34375 C 2.613281 -12.71875 2.566406 -13.007812 2.453125 -13.21875 C 2.335938 -13.425781 2.195312 -13.582031 2.03125 -13.6875 C 1.75 -13.832031 1.503906 -13.898438 1.296875 -13.890625 C 0.960938 -13.878906 0.75 -13.703125 0.65625 -13.359375 C 0.570312 -13.023438 0.71875 -12.613281 1.09375 -12.125 C 1.382812 -11.789062 1.71875 -11.535156 2.09375 -11.359375 C 2.46875 -11.191406 2.894531 -11.078125 3.375 -11.015625 L 6.328125 -11.15625 L 6.265625 -10.640625 L 4.625 -10.546875 C 4.445312 -9.546875 4.320312 -8.628906 4.25 -7.796875 C 4.1875 -6.972656 4.175781 -6.175781 4.21875 -5.40625 C 4.269531 -4.644531 4.378906 -3.847656 4.546875 -3.015625 C 4.722656 -2.191406 4.960938 -1.273438 5.265625 -0.265625 L 0.6875 -0.03125 C 0.875 -1.0625 1.015625 -2 1.109375 -2.84375 C 1.203125 -3.695312 1.234375 -4.503906 1.203125 -5.265625 C 1.171875 -6.035156 1.082031 -6.828125 0.9375 -7.640625 C 0.789062 -8.460938 0.570312 -9.363281 0.28125 -10.34375 L -0.265625 -10.3125 Z M -0.453125 -10.8125 "/></g></g></g><g fill="#ce994a" fill-opacity="1"><g transform="translate(63.399961, 55.73318)"><g><path d="M 5.46875 0.078125 C 4.363281 0.128906 3.414062 -0.078125 2.625 -0.546875 C 1.84375 -1.023438 1.234375 -1.6875 0.796875 -2.53125 C 0.367188 -3.375 0.128906 -4.335938 0.078125 -5.421875 C 0.015625 -6.492188 0.15625 -7.472656 0.5 -8.359375 C 0.851562 -9.242188 1.394531 -9.957031 2.125 -10.5 C 2.863281 -11.039062 3.785156 -11.335938 4.890625 -11.390625 C 5.984375 -11.453125 6.925781 -11.25 7.71875 -10.78125 C 8.519531 -10.3125 9.140625 -9.65625 9.578125 -8.8125 C 10.015625 -7.96875 10.265625 -7.007812 10.328125 -5.9375 C 10.378906 -4.851562 10.226562 -3.867188 9.875 -2.984375 C 9.519531 -2.097656 8.96875 -1.378906 8.21875 -0.828125 C 7.476562 -0.285156 6.5625 0.015625 5.46875 0.078125 Z M 5.796875 -10.78125 C 5.429688 -10.707031 5.09375 -10.460938 4.78125 -10.046875 C 4.46875 -9.628906 4.195312 -9.101562 3.96875 -8.46875 C 3.738281 -7.84375 3.554688 -7.160156 3.421875 -6.421875 C 3.296875 -5.679688 3.21875 -4.953125 3.1875 -4.234375 C 3.164062 -3.523438 3.203125 -2.875 3.296875 -2.28125 C 3.390625 -1.695312 3.550781 -1.242188 3.78125 -0.921875 C 4.007812 -0.597656 4.304688 -0.46875 4.671875 -0.53125 C 5.046875 -0.59375 5.375 -0.828125 5.65625 -1.234375 C 5.9375 -1.648438 6.179688 -2.175781 6.390625 -2.8125 C 6.597656 -3.445312 6.757812 -4.128906 6.875 -4.859375 C 7 -5.597656 7.070312 -6.328125 7.09375 -7.046875 C 7.113281 -7.765625 7.082031 -8.414062 7 -9 C 6.914062 -9.582031 6.769531 -10.035156 6.5625 -10.359375 C 6.363281 -10.691406 6.109375 -10.832031 5.796875 -10.78125 Z M 5.796875 -10.78125 "/></g></g></g><g fill="#ce994a" fill-opacity="1"><g transform="translate(74.340317, 55.185019)"><g><path d="M 5.078125 -0.25 L 0.484375 -0.03125 C 0.691406 -1.113281 0.835938 -2.085938 0.921875 -2.953125 C 1.003906 -3.828125 1.023438 -4.664062 0.984375 -5.46875 C 0.941406 -6.269531 0.832031 -7.097656 0.65625 -7.953125 C 0.488281 -8.816406 0.25 -9.78125 -0.0625 -10.84375 L 4.53125 -11.0625 C 4.28125 -9.75 4.113281 -8.59375 4.03125 -7.59375 C 3.957031 -6.59375 3.984375 -5.585938 4.109375 -4.578125 C 4.097656 -5.359375 4.15625 -6.132812 4.28125 -6.90625 C 4.40625 -7.675781 4.609375 -8.394531 4.890625 -9.0625 C 5.171875 -9.726562 5.546875 -10.285156 6.015625 -10.734375 C 6.492188 -11.179688 7.085938 -11.460938 7.796875 -11.578125 C 8.484375 -11.691406 9.03125 -11.644531 9.4375 -11.4375 C 9.84375 -11.226562 10.113281 -10.941406 10.25 -10.578125 C 10.363281 -10.265625 10.359375 -9.921875 10.234375 -9.546875 C 10.109375 -9.171875 9.859375 -8.832031 9.484375 -8.53125 C 9.117188 -8.238281 8.617188 -8.035156 7.984375 -7.921875 C 7.378906 -7.816406 6.90625 -7.894531 6.5625 -8.15625 C 6.21875 -8.425781 6.09375 -8.757812 6.1875 -9.15625 C 6.238281 -9.351562 6.253906 -9.507812 6.234375 -9.625 C 6.222656 -9.738281 6.171875 -9.796875 6.078125 -9.796875 C 6.003906 -9.796875 5.921875 -9.75 5.828125 -9.65625 C 5.566406 -9.382812 5.332031 -8.929688 5.125 -8.296875 C 4.925781 -7.671875 4.773438 -6.941406 4.671875 -6.109375 C 4.566406 -5.285156 4.523438 -4.421875 4.546875 -3.515625 C 4.578125 -2.609375 4.691406 -1.726562 4.890625 -0.875 C 4.910156 -0.769531 4.9375 -0.664062 4.96875 -0.5625 C 5.007812 -0.457031 5.046875 -0.351562 5.078125 -0.25 Z M 5.078125 -0.25 "/></g></g></g><g fill="#ce994a" fill-opacity="1"><g transform="translate(84.845149, 54.658679)"><g/></g></g><g fill="#ce994a" fill-opacity="1"><g transform="translate(89.374596, 54.431733)"><g><path d="M -0.234375 -11.6875 C -0.273438 -12.375 -0.132812 -12.984375 0.1875 -13.515625 C 0.519531 -14.054688 0.972656 -14.515625 1.546875 -14.890625 C 2.128906 -15.265625 2.773438 -15.5625 3.484375 -15.78125 C 4.203125 -16 4.921875 -16.128906 5.640625 -16.171875 L 5.53125 -18.484375 L 6.046875 -18.5 L 6.15625 -16.1875 C 6.882812 -16.175781 7.578125 -16.109375 8.234375 -15.984375 C 8.898438 -15.867188 9.5 -15.8125 10.03125 -15.8125 C 10.289062 -15.8125 10.539062 -15.828125 10.78125 -15.859375 C 11.019531 -15.898438 11.265625 -15.984375 11.515625 -16.109375 C 11.410156 -15.492188 11.3125 -14.75 11.21875 -13.875 C 11.132812 -13 11.082031 -11.957031 11.0625 -10.75 C 10.632812 -11.957031 10.144531 -12.921875 9.59375 -13.640625 C 9.039062 -14.359375 8.472656 -14.875 7.890625 -15.1875 C 7.304688 -15.5 6.738281 -15.648438 6.1875 -15.640625 L 6.453125 -10.375 C 7.035156 -10.144531 7.628906 -9.921875 8.234375 -9.703125 C 8.847656 -9.484375 9.4375 -9.242188 10 -8.984375 C 10.570312 -8.722656 11.09375 -8.414062 11.5625 -8.0625 C 12.03125 -7.71875 12.40625 -7.328125 12.6875 -6.890625 C 12.96875 -6.453125 13.125 -5.929688 13.15625 -5.328125 C 13.195312 -4.410156 12.96875 -3.582031 12.46875 -2.84375 C 11.976562 -2.101562 11.34375 -1.503906 10.5625 -1.046875 C 10.082031 -0.773438 9.53125 -0.550781 8.90625 -0.375 C 8.28125 -0.195312 7.632812 -0.078125 6.96875 -0.015625 L 7.09375 2.3125 L 6.578125 2.328125 L 6.453125 0.015625 C 5.929688 0.0351562 5.382812 0.0195312 4.8125 -0.03125 C 4.238281 -0.0820312 3.695312 -0.144531 3.1875 -0.21875 C 2.675781 -0.289062 2.222656 -0.332031 1.828125 -0.34375 C 1.585938 -0.351562 1.34375 -0.332031 1.09375 -0.28125 C 0.84375 -0.226562 0.59375 -0.140625 0.34375 -0.015625 C 0.457031 -0.640625 0.554688 -1.390625 0.640625 -2.265625 C 0.734375 -3.148438 0.789062 -4.191406 0.8125 -5.390625 C 1.144531 -4.460938 1.546875 -3.679688 2.015625 -3.046875 C 2.492188 -2.421875 2.992188 -1.921875 3.515625 -1.546875 C 4.035156 -1.171875 4.546875 -0.898438 5.046875 -0.734375 C 5.554688 -0.578125 6.015625 -0.503906 6.421875 -0.515625 L 6.140625 -6.265625 C 5.910156 -6.378906 5.679688 -6.476562 5.453125 -6.5625 C 5.222656 -6.644531 5.023438 -6.726562 4.859375 -6.8125 C 4.253906 -7.050781 3.65625 -7.320312 3.0625 -7.625 C 2.46875 -7.925781 1.929688 -8.265625 1.453125 -8.640625 C 0.972656 -9.023438 0.578125 -9.460938 0.265625 -9.953125 C -0.0351562 -10.453125 -0.203125 -11.03125 -0.234375 -11.6875 Z M 6.671875 -6 L 6.9375 -0.546875 C 7.5 -0.671875 7.96875 -0.914062 8.34375 -1.28125 C 8.726562 -1.65625 8.976562 -2.085938 9.09375 -2.578125 C 9.207031 -3.078125 9.144531 -3.585938 8.90625 -4.109375 C 8.675781 -4.628906 8.222656 -5.097656 7.546875 -5.515625 C 7.253906 -5.703125 6.960938 -5.863281 6.671875 -6 Z M 5.671875 -15.59375 C 5.347656 -15.5 5.03125 -15.316406 4.71875 -15.046875 C 4.414062 -14.785156 4.171875 -14.472656 3.984375 -14.109375 C 3.804688 -13.742188 3.738281 -13.351562 3.78125 -12.9375 C 3.820312 -12.519531 4.007812 -12.109375 4.34375 -11.703125 C 4.675781 -11.296875 5.203125 -10.929688 5.921875 -10.609375 Z M 5.671875 -15.59375 "/></g></g></g><g fill="#ce994a" fill-opacity="1"><g transform="translate(102.771306, 53.760497)"><g><path d="M 1.03125 -0.046875 C 0.976562 -1.140625 1.085938 -2.09375 1.359375 -2.90625 C 1.640625 -3.726562 2.023438 -4.453125 2.515625 -5.078125 C 3.015625 -5.710938 3.566406 -6.285156 4.171875 -6.796875 C 4.773438 -7.304688 5.375 -7.800781 5.96875 -8.28125 C 6.570312 -8.757812 7.125 -9.25 7.625 -9.75 C 8.125 -10.257812 8.515625 -10.828125 8.796875 -11.453125 C 9.085938 -12.085938 9.210938 -12.820312 9.171875 -13.65625 C 9.140625 -14.144531 8.984375 -14.539062 8.703125 -14.84375 C 8.429688 -15.144531 8.097656 -15.367188 7.703125 -15.515625 C 7.316406 -15.660156 6.910156 -15.726562 6.484375 -15.71875 C 6.097656 -15.71875 5.722656 -15.648438 5.359375 -15.515625 C 5.003906 -15.378906 4.71875 -15.191406 4.5 -14.953125 C 4.28125 -14.722656 4.179688 -14.4375 4.203125 -14.09375 C 4.222656 -13.59375 4.394531 -13.1875 4.71875 -12.875 C 5.039062 -12.570312 5.410156 -12.351562 5.828125 -12.21875 C 5.710938 -11.457031 5.421875 -10.878906 4.953125 -10.484375 C 4.492188 -10.085938 3.984375 -9.878906 3.421875 -9.859375 C 3.015625 -9.835938 2.613281 -9.910156 2.21875 -10.078125 C 1.832031 -10.253906 1.515625 -10.523438 1.265625 -10.890625 C 1.015625 -11.265625 0.875 -11.71875 0.84375 -12.25 C 0.820312 -12.832031 0.960938 -13.359375 1.265625 -13.828125 C 1.578125 -14.296875 2.003906 -14.695312 2.546875 -15.03125 C 3.097656 -15.375 3.710938 -15.648438 4.390625 -15.859375 C 5.066406 -16.066406 5.773438 -16.1875 6.515625 -16.21875 C 7.242188 -16.257812 7.960938 -16.207031 8.671875 -16.0625 C 9.378906 -15.914062 10.023438 -15.664062 10.609375 -15.3125 C 11.191406 -14.96875 11.660156 -14.507812 12.015625 -13.9375 C 12.378906 -13.363281 12.582031 -12.671875 12.625 -11.859375 C 12.664062 -11.066406 12.503906 -10.363281 12.140625 -9.75 C 11.785156 -9.132812 11.296875 -8.578125 10.671875 -8.078125 C 10.046875 -7.585938 9.351562 -7.148438 8.59375 -6.765625 C 7.84375 -6.390625 7.082031 -6.03125 6.3125 -5.6875 C 5.550781 -5.34375 4.84375 -5.007812 4.1875 -4.6875 C 3.539062 -4.363281 3.007812 -4.023438 2.59375 -3.671875 C 2.175781 -3.328125 1.953125 -2.953125 1.921875 -2.546875 C 3.453125 -2.617188 4.78125 -2.695312 5.90625 -2.78125 C 7.039062 -2.875 8.007812 -3 8.8125 -3.15625 C 9.625 -3.3125 10.304688 -3.523438 10.859375 -3.796875 C 11.421875 -4.078125 11.90625 -4.453125 12.3125 -4.921875 C 12.375 -4.515625 12.441406 -4.054688 12.515625 -3.546875 C 12.597656 -3.046875 12.6875 -2.546875 12.78125 -2.046875 C 12.875 -1.546875 12.976562 -1.082031 13.09375 -0.65625 Z M 1.03125 -0.046875 "/></g></g></g><g fill="#ce994a" fill-opacity="1"><g transform="translate(116.986796, 53.048237)"><g><path d="M 1.03125 -0.046875 C 0.976562 -1.140625 1.085938 -2.09375 1.359375 -2.90625 C 1.640625 -3.726562 2.023438 -4.453125 2.515625 -5.078125 C 3.015625 -5.710938 3.566406 -6.285156 4.171875 -6.796875 C 4.773438 -7.304688 5.375 -7.800781 5.96875 -8.28125 C 6.570312 -8.757812 7.125 -9.25 7.625 -9.75 C 8.125 -10.257812 8.515625 -10.828125 8.796875 -11.453125 C 9.085938 -12.085938 9.210938 -12.820312 9.171875 -13.65625 C 9.140625 -14.144531 8.984375 -14.539062 8.703125 -14.84375 C 8.429688 -15.144531 8.097656 -15.367188 7.703125 -15.515625 C 7.316406 -15.660156 6.910156 -15.726562 6.484375 -15.71875 C 6.097656 -15.71875 5.722656 -15.648438 5.359375 -15.515625 C 5.003906 -15.378906 4.71875 -15.191406 4.5 -14.953125 C 4.28125 -14.722656 4.179688 -14.4375 4.203125 -14.09375 C 4.222656 -13.59375 4.394531 -13.1875 4.71875 -12.875 C 5.039062 -12.570312 5.410156 -12.351562 5.828125 -12.21875 C 5.710938 -11.457031 5.421875 -10.878906 4.953125 -10.484375 C 4.492188 -10.085938 3.984375 -9.878906 3.421875 -9.859375 C 3.015625 -9.835938 2.613281 -9.910156 2.21875 -10.078125 C 1.832031 -10.253906 1.515625 -10.523438 1.265625 -10.890625 C 1.015625 -11.265625 0.875 -11.71875 0.84375 -12.25 C 0.820312 -12.832031 0.960938 -13.359375 1.265625 -13.828125 C 1.578125 -14.296875 2.003906 -14.695312 2.546875 -15.03125 C 3.097656 -15.375 3.710938 -15.648438 4.390625 -15.859375 C 5.066406 -16.066406 5.773438 -16.1875 6.515625 -16.21875 C 7.242188 -16.257812 7.960938 -16.207031 8.671875 -16.0625 C 9.378906 -15.914062 10.023438 -15.664062 10.609375 -15.3125 C 11.191406 -14.96875 11.660156 -14.507812 12.015625 -13.9375 C 12.378906 -13.363281 12.582031 -12.671875 12.625 -11.859375 C 12.664062 -11.066406 12.503906 -10.363281 12.140625 -9.75 C 11.785156 -9.132812 11.296875 -8.578125 10.671875 -8.078125 C 10.046875 -7.585938 9.351562 -7.148438 8.59375 -6.765625 C 7.84375 -6.390625 7.082031 -6.03125 6.3125 -5.6875 C 5.550781 -5.34375 4.84375 -5.007812 4.1875 -4.6875 C 3.539062 -4.363281 3.007812 -4.023438 2.59375 -3.671875 C 2.175781 -3.328125 1.953125 -2.953125 1.921875 -2.546875 C 3.453125 -2.617188 4.78125 -2.695312 5.90625 -2.78125 C 7.039062 -2.875 8.007812 -3 8.8125 -3.15625 C 9.625 -3.3125 10.304688 -3.523438 10.859375 -3.796875 C 11.421875 -4.078125 11.90625 -4.453125 12.3125 -4.921875 C 12.375 -4.515625 12.441406 -4.054688 12.515625 -3.546875 C 12.597656 -3.046875 12.6875 -2.546875 12.78125 -2.046875 C 12.875 -1.546875 12.976562 -1.082031 13.09375 -0.65625 Z M 1.03125 -0.046875 "/></g></g></g><g fill="#ce994a" fill-opacity="1"><g transform="translate(150.963018, 52.03445)"><g><path d="M 1.109375 -3.75 C 1.128906 -4.332031 1.28125 -4.8125 1.5625 -5.1875 C 1.851562 -5.5625 2.222656 -5.835938 2.671875 -6.015625 C 3.128906 -6.203125 3.601562 -6.28125 4.09375 -6.25 C 4.539062 -6.226562 4.960938 -6.117188 5.359375 -5.921875 C 5.765625 -5.734375 6.101562 -5.457031 6.375 -5.09375 C 6.65625 -4.738281 6.835938 -4.285156 6.921875 -3.734375 C 6.460938 -3.609375 6.0625 -3.378906 5.71875 -3.046875 C 5.375 -2.710938 5.191406 -2.28125 5.171875 -1.75 C 5.148438 -1.363281 5.234375 -1.03125 5.421875 -0.75 C 5.609375 -0.46875 5.851562 -0.25 6.15625 -0.09375 C 6.46875 0.0625 6.800781 0.148438 7.15625 0.171875 C 7.507812 0.191406 7.890625 0.0234375 8.296875 -0.328125 C 8.703125 -0.679688 9.078125 -1.15625 9.421875 -1.75 C 9.773438 -2.351562 10.019531 -3.039062 10.15625 -3.8125 C 10.351562 -4.707031 10.316406 -5.507812 10.046875 -6.21875 C 9.785156 -6.925781 9.300781 -7.5 8.59375 -7.9375 C 7.894531 -8.375 6.988281 -8.625 5.875 -8.6875 L 5.90625 -9.203125 C 6.851562 -9.148438 7.628906 -9.25 8.234375 -9.5 C 8.847656 -9.75 9.3125 -10.085938 9.625 -10.515625 C 9.945312 -10.941406 10.132812 -11.40625 10.1875 -11.90625 C 10.25 -12.40625 10.179688 -12.878906 9.984375 -13.328125 C 9.796875 -13.785156 9.5 -14.164062 9.09375 -14.46875 C 8.695312 -14.769531 8.210938 -14.9375 7.640625 -14.96875 C 7.109375 -15 6.65625 -14.890625 6.28125 -14.640625 C 5.914062 -14.398438 5.722656 -14.039062 5.703125 -13.5625 C 5.679688 -13.132812 5.796875 -12.773438 6.046875 -12.484375 C 6.304688 -12.191406 6.613281 -11.972656 6.96875 -11.828125 C 6.8125 -11.148438 6.5 -10.660156 6.03125 -10.359375 C 5.570312 -10.066406 5.085938 -9.9375 4.578125 -9.96875 C 4.203125 -9.976562 3.847656 -10.078125 3.515625 -10.265625 C 3.179688 -10.453125 2.914062 -10.71875 2.71875 -11.0625 C 2.519531 -11.40625 2.4375 -11.816406 2.46875 -12.296875 C 2.507812 -12.890625 2.691406 -13.394531 3.015625 -13.8125 C 3.335938 -14.226562 3.765625 -14.566406 4.296875 -14.828125 C 4.835938 -15.085938 5.441406 -15.269531 6.109375 -15.375 C 6.785156 -15.476562 7.488281 -15.507812 8.21875 -15.46875 C 9.289062 -15.414062 10.175781 -15.242188 10.875 -14.953125 C 11.582031 -14.660156 12.132812 -14.289062 12.53125 -13.84375 C 12.925781 -13.40625 13.171875 -12.941406 13.265625 -12.453125 C 13.359375 -11.960938 13.316406 -11.476562 13.140625 -11 C 12.960938 -10.519531 12.664062 -10.097656 12.25 -9.734375 C 11.832031 -9.378906 11.304688 -9.117188 10.671875 -8.953125 C 11.378906 -8.753906 12.007812 -8.425781 12.5625 -7.96875 C 13.113281 -7.507812 13.535156 -6.960938 13.828125 -6.328125 C 14.128906 -5.691406 14.265625 -5 14.234375 -4.25 C 14.179688 -3.425781 13.9375 -2.695312 13.5 -2.0625 C 13.070312 -1.425781 12.515625 -0.890625 11.828125 -0.453125 C 11.148438 -0.015625 10.410156 0.300781 9.609375 0.5 C 8.816406 0.695312 8.035156 0.773438 7.265625 0.734375 C 6.535156 0.703125 5.800781 0.582031 5.0625 0.375 C 4.332031 0.164062 3.664062 -0.117188 3.0625 -0.484375 C 2.457031 -0.859375 1.972656 -1.316406 1.609375 -1.859375 C 1.242188 -2.410156 1.078125 -3.039062 1.109375 -3.75 Z M 1.109375 -3.75 "/></g></g></g><g fill="#ce994a" fill-opacity="1"><g transform="translate(165.072625, 52.76816)"><g/></g></g><g fill="#ce994a" fill-opacity="1"><g transform="translate(169.601635, 53.003672)"><g><path d="M 0.65625 -10.8125 L 1.25 -10.78125 C 1.132812 -11.40625 1.144531 -12.023438 1.28125 -12.640625 C 1.414062 -13.253906 1.660156 -13.804688 2.015625 -14.296875 C 2.367188 -14.785156 2.828125 -15.175781 3.390625 -15.46875 C 3.953125 -15.757812 4.613281 -15.910156 5.375 -15.921875 C 6.144531 -15.910156 6.726562 -15.78125 7.125 -15.53125 C 7.53125 -15.289062 7.765625 -14.976562 7.828125 -14.59375 C 7.890625 -14.21875 7.773438 -13.835938 7.484375 -13.453125 C 7.203125 -13.078125 6.757812 -12.753906 6.15625 -12.484375 C 5.550781 -12.210938 4.78125 -12.054688 3.84375 -12.015625 C 3.894531 -12.390625 3.875 -12.6875 3.78125 -12.90625 C 3.695312 -13.125 3.570312 -13.289062 3.40625 -13.40625 C 3.144531 -13.582031 2.910156 -13.675781 2.703125 -13.6875 C 2.367188 -13.707031 2.140625 -13.550781 2.015625 -13.21875 C 1.898438 -12.894531 2.003906 -12.472656 2.328125 -11.953125 C 2.578125 -11.585938 2.878906 -11.300781 3.234375 -11.09375 C 3.585938 -10.882812 4.003906 -10.722656 4.484375 -10.609375 L 7.4375 -10.453125 L 7.3125 -9.9375 L 5.671875 -10.03125 C 5.390625 -9.050781 5.171875 -8.148438 5.015625 -7.328125 C 4.867188 -6.515625 4.78125 -5.722656 4.75 -4.953125 C 4.71875 -4.191406 4.742188 -3.390625 4.828125 -2.546875 C 4.921875 -1.703125 5.066406 -0.765625 5.265625 0.265625 L 0.6875 0.03125 C 0.976562 -0.976562 1.210938 -1.894531 1.390625 -2.71875 C 1.566406 -3.550781 1.675781 -4.347656 1.71875 -5.109375 C 1.769531 -5.878906 1.765625 -6.675781 1.703125 -7.5 C 1.640625 -8.332031 1.515625 -9.25 1.328125 -10.25 L 0.78125 -10.28125 Z M 0.65625 -10.8125 "/></g></g></g><g fill="#ce994a" fill-opacity="1"><g transform="translate(175.541606, 53.312554)"><g><path d="M 5.4375 0.625 C 4.332031 0.570312 3.410156 0.269531 2.671875 -0.28125 C 1.941406 -0.832031 1.40625 -1.550781 1.0625 -2.4375 C 0.71875 -3.320312 0.570312 -4.304688 0.625 -5.390625 C 0.675781 -6.460938 0.921875 -7.421875 1.359375 -8.265625 C 1.796875 -9.109375 2.40625 -9.757812 3.1875 -10.21875 C 3.976562 -10.6875 4.925781 -10.894531 6.03125 -10.84375 C 7.125 -10.78125 8.039062 -10.476562 8.78125 -9.9375 C 9.53125 -9.394531 10.078125 -8.679688 10.421875 -7.796875 C 10.773438 -6.910156 10.925781 -5.929688 10.875 -4.859375 C 10.820312 -3.773438 10.570312 -2.8125 10.125 -1.96875 C 9.6875 -1.125 9.066406 -0.46875 8.265625 0 C 7.472656 0.476562 6.53125 0.6875 5.4375 0.625 Z M 6.875 -10.140625 C 6.488281 -10.109375 6.117188 -9.898438 5.765625 -9.515625 C 5.421875 -9.128906 5.101562 -8.632812 4.8125 -8.03125 C 4.519531 -7.425781 4.269531 -6.757812 4.0625 -6.03125 C 3.851562 -5.3125 3.703125 -4.597656 3.609375 -3.890625 C 3.515625 -3.179688 3.484375 -2.53125 3.515625 -1.9375 C 3.546875 -1.34375 3.660156 -0.875 3.859375 -0.53125 C 4.054688 -0.1875 4.335938 -0.0234375 4.703125 -0.046875 C 5.078125 -0.078125 5.425781 -0.28125 5.75 -0.65625 C 6.070312 -1.03125 6.367188 -1.523438 6.640625 -2.140625 C 6.910156 -2.753906 7.144531 -3.421875 7.34375 -4.140625 C 7.539062 -4.859375 7.6875 -5.570312 7.78125 -6.28125 C 7.875 -7 7.90625 -7.648438 7.875 -8.234375 C 7.851562 -8.828125 7.757812 -9.296875 7.59375 -9.640625 C 7.425781 -9.984375 7.1875 -10.148438 6.875 -10.140625 Z M 6.875 -10.140625 "/></g></g></g><g fill="#ce994a" fill-opacity="1"><g transform="translate(186.480906, 53.881406)"><g><path d="M 5.078125 0.265625 L 0.484375 0.03125 C 0.796875 -1.03125 1.035156 -1.988281 1.203125 -2.84375 C 1.378906 -3.707031 1.488281 -4.539062 1.53125 -5.34375 C 1.570312 -6.144531 1.550781 -6.976562 1.46875 -7.84375 C 1.394531 -8.71875 1.253906 -9.695312 1.046875 -10.78125 L 5.640625 -10.546875 C 5.242188 -9.265625 4.957031 -8.125 4.78125 -7.125 C 4.613281 -6.132812 4.535156 -5.140625 4.546875 -4.140625 C 4.617188 -4.910156 4.753906 -5.671875 4.953125 -6.421875 C 5.160156 -7.179688 5.4375 -7.878906 5.78125 -8.515625 C 6.125 -9.148438 6.554688 -9.664062 7.078125 -10.0625 C 7.597656 -10.46875 8.21875 -10.6875 8.9375 -10.71875 C 9.632812 -10.769531 10.171875 -10.671875 10.546875 -10.421875 C 10.929688 -10.171875 11.171875 -9.859375 11.265625 -9.484375 C 11.359375 -9.160156 11.320312 -8.816406 11.15625 -8.453125 C 10.988281 -8.085938 10.703125 -7.773438 10.296875 -7.515625 C 9.898438 -7.265625 9.382812 -7.113281 8.75 -7.0625 C 8.144531 -7.019531 7.679688 -7.148438 7.359375 -7.453125 C 7.035156 -7.753906 6.941406 -8.097656 7.078125 -8.484375 C 7.148438 -8.671875 7.1875 -8.820312 7.1875 -8.9375 C 7.1875 -9.0625 7.140625 -9.125 7.046875 -9.125 C 6.972656 -9.132812 6.882812 -9.097656 6.78125 -9.015625 C 6.488281 -8.765625 6.210938 -8.335938 5.953125 -7.734375 C 5.691406 -7.128906 5.460938 -6.421875 5.265625 -5.609375 C 5.078125 -4.796875 4.945312 -3.9375 4.875 -3.03125 C 4.8125 -2.125 4.835938 -1.238281 4.953125 -0.375 C 4.972656 -0.269531 4.992188 -0.160156 5.015625 -0.046875 C 5.046875 0.0546875 5.066406 0.160156 5.078125 0.265625 Z M 5.078125 0.265625 "/></g></g></g><g fill="#ce994a" fill-opacity="1"><g transform="translate(196.984725, 54.427612)"><g/></g></g><g fill="#ce994a" fill-opacity="1"><g transform="translate(201.513735, 54.663123)"><g><path d="M 0.953125 -11.65625 C 0.984375 -12.34375 1.1875 -12.929688 1.5625 -13.421875 C 1.945312 -13.921875 2.445312 -14.328125 3.0625 -14.640625 C 3.675781 -14.960938 4.347656 -15.195312 5.078125 -15.34375 C 5.816406 -15.488281 6.546875 -15.546875 7.265625 -15.515625 L 7.375 -17.8125 L 7.890625 -17.78125 L 7.78125 -15.484375 C 8.5 -15.390625 9.179688 -15.25 9.828125 -15.0625 C 10.472656 -14.882812 11.0625 -14.765625 11.59375 -14.703125 C 11.851562 -14.679688 12.101562 -14.675781 12.34375 -14.6875 C 12.582031 -14.695312 12.835938 -14.753906 13.109375 -14.859375 C 12.929688 -14.253906 12.753906 -13.519531 12.578125 -12.65625 C 12.398438 -11.800781 12.242188 -10.769531 12.109375 -9.5625 C 11.804688 -10.8125 11.414062 -11.820312 10.9375 -12.59375 C 10.457031 -13.363281 9.941406 -13.929688 9.390625 -14.296875 C 8.847656 -14.671875 8.300781 -14.882812 7.75 -14.9375 L 7.46875 -9.671875 C 8.03125 -9.378906 8.601562 -9.09375 9.1875 -8.8125 C 9.78125 -8.53125 10.34375 -8.234375 10.875 -7.921875 C 11.414062 -7.609375 11.898438 -7.253906 12.328125 -6.859375 C 12.753906 -6.460938 13.082031 -6.03125 13.3125 -5.5625 C 13.550781 -5.09375 13.65625 -4.554688 13.625 -3.953125 C 13.582031 -3.035156 13.273438 -2.234375 12.703125 -1.546875 C 12.140625 -0.867188 11.445312 -0.34375 10.625 0.03125 C 10.101562 0.257812 9.523438 0.425781 8.890625 0.53125 C 8.253906 0.644531 7.601562 0.695312 6.9375 0.6875 L 6.8125 3.015625 L 6.296875 2.984375 L 6.421875 0.671875 C 5.898438 0.640625 5.359375 0.566406 4.796875 0.453125 C 4.234375 0.347656 3.703125 0.234375 3.203125 0.109375 C 2.703125 -0.015625 2.253906 -0.101562 1.859375 -0.15625 C 1.617188 -0.1875 1.375 -0.191406 1.125 -0.171875 C 0.875 -0.148438 0.613281 -0.0859375 0.34375 0.015625 C 0.519531 -0.585938 0.695312 -1.320312 0.875 -2.1875 C 1.050781 -3.0625 1.210938 -4.09375 1.359375 -5.28125 C 1.597656 -4.320312 1.921875 -3.503906 2.328125 -2.828125 C 2.734375 -2.160156 3.175781 -1.613281 3.65625 -1.1875 C 4.132812 -0.757812 4.613281 -0.4375 5.09375 -0.21875 C 5.582031 -0.0078125 6.035156 0.109375 6.453125 0.140625 L 6.75 -5.59375 C 6.519531 -5.726562 6.296875 -5.851562 6.078125 -5.96875 C 5.867188 -6.082031 5.6875 -6.1875 5.53125 -6.28125 C 4.945312 -6.582031 4.375 -6.910156 3.8125 -7.265625 C 3.257812 -7.628906 2.757812 -8.023438 2.3125 -8.453125 C 1.875 -8.878906 1.53125 -9.351562 1.28125 -9.875 C 1.03125 -10.40625 0.921875 -11 0.953125 -11.65625 Z M 7.25 -5.296875 L 6.96875 0.15625 C 7.53125 0.09375 8.019531 -0.0976562 8.4375 -0.421875 C 8.851562 -0.753906 9.144531 -1.160156 9.3125 -1.640625 C 9.476562 -2.128906 9.46875 -2.644531 9.28125 -3.1875 C 9.101562 -3.726562 8.695312 -4.238281 8.0625 -4.71875 C 7.789062 -4.925781 7.519531 -5.117188 7.25 -5.296875 Z M 7.234375 -14.9375 C 6.890625 -14.875 6.550781 -14.722656 6.21875 -14.484375 C 5.894531 -14.253906 5.625 -13.96875 5.40625 -13.625 C 5.1875 -13.28125 5.078125 -12.898438 5.078125 -12.484375 C 5.078125 -12.066406 5.222656 -11.640625 5.515625 -11.203125 C 5.804688 -10.765625 6.289062 -10.347656 6.96875 -9.953125 Z M 7.234375 -14.9375 "/></g></g></g><g fill="#ce994a" fill-opacity="1"><g transform="translate(214.909152, 55.359695)"><g><path d="M 1.109375 -3.75 C 1.128906 -4.332031 1.28125 -4.8125 1.5625 -5.1875 C 1.851562 -5.5625 2.222656 -5.835938 2.671875 -6.015625 C 3.128906 -6.203125 3.601562 -6.28125 4.09375 -6.25 C 4.539062 -6.226562 4.960938 -6.117188 5.359375 -5.921875 C 5.765625 -5.734375 6.101562 -5.457031 6.375 -5.09375 C 6.65625 -4.738281 6.835938 -4.285156 6.921875 -3.734375 C 6.460938 -3.609375 6.0625 -3.378906 5.71875 -3.046875 C 5.375 -2.710938 5.191406 -2.28125 5.171875 -1.75 C 5.148438 -1.363281 5.234375 -1.03125 5.421875 -0.75 C 5.609375 -0.46875 5.851562 -0.25 6.15625 -0.09375 C 6.46875 0.0625 6.800781 0.148438 7.15625 0.171875 C 7.507812 0.191406 7.890625 0.0234375 8.296875 -0.328125 C 8.703125 -0.679688 9.078125 -1.15625 9.421875 -1.75 C 9.773438 -2.351562 10.019531 -3.039062 10.15625 -3.8125 C 10.351562 -4.707031 10.316406 -5.507812 10.046875 -6.21875 C 9.785156 -6.925781 9.300781 -7.5 8.59375 -7.9375 C 7.894531 -8.375 6.988281 -8.625 5.875 -8.6875 L 5.90625 -9.203125 C 6.851562 -9.148438 7.628906 -9.25 8.234375 -9.5 C 8.847656 -9.75 9.3125 -10.085938 9.625 -10.515625 C 9.945312 -10.941406 10.132812 -11.40625 10.1875 -11.90625 C 10.25 -12.40625 10.179688 -12.878906 9.984375 -13.328125 C 9.796875 -13.785156 9.5 -14.164062 9.09375 -14.46875 C 8.695312 -14.769531 8.210938 -14.9375 7.640625 -14.96875 C 7.109375 -15 6.65625 -14.890625 6.28125 -14.640625 C 5.914062 -14.398438 5.722656 -14.039062 5.703125 -13.5625 C 5.679688 -13.132812 5.796875 -12.773438 6.046875 -12.484375 C 6.304688 -12.191406 6.613281 -11.972656 6.96875 -11.828125 C 6.8125 -11.148438 6.5 -10.660156 6.03125 -10.359375 C 5.570312 -10.066406 5.085938 -9.9375 4.578125 -9.96875 C 4.203125 -9.976562 3.847656 -10.078125 3.515625 -10.265625 C 3.179688 -10.453125 2.914062 -10.71875 2.71875 -11.0625 C 2.519531 -11.40625 2.4375 -11.816406 2.46875 -12.296875 C 2.507812 -12.890625 2.691406 -13.394531 3.015625 -13.8125 C 3.335938 -14.226562 3.765625 -14.566406 4.296875 -14.828125 C 4.835938 -15.085938 5.441406 -15.269531 6.109375 -15.375 C 6.785156 -15.476562 7.488281 -15.507812 8.21875 -15.46875 C 9.289062 -15.414062 10.175781 -15.242188 10.875 -14.953125 C 11.582031 -14.660156 12.132812 -14.289062 12.53125 -13.84375 C 12.925781 -13.40625 13.171875 -12.941406 13.265625 -12.453125 C 13.359375 -11.960938 13.316406 -11.476562 13.140625 -11 C 12.960938 -10.519531 12.664062 -10.097656 12.25 -9.734375 C 11.832031 -9.378906 11.304688 -9.117188 10.671875 -8.953125 C 11.378906 -8.753906 12.007812 -8.425781 12.5625 -7.96875 C 13.113281 -7.507812 13.535156 -6.960938 13.828125 -6.328125 C 14.128906 -5.691406 14.265625 -5 14.234375 -4.25 C 14.179688 -3.425781 13.9375 -2.695312 13.5 -2.0625 C 13.070312 -1.425781 12.515625 -0.890625 11.828125 -0.453125 C 11.148438 -0.015625 10.410156 0.300781 9.609375 0.5 C 8.816406 0.695312 8.035156 0.773438 7.265625 0.734375 C 6.535156 0.703125 5.800781 0.582031 5.0625 0.375 C 4.332031 0.164062 3.664062 -0.117188 3.0625 -0.484375 C 2.457031 -0.859375 1.972656 -1.316406 1.609375 -1.859375 C 1.242188 -2.410156 1.078125 -3.039062 1.109375 -3.75 Z M 1.109375 -3.75 "/></g></g></g><g fill="#ce994a" fill-opacity="1"><g transform="translate(229.018755, 56.093404)"><g><path d="M 7.65625 0.75 C 6.457031 0.6875 5.425781 0.40625 4.5625 -0.09375 C 3.695312 -0.601562 2.988281 -1.253906 2.4375 -2.046875 C 1.882812 -2.847656 1.476562 -3.734375 1.21875 -4.703125 C 0.96875 -5.679688 0.867188 -6.679688 0.921875 -7.703125 C 0.972656 -8.734375 1.171875 -9.722656 1.515625 -10.671875 C 1.867188 -11.617188 2.363281 -12.460938 3 -13.203125 C 3.632812 -13.941406 4.40625 -14.515625 5.3125 -14.921875 C 6.226562 -15.335938 7.285156 -15.519531 8.484375 -15.46875 C 9.679688 -15.40625 10.710938 -15.125 11.578125 -14.625 C 12.441406 -14.125 13.15625 -13.46875 13.71875 -12.65625 C 14.28125 -11.851562 14.6875 -10.960938 14.9375 -9.984375 C 15.1875 -9.003906 15.285156 -8 15.234375 -6.96875 C 15.179688 -5.9375 14.976562 -4.953125 14.625 -4.015625 C 14.28125 -3.078125 13.785156 -2.238281 13.140625 -1.5 C 12.503906 -0.757812 11.726562 -0.1875 10.8125 0.21875 C 9.90625 0.632812 8.851562 0.8125 7.65625 0.75 Z M 9.53125 -14.796875 C 9.039062 -14.816406 8.566406 -14.628906 8.109375 -14.234375 C 7.660156 -13.835938 7.242188 -13.289062 6.859375 -12.59375 C 6.472656 -11.894531 6.128906 -11.109375 5.828125 -10.234375 C 5.535156 -9.367188 5.296875 -8.460938 5.109375 -7.515625 C 4.921875 -6.578125 4.796875 -5.671875 4.734375 -4.796875 C 4.679688 -3.921875 4.707031 -3.117188 4.8125 -2.390625 C 4.925781 -1.671875 5.125 -1.09375 5.40625 -0.65625 C 5.6875 -0.226562 6.070312 0 6.5625 0.03125 C 7.050781 0.0507812 7.519531 -0.128906 7.96875 -0.515625 C 8.425781 -0.910156 8.847656 -1.457031 9.234375 -2.15625 C 9.617188 -2.863281 9.960938 -3.644531 10.265625 -4.5 C 10.566406 -5.363281 10.8125 -6.265625 11 -7.203125 C 11.1875 -8.148438 11.304688 -9.066406 11.359375 -9.953125 C 11.410156 -10.835938 11.382812 -11.640625 11.28125 -12.359375 C 11.175781 -13.078125 10.976562 -13.65625 10.6875 -14.09375 C 10.40625 -14.53125 10.019531 -14.765625 9.53125 -14.796875 Z M 9.53125 -14.796875 "/></g></g></g><g fill="#ce994a" fill-opacity="1"><g transform="translate(136.818281, 54.561974)"><g><path d="M 1.25 -8 L 1.25 -8.453125 L 8.828125 -8.453125 L 8.828125 -8 Z M 1.25 -8 "/></g></g></g><g fill="#ddcead" fill-opacity="1"><g transform="translate(38.459767, 78.865642)"><g><path d="M 5.289062 0 C 5.183594 -0.445312 5.171875 -0.722656 5.171875 -1.769531 L 5.171875 -4.226562 C 5.171875 -5.589844 4.894531 -6.050781 4.226562 -6.402344 C 3.898438 -6.574219 3.515625 -6.652344 3.070312 -6.652344 C 1.902344 -6.652344 0.957031 -6.035156 0.773438 -4.984375 L 1.71875 -4.828125 C 1.914062 -5.5625 2.363281 -5.851562 3.003906 -5.851562 C 3.753906 -5.851562 4.210938 -5.433594 4.210938 -4.304688 L 4.210938 -3.976562 C 3.910156 -4.015625 3.6875 -4.027344 3.359375 -4.027344 C 1.300781 -4.027344 0.523438 -3.03125 0.523438 -1.730469 C 0.523438 -0.578125 1.285156 0.183594 2.425781 0.183594 C 3.265625 0.183594 3.84375 -0.195312 4.289062 -1.140625 C 4.289062 -0.65625 4.332031 -0.300781 4.371094 0 Z M 4.199219 -3.214844 C 4.210938 -3.148438 4.226562 -2.820312 4.226562 -2.625 C 4.226562 -1.46875 3.570312 -0.617188 2.609375 -0.617188 C 1.863281 -0.617188 1.535156 -1.0625 1.535156 -1.730469 C 1.535156 -2.769531 2.125 -3.292969 3.449219 -3.292969 C 3.726562 -3.292969 3.949219 -3.265625 4.199219 -3.214844 Z M 4.199219 -3.214844 "/></g></g></g><g fill="#ddcead" fill-opacity="1"><g transform="translate(44.49557, 78.865642)"><g><path d="M 1.824219 2.191406 L 1.824219 -0.839844 C 2.257812 -0.09375 2.714844 0.132812 3.449219 0.132812 C 4.945312 0.132812 5.722656 -1.339844 5.722656 -3.332031 C 5.722656 -5.273438 4.855469 -6.601562 3.449219 -6.601562 C 2.652344 -6.601562 2.085938 -6.21875 1.730469 -5.339844 L 1.730469 -6.46875 L 0.867188 -6.46875 L 0.867188 2.191406 Z M 1.824219 -3.832031 C 1.824219 -4.960938 2.375 -5.800781 3.242188 -5.800781 C 4.171875 -5.800781 4.660156 -4.800781 4.660156 -3.265625 C 4.660156 -1.71875 4.238281 -0.667969 3.242188 -0.667969 C 2.46875 -0.667969 1.824219 -1.378906 1.824219 -2.441406 Z M 1.824219 -3.832031 "/></g></g></g><g fill="#ddcead" fill-opacity="1"><g transform="translate(50.754432, 78.865642)"><g><path d="M 1.824219 2.191406 L 1.824219 -0.839844 C 2.257812 -0.09375 2.714844 0.132812 3.449219 0.132812 C 4.945312 0.132812 5.722656 -1.339844 5.722656 -3.332031 C 5.722656 -5.273438 4.855469 -6.601562 3.449219 -6.601562 C 2.652344 -6.601562 2.085938 -6.21875 1.730469 -5.339844 L 1.730469 -6.46875 L 0.867188 -6.46875 L 0.867188 2.191406 Z M 1.824219 -3.832031 C 1.824219 -4.960938 2.375 -5.800781 3.242188 -5.800781 C 4.171875 -5.800781 4.660156 -4.800781 4.660156 -3.265625 C 4.660156 -1.71875 4.238281 -0.667969 3.242188 -0.667969 C 2.46875 -0.667969 1.824219 -1.378906 1.824219 -2.441406 Z M 1.824219 -3.832031 "/></g></g></g><g fill="#ddcead" fill-opacity="1"><g transform="translate(57.013293, 78.865642)"><g><path d="M 1.824219 0 L 1.824219 -8.753906 L 0.867188 -8.753906 L 0.867188 0 Z M 1.824219 0 "/></g></g></g><g fill="#ddcead" fill-opacity="1"><g transform="translate(59.690042, 78.865642)"><g><path d="M 1.863281 -7.609375 L 1.863281 -8.726562 L 0.828125 -8.726562 L 0.828125 -7.609375 Z M 1.824219 0 L 1.824219 -6.46875 L 0.867188 -6.46875 L 0.867188 0 Z M 1.824219 0 "/></g></g></g><g fill="#ddcead" fill-opacity="1"><g transform="translate(62.36679, 78.865642)"><g><path d="M 4.371094 -1.914062 C 4.09375 -0.917969 3.660156 -0.617188 3.058594 -0.617188 C 2.074219 -0.617188 1.546875 -1.429688 1.546875 -3.019531 L 1.546875 -3.109375 L 5.367188 -3.109375 C 5.328125 -5.539062 4.515625 -6.652344 3.058594 -6.652344 C 1.535156 -6.652344 0.539062 -5.339844 0.539062 -3.136719 C 0.539062 -1.035156 1.429688 0.183594 3.003906 0.183594 C 4.226562 0.183594 4.945312 -0.484375 5.273438 -1.707031 Z M 1.601562 -3.898438 C 1.707031 -5.25 2.203125 -5.851562 2.953125 -5.851562 C 3.792969 -5.851562 4.277344 -5.15625 4.277344 -3.898438 Z M 1.601562 -3.898438 "/></g></g></g><g fill="#ddcead" fill-opacity="1"><g transform="translate(68.179529, 78.865642)"><g><path d="M 2.953125 -2.691406 C 3.53125 -2.507812 3.898438 -2.179688 3.898438 -1.679688 C 3.898438 -1.089844 3.398438 -0.617188 2.609375 -0.617188 C 1.757812 -0.617188 1.257812 -1.023438 1.117188 -1.863281 L 0.222656 -1.667969 C 0.472656 -0.40625 1.246094 0.183594 2.546875 0.183594 C 4.042969 0.183594 4.894531 -0.722656 4.894531 -1.8125 C 4.894531 -2.675781 4.421875 -3.332031 2.652344 -3.820312 C 1.679688 -4.082031 1.402344 -4.304688 1.402344 -4.855469 C 1.402344 -5.394531 1.835938 -5.851562 2.519531 -5.851562 C 3.109375 -5.851562 3.542969 -5.5 3.777344 -4.800781 L 4.617188 -5.011719 C 4.332031 -6.152344 3.609375 -6.652344 2.570312 -6.652344 C 1.285156 -6.652344 0.460938 -5.707031 0.460938 -4.722656 C 0.460938 -4.289062 0.617188 -3.4375 1.929688 -3.019531 Z M 2.953125 -2.691406 "/></g></g></g><g fill="#ddcead" fill-opacity="1"><g transform="translate(73.32308, 78.865642)"><g/></g></g><g fill="#ddcead" fill-opacity="1"><g transform="translate(76.603405, 78.865642)"><g><path d="M 3.503906 -0.722656 C 3.308594 -0.667969 3.148438 -0.65625 2.925781 -0.65625 C 1.996094 -0.65625 1.929688 -1.128906 1.929688 -2.296875 L 1.929688 -5.683594 L 3.1875 -5.683594 L 3.1875 -6.46875 L 1.929688 -6.46875 L 1.929688 -8.070312 L 0.972656 -7.976562 L 0.972656 -6.46875 L 0.0390625 -6.46875 L 0.0390625 -5.683594 L 0.972656 -5.683594 L 0.972656 -2.296875 C 0.972656 -0.945312 1.074219 -0.433594 1.5625 -0.0664062 C 1.785156 0.105469 2.140625 0.183594 2.625 0.183594 C 2.9375 0.183594 3.136719 0.15625 3.503906 0.09375 Z M 3.503906 -0.722656 "/></g></g></g><g fill="#ddcead" fill-opacity="1"><g transform="translate(79.949336, 78.865642)"><g><path d="M 3.003906 0.183594 C 4.644531 0.183594 5.5 -1.011719 5.5 -3.308594 C 5.5 -5.367188 4.632812 -6.652344 3.042969 -6.652344 C 1.417969 -6.652344 0.539062 -5.472656 0.539062 -3.226562 C 0.539062 -1.089844 1.378906 0.183594 3.003906 0.183594 Z M 3.019531 -0.617188 C 2.085938 -0.617188 1.601562 -1.484375 1.601562 -3.226562 C 1.601562 -4.921875 2.074219 -5.851562 3.003906 -5.851562 C 3.949219 -5.851562 4.433594 -4.960938 4.433594 -3.226562 C 4.433594 -1.484375 3.949219 -0.617188 3.019531 -0.617188 Z M 3.019531 -0.617188 "/></g></g></g><g fill="#ddcead" fill-opacity="1"><g transform="translate(85.985139, 78.865642)"><g/></g></g><g fill="#ddcead" fill-opacity="1"><g transform="translate(89.265464, 78.865642)"><g><path d="M 3.503906 -0.722656 C 3.308594 -0.667969 3.148438 -0.65625 2.925781 -0.65625 C 1.996094 -0.65625 1.929688 -1.128906 1.929688 -2.296875 L 1.929688 -5.683594 L 3.1875 -5.683594 L 3.1875 -6.46875 L 1.929688 -6.46875 L 1.929688 -8.070312 L 0.972656 -7.976562 L 0.972656 -6.46875 L 0.0390625 -6.46875 L 0.0390625 -5.683594 L 0.972656 -5.683594 L 0.972656 -2.296875 C 0.972656 -0.945312 1.074219 -0.433594 1.5625 -0.0664062 C 1.785156 0.105469 2.140625 0.183594 2.625 0.183594 C 2.9375 0.183594 3.136719 0.15625 3.503906 0.09375 Z M 3.503906 -0.722656 "/></g></g></g><g fill="#ddcead" fill-opacity="1"><g transform="translate(92.611395, 78.865642)"><g><path d="M 5.289062 0 C 5.183594 -0.445312 5.171875 -0.722656 5.171875 -1.769531 L 5.171875 -4.226562 C 5.171875 -5.589844 4.894531 -6.050781 4.226562 -6.402344 C 3.898438 -6.574219 3.515625 -6.652344 3.070312 -6.652344 C 1.902344 -6.652344 0.957031 -6.035156 0.773438 -4.984375 L 1.71875 -4.828125 C 1.914062 -5.5625 2.363281 -5.851562 3.003906 -5.851562 C 3.753906 -5.851562 4.210938 -5.433594 4.210938 -4.304688 L 4.210938 -3.976562 C 3.910156 -4.015625 3.6875 -4.027344 3.359375 -4.027344 C 1.300781 -4.027344 0.523438 -3.03125 0.523438 -1.730469 C 0.523438 -0.578125 1.285156 0.183594 2.425781 0.183594 C 3.265625 0.183594 3.84375 -0.195312 4.289062 -1.140625 C 4.289062 -0.65625 4.332031 -0.300781 4.371094 0 Z M 4.199219 -3.214844 C 4.210938 -3.148438 4.226562 -2.820312 4.226562 -2.625 C 4.226562 -1.46875 3.570312 -0.617188 2.609375 -0.617188 C 1.863281 -0.617188 1.535156 -1.0625 1.535156 -1.730469 C 1.535156 -2.769531 2.125 -3.292969 3.449219 -3.292969 C 3.726562 -3.292969 3.949219 -3.265625 4.199219 -3.214844 Z M 4.199219 -3.214844 "/></g></g></g><g fill="#ddcead" fill-opacity="1"><g transform="translate(98.647197, 78.865642)"><g><path d="M 4.121094 -2.191406 C 4.015625 -0.996094 3.621094 -0.617188 2.953125 -0.617188 C 2.152344 -0.617188 1.601562 -1.128906 1.601562 -3.003906 C 1.601562 -5.039062 1.941406 -5.851562 2.925781 -5.851562 C 3.726562 -5.851562 3.976562 -5.378906 4.121094 -4.265625 L 5.089844 -4.460938 C 4.828125 -6.035156 4.160156 -6.652344 2.953125 -6.652344 C 1.363281 -6.652344 0.539062 -5.457031 0.539062 -3.164062 C 0.539062 -0.996094 1.351562 0.183594 2.886719 0.183594 C 4.160156 0.183594 4.90625 -0.445312 5.089844 -2.074219 Z M 4.121094 -2.191406 "/></g></g></g><g fill="#ddcead" fill-opacity="1"><g transform="translate(104.013812, 78.865642)"><g><path d="M 3.003906 0.183594 C 4.644531 0.183594 5.5 -1.011719 5.5 -3.308594 C 5.5 -5.367188 4.632812 -6.652344 3.042969 -6.652344 C 1.417969 -6.652344 0.539062 -5.472656 0.539062 -3.226562 C 0.539062 -1.089844 1.378906 0.183594 3.003906 0.183594 Z M 3.019531 -0.617188 C 2.085938 -0.617188 1.601562 -1.484375 1.601562 -3.226562 C 1.601562 -4.921875 2.074219 -5.851562 3.003906 -5.851562 C 3.949219 -5.851562 4.433594 -4.960938 4.433594 -3.226562 C 4.433594 -1.484375 3.949219 -0.617188 3.019531 -0.617188 Z M 3.019531 -0.617188 "/></g></g></g><g fill="#ddcead" fill-opacity="1"><g transform="translate(110.049615, 78.865642)"><g><path d="M 2.953125 -2.691406 C 3.53125 -2.507812 3.898438 -2.179688 3.898438 -1.679688 C 3.898438 -1.089844 3.398438 -0.617188 2.609375 -0.617188 C 1.757812 -0.617188 1.257812 -1.023438 1.117188 -1.863281 L 0.222656 -1.667969 C 0.472656 -0.40625 1.246094 0.183594 2.546875 0.183594 C 4.042969 0.183594 4.894531 -0.722656 4.894531 -1.8125 C 4.894531 -2.675781 4.421875 -3.332031 2.652344 -3.820312 C 1.679688 -4.082031 1.402344 -4.304688 1.402344 -4.855469 C 1.402344 -5.394531 1.835938 -5.851562 2.519531 -5.851562 C 3.109375 -5.851562 3.542969 -5.5 3.777344 -4.800781 L 4.617188 -5.011719 C 4.332031 -6.152344 3.609375 -6.652344 2.570312 -6.652344 C 1.285156 -6.652344 0.460938 -5.707031 0.460938 -4.722656 C 0.460938 -4.289062 0.617188 -3.4375 1.929688 -3.019531 Z M 2.953125 -2.691406 "/></g></g></g><g fill="#ddcead" fill-opacity="1"><g transform="translate(115.193162, 78.865642)"><g/></g></g><g fill="#ddcead" fill-opacity="1"><g transform="translate(118.473487, 78.865642)"><g><path d="M 3.003906 0.183594 C 4.644531 0.183594 5.5 -1.011719 5.5 -3.308594 C 5.5 -5.367188 4.632812 -6.652344 3.042969 -6.652344 C 1.417969 -6.652344 0.539062 -5.472656 0.539062 -3.226562 C 0.539062 -1.089844 1.378906 0.183594 3.003906 0.183594 Z M 3.019531 -0.617188 C 2.085938 -0.617188 1.601562 -1.484375 1.601562 -3.226562 C 1.601562 -4.921875 2.074219 -5.851562 3.003906 -5.851562 C 3.949219 -5.851562 4.433594 -4.960938 4.433594 -3.226562 C 4.433594 -1.484375 3.949219 -0.617188 3.019531 -0.617188 Z M 3.019531 -0.617188 "/></g></g></g><g fill="#ddcead" fill-opacity="1"><g transform="translate(124.509289, 78.865642)"><g><path d="M 2.007812 0 L 2.007812 -5.683594 L 3.1875 -5.683594 L 3.1875 -6.46875 L 2.007812 -6.46875 L 2.007812 -6.574219 C 2.007812 -7.53125 2.097656 -7.820312 2.386719 -8.003906 C 2.53125 -8.097656 2.742188 -8.136719 3.042969 -8.136719 C 3.214844 -8.136719 3.292969 -8.121094 3.503906 -8.070312 L 3.503906 -8.855469 C 3.320312 -8.898438 3.082031 -8.9375 2.769531 -8.9375 C 1.457031 -8.9375 1.050781 -8.320312 1.050781 -6.46875 L 0.117188 -6.46875 L 0.117188 -5.683594 L 1.050781 -5.683594 L 1.050781 0 Z M 2.007812 0 "/></g></g></g><g fill="#ddcead" fill-opacity="1"><g transform="translate(127.645284, 78.865642)"><g/></g></g><g fill="#ddcead" fill-opacity="1"><g transform="translate(130.925609, 78.865642)"><g><path d="M 3.503906 -0.722656 C 3.308594 -0.667969 3.148438 -0.65625 2.925781 -0.65625 C 1.996094 -0.65625 1.929688 -1.128906 1.929688 -2.296875 L 1.929688 -5.683594 L 3.1875 -5.683594 L 3.1875 -6.46875 L 1.929688 -6.46875 L 1.929688 -8.070312 L 0.972656 -7.976562 L 0.972656 -6.46875 L 0.0390625 -6.46875 L 0.0390625 -5.683594 L 0.972656 -5.683594 L 0.972656 -2.296875 C 0.972656 -0.945312 1.074219 -0.433594 1.5625 -0.0664062 C 1.785156 0.105469 2.140625 0.183594 2.625 0.183594 C 2.9375 0.183594 3.136719 0.15625 3.503906 0.09375 Z M 3.503906 -0.722656 "/></g></g></g><g fill="#ddcead" fill-opacity="1"><g transform="translate(134.271536, 78.865642)"><g><path d="M 5.171875 0 L 5.171875 -4.566406 C 5.171875 -5.445312 4.984375 -5.96875 4.578125 -6.285156 C 4.289062 -6.507812 3.9375 -6.652344 3.4375 -6.652344 C 2.664062 -6.652344 2.085938 -6.257812 1.824219 -5.472656 L 1.824219 -8.753906 L 0.867188 -8.753906 L 0.867188 0 L 1.824219 0 L 1.824219 -3.4375 C 1.824219 -4.894531 2.269531 -5.851562 3.164062 -5.851562 C 3.898438 -5.851562 4.210938 -5.457031 4.210938 -4.171875 L 4.210938 0 Z M 5.171875 0 "/></g></g></g><g fill="#ddcead" fill-opacity="1"><g transform="translate(140.307338, 78.865642)"><g><path d="M 4.371094 -1.914062 C 4.09375 -0.917969 3.660156 -0.617188 3.058594 -0.617188 C 2.074219 -0.617188 1.546875 -1.429688 1.546875 -3.019531 L 1.546875 -3.109375 L 5.367188 -3.109375 C 5.328125 -5.539062 4.515625 -6.652344 3.058594 -6.652344 C 1.535156 -6.652344 0.539062 -5.339844 0.539062 -3.136719 C 0.539062 -1.035156 1.429688 0.183594 3.003906 0.183594 C 4.226562 0.183594 4.945312 -0.484375 5.273438 -1.707031 Z M 1.601562 -3.898438 C 1.707031 -5.25 2.203125 -5.851562 2.953125 -5.851562 C 3.792969 -5.851562 4.277344 -5.15625 4.277344 -3.898438 Z M 1.601562 -3.898438 "/></g></g></g><g fill="#ddcead" fill-opacity="1"><g transform="translate(146.120081, 78.865642)"><g/></g></g><g fill="#ddcead" fill-opacity="1"><g transform="translate(149.400406, 78.865642)"><g><path d="M 2.953125 -2.691406 C 3.53125 -2.507812 3.898438 -2.179688 3.898438 -1.679688 C 3.898438 -1.089844 3.398438 -0.617188 2.609375 -0.617188 C 1.757812 -0.617188 1.257812 -1.023438 1.117188 -1.863281 L 0.222656 -1.667969 C 0.472656 -0.40625 1.246094 0.183594 2.546875 0.183594 C 4.042969 0.183594 4.894531 -0.722656 4.894531 -1.8125 C 4.894531 -2.675781 4.421875 -3.332031 2.652344 -3.820312 C 1.679688 -4.082031 1.402344 -4.304688 1.402344 -4.855469 C 1.402344 -5.394531 1.835938 -5.851562 2.519531 -5.851562 C 3.109375 -5.851562 3.542969 -5.5 3.777344 -4.800781 L 4.617188 -5.011719 C 4.332031 -6.152344 3.609375 -6.652344 2.570312 -6.652344 C 1.285156 -6.652344 0.460938 -5.707031 0.460938 -4.722656 C 0.460938 -4.289062 0.617188 -3.4375 1.929688 -3.019531 Z M 2.953125 -2.691406 "/></g></g></g><g fill="#ddcead" fill-opacity="1"><g transform="translate(154.543953, 78.865642)"><g><path d="M 5.289062 0 C 5.183594 -0.445312 5.171875 -0.722656 5.171875 -1.769531 L 5.171875 -4.226562 C 5.171875 -5.589844 4.894531 -6.050781 4.226562 -6.402344 C 3.898438 -6.574219 3.515625 -6.652344 3.070312 -6.652344 C 1.902344 -6.652344 0.957031 -6.035156 0.773438 -4.984375 L 1.71875 -4.828125 C 1.914062 -5.5625 2.363281 -5.851562 3.003906 -5.851562 C 3.753906 -5.851562 4.210938 -5.433594 4.210938 -4.304688 L 4.210938 -3.976562 C 3.910156 -4.015625 3.6875 -4.027344 3.359375 -4.027344 C 1.300781 -4.027344 0.523438 -3.03125 0.523438 -1.730469 C 0.523438 -0.578125 1.285156 0.183594 2.425781 0.183594 C 3.265625 0.183594 3.84375 -0.195312 4.289062 -1.140625 C 4.289062 -0.65625 4.332031 -0.300781 4.371094 0 Z M 4.199219 -3.214844 C 4.210938 -3.148438 4.226562 -2.820312 4.226562 -2.625 C 4.226562 -1.46875 3.570312 -0.617188 2.609375 -0.617188 C 1.863281 -0.617188 1.535156 -1.0625 1.535156 -1.730469 C 1.535156 -2.769531 2.125 -3.292969 3.449219 -3.292969 C 3.726562 -3.292969 3.949219 -3.265625 4.199219 -3.214844 Z M 4.199219 -3.214844 "/></g></g></g><g fill="#ddcead" fill-opacity="1"><g transform="translate(160.579756, 78.865642)"><g><path d="M 8.304688 0 L 8.304688 -4.382812 C 8.304688 -5.550781 8.097656 -6.0625 7.570312 -6.390625 C 7.296875 -6.5625 6.96875 -6.652344 6.5625 -6.652344 C 5.851562 -6.652344 5.25 -6.296875 4.894531 -5.339844 C 4.738281 -6.234375 4.226562 -6.652344 3.347656 -6.652344 C 2.652344 -6.652344 2.152344 -6.417969 1.757812 -5.472656 L 1.757812 -6.46875 L 0.867188 -6.46875 L 0.867188 0 L 1.824219 0 L 1.824219 -3.988281 C 1.824219 -5.171875 2.28125 -5.851562 3.097656 -5.851562 C 3.898438 -5.851562 4.105469 -5.300781 4.105469 -4.421875 L 4.105469 0 L 5.066406 0 L 5.066406 -3.832031 C 5.066406 -5.050781 5.5 -5.851562 6.335938 -5.851562 C 6.730469 -5.851562 7.347656 -5.824219 7.347656 -4.25 L 7.347656 0 Z M 8.304688 0 "/></g></g></g><g fill="#ddcead" fill-opacity="1"><g transform="translate(169.738425, 78.865642)"><g><path d="M 4.371094 -1.914062 C 4.09375 -0.917969 3.660156 -0.617188 3.058594 -0.617188 C 2.074219 -0.617188 1.546875 -1.429688 1.546875 -3.019531 L 1.546875 -3.109375 L 5.367188 -3.109375 C 5.328125 -5.539062 4.515625 -6.652344 3.058594 -6.652344 C 1.535156 -6.652344 0.539062 -5.339844 0.539062 -3.136719 C 0.539062 -1.035156 1.429688 0.183594 3.003906 0.183594 C 4.226562 0.183594 4.945312 -0.484375 5.273438 -1.707031 Z M 1.601562 -3.898438 C 1.707031 -5.25 2.203125 -5.851562 2.953125 -5.851562 C 3.792969 -5.851562 4.277344 -5.15625 4.277344 -3.898438 Z M 1.601562 -3.898438 "/></g></g></g><g fill="#ddcead" fill-opacity="1"><g transform="translate(175.551168, 78.865642)"><g/></g></g><g fill="#ddcead" fill-opacity="1"><g transform="translate(178.831493, 78.865642)"><g><path d="M 2.007812 0 L 2.007812 -5.683594 L 3.1875 -5.683594 L 3.1875 -6.46875 L 2.007812 -6.46875 L 2.007812 -6.574219 C 2.007812 -7.53125 2.097656 -7.820312 2.386719 -8.003906 C 2.53125 -8.097656 2.742188 -8.136719 3.042969 -8.136719 C 3.214844 -8.136719 3.292969 -8.121094 3.503906 -8.070312 L 3.503906 -8.855469 C 3.320312 -8.898438 3.082031 -8.9375 2.769531 -8.9375 C 1.457031 -8.9375 1.050781 -8.320312 1.050781 -6.46875 L 0.117188 -6.46875 L 0.117188 -5.683594 L 1.050781 -5.683594 L 1.050781 0 Z M 2.007812 0 "/></g></g></g><g fill="#ddcead" fill-opacity="1"><g transform="translate(181.967488, 78.865642)"><g><path d="M 1.824219 0 L 1.824219 -8.753906 L 0.867188 -8.753906 L 0.867188 0 Z M 1.824219 0 "/></g></g></g><g fill="#ddcead" fill-opacity="1"><g transform="translate(184.644236, 78.865642)"><g><path d="M 5.289062 0 C 5.183594 -0.445312 5.171875 -0.722656 5.171875 -1.769531 L 5.171875 -4.226562 C 5.171875 -5.589844 4.894531 -6.050781 4.226562 -6.402344 C 3.898438 -6.574219 3.515625 -6.652344 3.070312 -6.652344 C 1.902344 -6.652344 0.957031 -6.035156 0.773438 -4.984375 L 1.71875 -4.828125 C 1.914062 -5.5625 2.363281 -5.851562 3.003906 -5.851562 C 3.753906 -5.851562 4.210938 -5.433594 4.210938 -4.304688 L 4.210938 -3.976562 C 3.910156 -4.015625 3.6875 -4.027344 3.359375 -4.027344 C 1.300781 -4.027344 0.523438 -3.03125 0.523438 -1.730469 C 0.523438 -0.578125 1.285156 0.183594 2.425781 0.183594 C 3.265625 0.183594 3.84375 -0.195312 4.289062 -1.140625 C 4.289062 -0.65625 4.332031 -0.300781 4.371094 0 Z M 4.199219 -3.214844 C 4.210938 -3.148438 4.226562 -2.820312 4.226562 -2.625 C 4.226562 -1.46875 3.570312 -0.617188 2.609375 -0.617188 C 1.863281 -0.617188 1.535156 -1.0625 1.535156 -1.730469 C 1.535156 -2.769531 2.125 -3.292969 3.449219 -3.292969 C 3.726562 -3.292969 3.949219 -3.265625 4.199219 -3.214844 Z M 4.199219 -3.214844 "/></g></g></g><g fill="#ddcead" fill-opacity="1"><g transform="translate(190.680039, 78.865642)"><g><path d="M 2.953125 0 L 4.828125 -6.46875 L 3.949219 -6.46875 L 2.53125 -1.15625 L 1.0625 -6.46875 L 0.09375 -6.46875 L 1.96875 0 Z M 2.953125 0 "/></g></g></g><g fill="#ddcead" fill-opacity="1"><g transform="translate(195.600526, 78.865642)"><g><path d="M 3.003906 0.183594 C 4.644531 0.183594 5.5 -1.011719 5.5 -3.308594 C 5.5 -5.367188 4.632812 -6.652344 3.042969 -6.652344 C 1.417969 -6.652344 0.539062 -5.472656 0.539062 -3.226562 C 0.539062 -1.089844 1.378906 0.183594 3.003906 0.183594 Z M 3.019531 -0.617188 C 2.085938 -0.617188 1.601562 -1.484375 1.601562 -3.226562 C 1.601562 -4.921875 2.074219 -5.851562 3.003906 -5.851562 C 3.949219 -5.851562 4.433594 -4.960938 4.433594 -3.226562 C 4.433594 -1.484375 3.949219 -0.617188 3.019531 -0.617188 Z M 3.019531 -0.617188 "/></g></g></g><g fill="#ddcead" fill-opacity="1"><g transform="translate(201.636329, 78.865642)"><g><path d="M 5.171875 0 L 5.171875 -6.46875 L 4.210938 -6.46875 L 4.210938 -3.242188 C 4.210938 -1.378906 3.714844 -0.617188 2.808594 -0.617188 C 2.019531 -0.617188 1.824219 -0.972656 1.824219 -2.191406 L 1.824219 -6.46875 L 0.867188 -6.46875 L 0.867188 -2.085938 C 0.867188 -1.207031 1.011719 -0.667969 1.3125 -0.328125 C 1.640625 0.0390625 2.085938 0.183594 2.585938 0.183594 C 3.386719 0.183594 3.921875 -0.171875 4.277344 -0.957031 L 4.277344 0 Z M 5.171875 0 "/></g></g></g><g fill="#ddcead" fill-opacity="1"><g transform="translate(207.672131, 78.865642)"><g><path d="M 1.824219 0 L 1.824219 -3.410156 C 1.824219 -4.722656 2.375 -5.578125 3.359375 -5.578125 L 3.582031 -5.5625 L 3.582031 -6.640625 L 3.425781 -6.640625 C 2.730469 -6.640625 2.140625 -6.207031 1.71875 -5.117188 L 1.71875 -6.46875 L 0.867188 -6.46875 L 0.867188 0 Z M 1.824219 0 "/></g></g></g><g fill="#ddcead" fill-opacity="1"><g transform="translate(211.018058, 78.865642)"><g/></g></g><g fill="#ddcead" fill-opacity="1"><g transform="translate(214.298383, 78.865642)"><g><path d="M 3.003906 0.183594 C 4.644531 0.183594 5.5 -1.011719 5.5 -3.308594 C 5.5 -5.367188 4.632812 -6.652344 3.042969 -6.652344 C 1.417969 -6.652344 0.539062 -5.472656 0.539062 -3.226562 C 0.539062 -1.089844 1.378906 0.183594 3.003906 0.183594 Z M 3.019531 -0.617188 C 2.085938 -0.617188 1.601562 -1.484375 1.601562 -3.226562 C 1.601562 -4.921875 2.074219 -5.851562 3.003906 -5.851562 C 3.949219 -5.851562 4.433594 -4.960938 4.433594 -3.226562 C 4.433594 -1.484375 3.949219 -0.617188 3.019531 -0.617188 Z M 3.019531 -0.617188 "/></g></g></g><g fill="#ddcead" fill-opacity="1"><g transform="translate(220.334185, 78.865642)"><g><path d="M 5.171875 0 L 5.171875 -4.421875 C 5.171875 -5.589844 4.960938 -6.0625 4.433594 -6.390625 C 4.160156 -6.5625 3.832031 -6.652344 3.425781 -6.652344 C 2.691406 -6.652344 2.125 -6.351562 1.757812 -5.472656 L 1.757812 -6.46875 L 0.867188 -6.46875 L 0.867188 0 L 1.824219 0 L 1.824219 -3.570312 C 1.824219 -4.972656 2.242188 -5.851562 3.226562 -5.851562 C 4.003906 -5.851562 4.210938 -5.457031 4.210938 -4.1875 L 4.210938 0 Z M 5.171875 0 "/></g></g></g><g fill="#ddcead" fill-opacity="1"><g transform="translate(226.369988, 78.865642)"><g><path d="M 1.824219 0 L 1.824219 -8.753906 L 0.867188 -8.753906 L 0.867188 0 Z M 1.824219 0 "/></g></g></g><g fill="#ddcead" fill-opacity="1"><g transform="translate(229.046736, 78.865642)"><g><path d="M 0.328125 2.269531 C 0.539062 2.308594 0.695312 2.335938 0.957031 2.335938 C 1.863281 2.335938 2.269531 1.914062 2.691406 0.550781 L 4.882812 -6.46875 L 3.960938 -6.46875 L 2.53125 -1.640625 L 1.207031 -6.46875 L 0.25 -6.46875 L 2.074219 -0.289062 C 1.652344 1.207031 1.523438 1.535156 0.773438 1.535156 C 0.617188 1.535156 0.539062 1.523438 0.328125 1.484375 Z M 0.328125 2.269531 "/></g></g></g></g></g></g></g></g></svg>